<?xml version="1.0" standalone="no"?>
<!DOCTYPE svg PUBLIC "-//W3C//DTD SVG 1.1//EN" "http://www.w3.org/Graphics/SVG/1.1/DTD/svg11.dtd" >
<svg xmlns="http://www.w3.org/2000/svg" xmlns:xlink="http://www.w3.org/1999/xlink" version="1.1">
<metadata>
Created by FontForge 20190801 at Wed May 18 14:24:38 2011
 By Jimmy Wärting

</metadata>
<defs>
<font id="SeroPro-Black" horiz-adv-x="1000" >
  <font-face 
    font-family="SeroPro-Black"
    font-weight="900"
    font-stretch="normal"
    units-per-em="1000"
    panose-1="2 11 10 4 2 1 1 2 1 2"
    ascent="778"
    descent="-222"
    x-height="510"
    cap-height="720"
    bbox="-491 -309 2733 975"
    underline-thickness="131"
    underline-position="-101"
    stemh="140"
    stemv="198"
    unicode-range="U+000D-1F4AC"
  />
<missing-glyph horiz-adv-x="500" 
d="M0 0v720h500v-720h-500zM142 578v-436h216v436h-216z" />
    <glyph glyph-name="f_b" unicode="fb" horiz-adv-x="916" 
d="M330 723v-140c-11 2 -18 3 -26 3c-27 0 -34 -13 -34 -46v-30h60v-142h-60v-368h-198v368h-60v142h60v30c0 133 55 186 198 186c20 0 42 -1 60 -3zM711 522c108 0 181 -96 181 -259c0 -178 -87 -275 -196 -275c-49 0 -94 20 -130 74v-62h-190v720h198v-268
c37 45 82 70 137 70zM631 360c-14 0 -32 -4 -57 -25v-174c24 -19 41 -23 55 -23c36 0 65 29 65 112c0 81 -27 110 -63 110z" />
    <glyph glyph-name="f_f" unicode="ff" horiz-adv-x="660" 
d="M12 368v142h60v30c0 133 57 186 205 186c20 0 42 -1 61 -3v-140c-12 2 -20 3 -29 3c-31 0 -39 -13 -39 -46v-30h112v30c0 133 57 186 205 186c20 0 42 -1 61 -3v-140c-12 2 -20 3 -29 3c-31 0 -39 -13 -39 -46v-30h68v-142h-68v-368h-198v368h-112v-368h-198v368h-60z
" />
    <glyph glyph-name="f_f_i" unicode="ffi" horiz-adv-x="950" 
d="M12 368v142h60v30c0 133 57 186 205 186c20 0 42 -1 61 -3v-140c-12 2 -20 3 -29 3c-31 0 -39 -13 -39 -46v-30h112v30c0 133 55 186 198 186c20 0 42 -1 60 -3v-140c-11 2 -18 3 -26 3c-27 0 -34 -13 -34 -46v-30h60v-142h-60v-368h-198v368h-112v-368h-198v368h-60z
M692 0v510h198v-510h-198zM900 652c0 -58 -42 -100 -109 -100s-109 42 -109 100s42 100 109 100s109 -42 109 -100z" />
    <glyph glyph-name="f_f_l" unicode="ffl" horiz-adv-x="950" 
d="M12 368v142h60v30c0 133 57 186 205 186c20 0 42 -1 61 -3v-140c-12 2 -20 3 -29 3c-31 0 -39 -13 -39 -46v-30h112v30c0 133 55 186 198 186c20 0 42 -1 60 -3v-140c-11 2 -18 3 -26 3c-27 0 -34 -13 -34 -46v-30h60v-142h-60v-368h-198v368h-112v-368h-198v368h-60z
M692 0v720h198v-720h-198z" />
    <glyph glyph-name="f_h" unicode="fh" horiz-adv-x="904" 
d="M330 723v-140c-11 2 -18 3 -26 3c-27 0 -34 -13 -34 -46v-30h60v-142h-60v-368h-198v368h-60v142h60v30c0 133 55 186 198 186c20 0 42 -1 60 -3zM574 720v-264c44 43 95 66 158 66c76 0 132 -34 132 -142v-380h-198v315c0 31 -10 41 -31 41c-19 0 -38 -8 -61 -26v-330
h-198v720h198z" />
    <glyph glyph-name="f_i" unicode="fi" horiz-adv-x="640" 
d="M330 723v-140c-11 2 -18 3 -26 3c-27 0 -34 -13 -34 -46v-30h60v-142h-60v-368h-198v368h-60v142h60v30c0 133 55 186 198 186c20 0 42 -1 60 -3zM382 0v510h198v-510h-198zM590 652c0 -58 -42 -100 -109 -100s-109 42 -109 100s42 100 109 100s109 -42 109 -100z" />
    <glyph glyph-name="f_j" unicode="fj" horiz-adv-x="640" 
d="M330 723v-140c-11 2 -18 3 -26 3c-27 0 -34 -13 -34 -46v-30h60v-142h-60v-368h-198v368h-60v142h60v30c0 133 55 186 198 186c20 0 42 -1 60 -3zM580 510v-540c0 -133 -57 -186 -205 -186c-20 0 -42 1 -61 3v140c12 -2 20 -3 29 -3c31 0 39 13 39 46v540h198zM590 652
c0 -58 -42 -100 -109 -100s-109 42 -109 100s42 100 109 100s109 -42 109 -100z" />
    <glyph glyph-name="f_k" unicode="fk" horiz-adv-x="898" 
d="M330 723v-140c-11 2 -18 3 -26 3c-27 0 -34 -13 -34 -46v-30h60v-142h-60v-368h-198v368h-60v142h60v30c0 133 55 186 198 186c20 0 42 -1 60 -3zM376 0v720h198v-365l102 155h206l-156 -190l162 -320h-203l-81 171l-30 -37v-134h-198z" />
    <glyph glyph-name="f_l" unicode="fl" horiz-adv-x="640" 
d="M330 723v-140c-11 2 -18 3 -26 3c-27 0 -34 -13 -34 -46v-30h60v-142h-60v-368h-198v368h-60v142h60v30c0 133 55 186 198 186c20 0 42 -1 60 -3zM382 0v720h198v-720h-198z" />
    <glyph glyph-name="f_t" unicode="ft" horiz-adv-x="672" 
d="M580 680v-170h78v-142h-78v-176c0 -39 7 -50 35 -50c14 0 30 3 43 6v-146c-28 -6 -64 -8 -98 -8c-133 0 -178 31 -178 158v216h-112v-368h-198v368h-60v142h60v30c0 133 55 186 198 186c20 0 42 -1 60 -3v-140c-11 2 -18 3 -26 3c-27 0 -34 -13 -34 -46v-30h112v170h198z
" />
    <glyph glyph-name=".notdef" horiz-adv-x="500" 
d="M0 0v720h500v-720h-500zM142 578v-436h216v436h-216z" />
    <glyph glyph-name=".null" horiz-adv-x="0" 
 />
    <glyph glyph-name="CR" unicode="&#xd;" horiz-adv-x="220" 
 />
    <glyph glyph-name="space" unicode=" " horiz-adv-x="220" 
 />
    <glyph glyph-name="exclam" unicode="!" horiz-adv-x="346" 
d="M62 90c0 58 45 102 111 102s111 -44 111 -102s-45 -102 -111 -102s-111 44 -111 102zM94 236l-36 484h230l-36 -484h-158z" />
    <glyph glyph-name="quotedbl" unicode="&#x22;" horiz-adv-x="472" 
d="M66 417l-10 303h154l-10 -303h-134zM272 417l-10 303h154l-10 -303h-134z" />
    <glyph glyph-name="numbersign" unicode="#" horiz-adv-x="572" 
d="M250 0l37 174h-73l-37 -174h-160l37 174h-60v132h88l14 68h-71v132h100l37 174h160l-37 -174h73l37 174h160l-37 -174h60v-132h-89l-14 -68h72v-132h-100l-37 -174h-160zM256 374l-14 -68h73l14 68h-73z" />
    <glyph glyph-name="dollar" unicode="$" horiz-adv-x="566" 
d="M226 -100v101c-72 4 -145 21 -202 49l43 160c56 -26 119 -52 183 -52c60 0 93 23 93 56c0 101 -305 40 -305 276c0 115 73 195 188 221v90h118v-83c64 -5 123 -23 172 -48l-43 -165c-49 28 -107 51 -159 51c-49 0 -77 -21 -77 -49c0 -92 305 -33 305 -270
c0 -116 -73 -201 -198 -228v-109h-118z" />
    <glyph glyph-name="percent" unicode="%" horiz-adv-x="856" 
d="M243 552c0 48 -11 70 -33 70s-33 -22 -33 -70s11 -70 33 -70s33 22 33 70zM384 555c0 -97 -66 -173 -175 -173c-107 0 -173 74 -173 171s66 173 175 173c107 0 173 -74 173 -171zM568 720h167l-447 -720h-167zM679 164c0 48 -11 70 -33 70s-33 -22 -33 -70s11 -70 33 -70
s33 22 33 70zM820 167c0 -97 -66 -173 -175 -173c-107 0 -173 74 -173 171s66 173 175 173c107 0 173 -74 173 -171z" />
    <glyph glyph-name="ampersand" unicode="&#x26;" horiz-adv-x="628" 
d="M84 500c0 114 87 192 236 192c144 0 222 -73 222 -170c0 -91 -69 -139 -145 -179l57 -55c14 22 27 45 40 71l123 -70c-19 -34 -39 -68 -61 -100l78 -75l-123 -126l-73 75c-60 -46 -129 -75 -212 -75c-125 0 -220 66 -220 186c0 86 48 132 144 183c-37 38 -66 76 -66 143z
M268 127c27 0 53 10 79 29l-101 104c-30 -23 -44 -45 -44 -72c0 -35 23 -61 66 -61zM264 503c0 -26 15 -45 43 -72c45 20 69 45 69 75c0 26 -19 49 -56 49s-56 -23 -56 -52z" />
    <glyph glyph-name="quotesingle" unicode="'" horiz-adv-x="266" 
d="M66 417l-10 303h154l-10 -303h-134z" />
    <glyph glyph-name="parenleft" unicode="(" horiz-adv-x="378" 
d="M222 282c0 -180 61 -289 142 -378l-101 -90c-101 89 -239 226 -239 468s138 379 239 468l101 -90c-81 -89 -142 -198 -142 -378z" />
    <glyph glyph-name="parenright" unicode=")" horiz-adv-x="378" 
d="M14 660l101 90c101 -89 239 -226 239 -468s-138 -379 -239 -468l-101 90c81 89 142 198 142 378s-61 289 -142 378z" />
    <glyph glyph-name="asterisk" unicode="*" horiz-adv-x="440" 
d="M20 472v100l122 -5l-65 103l86 50l57 -109l57 109l86 -50l-65 -103l122 5v-100l-122 5l65 -103l-86 -50l-57 109l-57 -109l-86 50l65 103z" />
    <glyph glyph-name="plus" unicode="+" horiz-adv-x="572" 
d="M364 0h-156v179h-166v152h166v179h156v-179h166v-152h-166v-179z" />
    <glyph glyph-name="comma" unicode="," horiz-adv-x="310" 
d="M17 -109c66 38 98 77 113 114c-56 6 -92 47 -92 101c0 58 42 102 109 102c75 0 127 -54 127 -149c0 -82 -39 -168 -175 -246z" />
    <glyph glyph-name="hyphen" unicode="-" horiz-adv-x="406" 
d="M40 248v128h326v-128h-326z" />
    <glyph glyph-name="period" unicode="." horiz-adv-x="310" 
d="M40 98c0 62 47 110 115 110s115 -48 115 -110s-47 -110 -115 -110s-115 48 -115 110z" />
    <glyph glyph-name="slash" unicode="/" horiz-adv-x="688" 
d="M463 720h201l-439 -760h-201z" />
    <glyph glyph-name="zero" unicode="0" horiz-adv-x="654" 
d="M327 146c54 0 95 48 95 211s-41 211 -95 211s-95 -48 -95 -211s41 -211 95 -211zM327 -12c-171 0 -293 126 -293 372c0 242 126 372 293 372c171 0 293 -126 293 -372c0 -242 -126 -372 -293 -372z" />
    <glyph glyph-name="one" unicode="1" horiz-adv-x="422" 
d="M348 0h-194v518l-80 -41l-54 153l177 90h151v-720z" />
    <glyph glyph-name="two" unicode="2" horiz-adv-x="572" 
d="M538 158v-158h-516v142c232 182 298 284 298 350c0 43 -29 70 -79 70c-60 0 -119 -39 -165 -87l-54 164c52 52 143 95 248 95c149 0 248 -88 248 -226c0 -134 -94 -245 -216 -350h236z" />
    <glyph glyph-name="three" unicode="3" horiz-adv-x="562" 
d="M111 282v148c171 0 211 30 211 78c0 41 -28 62 -81 62c-50 0 -103 -19 -167 -53l-44 159c69 35 149 58 238 58c148 0 252 -63 252 -185c0 -80 -45 -142 -131 -176c102 -25 149 -84 149 -169c0 -136 -120 -216 -306 -216c-88 0 -165 18 -228 46l44 162
c60 -28 114 -50 179 -50c66 0 103 23 103 70c0 45 -35 69 -141 69c-22 0 -47 -1 -78 -3z" />
    <glyph glyph-name="four" unicode="4" horiz-adv-x="650" 
d="M18 133v148l307 439h217v-429h100v-158h-100v-133h-193v133h-331zM210 291h139v199z" />
    <glyph glyph-name="five" unicode="5" horiz-adv-x="554" 
d="M6 34l44 164c51 -24 105 -50 177 -50c77 0 115 30 115 85c0 59 -44 85 -135 85c-40 0 -100 -5 -171 -24l14 426h458v-164h-271l-3 -90c18 1 34 2 47 2c161 0 259 -89 259 -232c0 -159 -120 -248 -308 -248c-85 0 -163 18 -226 46z" />
    <glyph glyph-name="six" unicode="6" horiz-adv-x="612" 
d="M552 690l-44 -166c-49 24 -92 44 -144 44c-66 0 -115 -32 -131 -137c49 48 99 57 140 57c131 0 215 -94 215 -236c0 -172 -122 -264 -265 -264c-168 0 -289 127 -289 365c0 252 136 379 330 379c67 0 137 -15 188 -42zM326 142c43 0 74 33 74 95c0 64 -32 97 -81 97
c-28 0 -53 -11 -89 -38c8 -114 47 -154 96 -154z" />
    <glyph glyph-name="seven" unicode="7" horiz-adv-x="484" 
d="M257 0h-217c71 202 143 382 226 550h-270v170h492v-160c-85 -171 -159 -354 -231 -560z" />
    <glyph glyph-name="eight" unicode="8" horiz-adv-x="600" 
d="M16 194c0 96 62 138 124 166c-54 29 -94 79 -94 159c0 129 103 213 262 213c154 0 246 -78 246 -192c0 -75 -39 -123 -102 -155c68 -27 132 -70 132 -173c0 -138 -114 -224 -291 -224c-175 0 -277 84 -277 206zM385 197c0 51 -46 76 -104 101c-42 -26 -66 -53 -66 -97
c0 -50 33 -77 84 -77c52 0 86 29 86 73zM237 531c0 -40 29 -63 74 -84c32 23 52 47 52 82c0 39 -24 61 -62 61c-39 0 -64 -23 -64 -59z" />
    <glyph glyph-name="nine" unicode="9" horiz-adv-x="612" 
d="M248 -12c-67 0 -137 15 -188 42l44 160c49 -24 92 -44 144 -44c67 0 117 33 131 144c-49 -49 -99 -58 -140 -58c-131 0 -215 94 -215 236c0 172 122 264 265 264c168 0 289 -127 289 -365c0 -252 -136 -379 -330 -379zM293 380c27 0 53 10 89 37c-9 114 -48 155 -96 155
c-43 0 -74 -33 -74 -95c0 -64 32 -97 81 -97z" />
    <glyph glyph-name="colon" unicode=":" horiz-adv-x="310" 
d="M40 98c0 62 47 110 115 110s115 -48 115 -110s-47 -110 -115 -110s-115 48 -115 110zM40 395c0 62 47 110 115 110s115 -48 115 -110s-47 -110 -115 -110s-115 48 -115 110z" />
    <glyph glyph-name="semicolon" unicode=";" horiz-adv-x="310" 
d="M17 -109c66 38 98 77 113 114c-56 6 -92 47 -92 101c0 58 42 102 109 102c75 0 127 -54 127 -149c0 -82 -39 -168 -175 -246zM38 395c0 62 47 110 115 110s115 -48 115 -110s-47 -110 -115 -110s-115 48 -115 110z" />
    <glyph glyph-name="less" unicode="&#x3c;" horiz-adv-x="572" 
d="M42 188v134l488 188v-144l-325 -111l325 -111v-144z" />
    <glyph glyph-name="equal" unicode="=" horiz-adv-x="572" 
d="M530 424v-134h-488v134h488zM530 220v-134h-488v134h488z" />
    <glyph glyph-name="greater" unicode="&#x3e;" horiz-adv-x="572" 
d="M530 322v-134l-488 -188v144l325 111l-325 111v144z" />
    <glyph glyph-name="question" unicode="?" horiz-adv-x="438" 
d="M210 511c0 45 -35 69 -92 69c-17 0 -42 -2 -80 -11v146c43 11 84 17 129 17c150 0 241 -65 241 -189c0 -169 -167 -183 -167 -296v-11h-151c-4 27 -5 47 -5 57c0 117 125 133 125 218zM58 90c0 58 45 102 111 102s111 -44 111 -102s-45 -102 -111 -102s-111 44 -111 102z
" />
    <glyph glyph-name="at" unicode="@" horiz-adv-x="836" 
d="M420 -95c-206 0 -370 123 -370 353c0 226 159 391 389 391c206 0 347 -133 347 -335c0 -158 -87 -233 -196 -233c-63 0 -105 25 -121 67c-30 -37 -63 -67 -118 -67c-72 0 -126 49 -126 156c0 124 72 236 224 236c62 0 115 -18 144 -31l-19 -181c-3 -32 -5 -76 28 -76
c34 0 62 47 62 126c0 151 -102 228 -227 228c-157 0 -265 -123 -265 -280c0 -162 115 -244 248 -244c61 0 120 17 180 40l32 -110c-60 -23 -135 -40 -212 -40zM381 191c25 0 44 20 65 52l13 121c-9 3 -18 5 -28 5c-66 0 -80 -81 -80 -126c0 -43 13 -52 30 -52z" />
    <glyph glyph-name="A" unicode="A" horiz-adv-x="704" 
d="M474 720l220 -720h-209l-32 121h-211l-31 -121h-201l226 720h238zM348 532l-69 -265h137z" />
    <glyph glyph-name="B" unicode="B" horiz-adv-x="684" 
d="M70 0v720h277c166 0 265 -64 265 -194c0 -74 -32 -129 -101 -159c91 -28 131 -90 131 -171c0 -122 -91 -196 -281 -196h-291zM266 148h95c60 0 85 22 85 71s-25 71 -85 71h-95v-142zM266 430h69c57 0 81 21 81 68s-24 68 -81 68h-69v-136z" />
    <glyph glyph-name="C" unicode="C" horiz-adv-x="600" 
d="M576 684l-44 -170c-49 28 -91 52 -147 52c-86 0 -155 -58 -155 -211c0 -152 68 -207 160 -207c54 0 98 19 146 52l44 -156c-57 -32 -134 -56 -219 -56c-198 0 -331 125 -331 363c0 248 145 381 352 381c77 0 142 -18 194 -48z" />
    <glyph glyph-name="D" unicode="D" horiz-adv-x="728" 
d="M334 554h-64v-394h64c88 0 160 49 160 197s-72 197 -160 197zM70 0v720h264c217 0 360 -123 360 -360s-149 -360 -360 -360h-264z" />
    <glyph glyph-name="E" unicode="E" horiz-adv-x="590" 
d="M70 0v720h486v-166h-286v-116h246v-156h-246v-122h290v-160h-490z" />
    <glyph glyph-name="F" unicode="F" horiz-adv-x="550" 
d="M70 0v720h466v-166h-266v-126h230v-156h-230v-272h-200z" />
    <glyph glyph-name="G" unicode="G" horiz-adv-x="694" 
d="M630 398v-353c-70 -34 -155 -57 -248 -57c-217 0 -352 126 -352 362c0 248 148 382 373 382c93 0 167 -23 227 -60l-44 -170c-52 35 -107 64 -180 64c-102 0 -176 -57 -176 -216c0 -154 70 -208 175 -208c14 0 27 1 39 2v108h-100v146h286z" />
    <glyph glyph-name="H" unicode="H" horiz-adv-x="732" 
d="M70 0v720h200v-272h192v272h200v-720h-200v282h-192v-282h-200z" />
    <glyph glyph-name="I" unicode="I" horiz-adv-x="348" 
d="M74 0v720h200v-720h-200z" />
    <glyph glyph-name="J" unicode="J" horiz-adv-x="414" 
d="M14 -2v162c19 -3 49 -6 71 -6c60 0 75 22 75 87v479h200v-479c0 -177 -70 -247 -251 -247c-31 0 -70 2 -95 4z" />
    <glyph glyph-name="K" unicode="K" horiz-adv-x="698" 
d="M70 0v720h200v-258l174 258h228l-210 -271l226 -449h-219l-136 282l-63 -82v-200h-200z" />
    <glyph glyph-name="L" unicode="L" horiz-adv-x="544" 
d="M70 0v720h200v-554h260v-166h-460z" />
    <glyph glyph-name="M" unicode="M" horiz-adv-x="986" 
d="M126 720h255l82 -335c1 -5 7 -17 30 -133h2c10 53 18 85 31 134l87 334h251l58 -720h-201l-14 330c-2 45 -2 105 -2 134h-2c-5 -29 -21 -93 -33 -136l-92 -328h-178l-92 328c-7 25 -30 114 -33 136h-2c0 -29 0 -89 -2 -134l-14 -330h-193z" />
    <glyph glyph-name="N" unicode="N" horiz-adv-x="740" 
d="M70 0v720h208l208 -354v354h184v-720h-168l-248 419v-419h-184z" />
    <glyph glyph-name="O" unicode="O" horiz-adv-x="726" 
d="M230 357c0 -157 60 -209 133 -209s133 52 133 209s-60 209 -133 209s-133 -52 -133 -209zM30 358c0 244 142 374 335 374c191 0 331 -128 331 -370c0 -244 -142 -374 -335 -374c-191 0 -331 128 -331 370z" />
    <glyph glyph-name="P" unicode="P" horiz-adv-x="658" 
d="M70 0v720h281c177 0 283 -81 283 -243s-112 -243 -298 -243h-68v-234h-198zM268 558v-168h68c70 0 100 26 100 84s-30 84 -100 84h-68z" />
    <glyph glyph-name="Q" unicode="Q" horiz-adv-x="734" 
d="M593 -25v-157c-44 -6 -91 -10 -129 -10c-130 0 -197 48 -197 180v16c-141 35 -237 154 -237 354c0 244 142 374 335 374c191 0 331 -128 331 -370c0 -213 -108 -335 -264 -362c8 -28 34 -37 79 -37c30 0 55 4 82 12zM363 148c73 0 133 52 133 209s-60 209 -133 209
s-133 -52 -133 -209s60 -209 133 -209z" />
    <glyph glyph-name="R" unicode="R" horiz-adv-x="718" 
d="M458 0l-129 268h-63v-268h-196v720h313c165 0 263 -75 263 -226c0 -97 -43 -163 -119 -197l149 -297h-218zM266 558v-150h95c62 0 89 23 89 75s-27 75 -89 75h-95z" />
    <glyph glyph-name="S" unicode="S" horiz-adv-x="586" 
d="M30 40l44 162c63 -31 126 -56 188 -56c61 0 94 25 94 60c0 107 -308 44 -308 288c0 147 112 238 276 238c79 0 152 -21 210 -52l-44 -170c-50 31 -110 56 -163 56c-50 0 -79 -23 -79 -54c0 -101 308 -38 308 -282c0 -150 -116 -242 -291 -242c-77 0 -165 18 -235 52z" />
    <glyph glyph-name="T" unicode="T" horiz-adv-x="592" 
d="M196 0v554h-182v166h564v-166h-182v-554h-200z" />
    <glyph glyph-name="U" unicode="U" horiz-adv-x="690" 
d="M256 720v-449c0 -94 35 -117 93 -117s93 23 93 117v449h194v-449c0 -207 -105 -283 -295 -283c-186 0 -287 74 -287 276v456h202z" />
    <glyph glyph-name="V" unicode="V" horiz-adv-x="674" 
d="M230 0l-220 720h201l130 -467l130 467h193l-226 -720h-208z" />
    <glyph glyph-name="W" unicode="W" horiz-adv-x="962" 
d="M579 720l59 -276c12 -56 21 -120 25 -171h3c4 50 11 111 24 173l57 274h201l-175 -720h-196l-64 293c-21 96 -24 113 -31 164h-2c-7 -52 -19 -107 -32 -165l-66 -292h-196l-172 720h209l57 -274c15 -72 21 -127 25 -173h3c4 51 13 118 25 174l58 273h188z" />
    <glyph glyph-name="X" unicode="X" horiz-adv-x="714" 
d="M675 720l-194 -348l201 -372h-219l-110 233l-110 -233h-211l201 372l-194 348h217l105 -211l105 211h209z" />
    <glyph glyph-name="Y" unicode="Y" horiz-adv-x="668" 
d="M234 0v282l-232 438h209l127 -252l127 252h201l-232 -438v-282h-200z" />
    <glyph glyph-name="Z" unicode="Z" horiz-adv-x="622" 
d="M24 0v136l299 418h-280v166h545v-142l-299 -418h299v-160h-564z" />
    <glyph glyph-name="bracketleft" unicode="[" horiz-adv-x="454" 
d="M436 -44v-136h-376v900h376v-136h-178v-628h178z" />
    <glyph glyph-name="backslash" unicode="\" horiz-adv-x="688" 
d="M225 720l439 -760h-201l-439 760h201z" />
    <glyph glyph-name="bracketright" unicode="]" horiz-adv-x="454" 
d="M18 -180v136h178v628h-178v136h376v-900h-376z" />
    <glyph glyph-name="asciicircum" unicode="^" horiz-adv-x="572" 
d="M219 720h134l188 -488h-144l-111 325l-111 -325h-144z" />
    <glyph glyph-name="underscore" unicode="_" horiz-adv-x="492" 
d="M-4 -167v131h500v-131h-500z" />
    <glyph glyph-name="grave" unicode="`" horiz-adv-x="500" 
d="M270 720l92 -176h-152l-152 176h212z" />
    <glyph glyph-name="a" unicode="a" horiz-adv-x="536" 
d="M274 522c135 0 222 -45 222 -198v-208c0 -87 5 -106 10 -116h-186c-6 7 -11 17 -14 48c-36 -39 -83 -60 -134 -60c-86 0 -148 59 -148 162c0 107 66 172 225 172c20 0 38 -1 54 -3c-3 39 -29 53 -73 53c-45 0 -92 -14 -146 -33l-34 143c64 22 139 40 224 40zM252 128
c15 0 34 6 52 16v70c-9 1 -18 2 -29 2c-43 0 -59 -14 -59 -46c0 -31 15 -42 36 -42z" />
    <glyph glyph-name="b" unicode="b" horiz-adv-x="594" 
d="M389 522c108 0 181 -96 181 -259c0 -178 -87 -275 -196 -275c-49 0 -94 20 -130 74v-62h-190v720h198v-268c37 45 82 70 137 70zM309 360c-14 0 -32 -4 -57 -25v-174c24 -19 41 -23 55 -23c36 0 65 29 65 112c0 81 -27 110 -63 110z" />
    <glyph glyph-name="c" unicode="c" horiz-adv-x="442" 
d="M424 492l-34 -150c-27 16 -52 30 -83 30c-48 0 -85 -33 -85 -121c0 -87 36 -119 89 -119c31 0 59 11 83 27l34 -138c-40 -19 -93 -33 -152 -33c-152 0 -252 90 -252 260c0 177 109 274 267 274c63 0 103 -15 133 -30z" />
    <glyph glyph-name="d" unicode="d" horiz-adv-x="594" 
d="M205 -12c-108 0 -181 94 -181 257c0 177 87 277 196 277c46 0 87 -18 122 -63v261h198v-604c0 -87 5 -106 10 -116h-192c-6 8 -12 20 -15 60c-37 -47 -83 -72 -138 -72zM285 138c14 0 31 4 57 25v173c-24 20 -41 24 -55 24c-36 0 -65 -29 -65 -112c0 -81 27 -110 63 -110
z" />
    <glyph glyph-name="e" unicode="e" horiz-adv-x="550" 
d="M286 389c-33 0 -57 -25 -62 -85h116c0 62 -22 85 -54 85zM517 194h-289c15 -60 55 -68 95 -68c49 0 93 12 151 33l34 -132c-54 -22 -135 -39 -210 -39c-170 0 -274 87 -274 259c0 181 115 275 266 275c141 0 232 -82 232 -251c0 -25 -2 -54 -5 -77z" />
    <glyph glyph-name="f" unicode="f" horiz-adv-x="350" 
d="M338 368h-68v-368h-198v368h-60v142h60v30c0 133 57 186 205 186c20 0 42 -1 61 -3v-140c-12 2 -20 3 -29 3c-31 0 -39 -13 -39 -46v-30h68v-142z" />
    <glyph glyph-name="g" unicode="g" horiz-adv-x="598" 
d="M525 340c0 -121 -111 -188 -248 -188c-17 0 -33 1 -49 3c-2 -5 -3 -11 -3 -17c0 -25 18 -29 48 -29h95c119 0 196 -47 196 -139c0 -123 -136 -192 -316 -192c-147 0 -246 46 -246 131c0 44 27 86 102 106c-36 22 -49 54 -49 81c0 34 21 68 60 97c-48 30 -78 77 -78 141
c0 121 111 188 248 188c72 0 138 -19 183 -56c24 29 58 44 94 44c10 0 19 -1 25 -2v-156c-6 1 -15 1 -25 1c-13 0 -25 -1 -37 -3v-10zM286 267c27 0 51 15 51 64c0 48 -22 64 -50 64c-27 0 -51 -16 -51 -65c0 -47 22 -63 50 -63zM320 -29h-115c-10 -6 -17 -15 -17 -30
c0 -32 37 -45 89 -45s89 13 89 43c0 22 -18 32 -46 32z" />
    <glyph glyph-name="h" unicode="h" horiz-adv-x="582" 
d="M252 720v-264c44 43 95 66 158 66c76 0 132 -34 132 -142v-380h-198v315c0 31 -10 41 -31 41c-19 0 -38 -8 -61 -26v-330h-198v720h198z" />
    <glyph glyph-name="i" unicode="i" horiz-adv-x="318" 
d="M60 0v510h198v-510h-198zM268 652c0 -58 -42 -100 -109 -100s-109 42 -109 100s42 100 109 100s109 -42 109 -100z" />
    <glyph glyph-name="j" unicode="j" horiz-adv-x="318" 
d="M258 510v-540c0 -133 -57 -186 -205 -186c-20 0 -42 1 -61 3v140c12 -2 20 -3 29 -3c31 0 39 13 39 46v540h198zM268 652c0 -58 -42 -100 -109 -100s-109 42 -109 100s42 100 109 100s109 -42 109 -100z" />
    <glyph glyph-name="k" unicode="k" horiz-adv-x="576" 
d="M54 0v720h198v-365l102 155h206l-156 -190l162 -320h-203l-81 171l-30 -37v-134h-198z" />
    <glyph glyph-name="l" unicode="l" horiz-adv-x="318" 
d="M60 0v720h198v-720h-198z" />
    <glyph glyph-name="m" unicode="m" horiz-adv-x="856" 
d="M54 0v510h198v-54c47 46 97 66 153 66c54 0 98 -18 117 -70c42 41 97 70 165 70c75 0 129 -34 129 -142v-380h-198v315c0 31 -9 41 -28 41c-17 0 -35 -7 -56 -25v-331h-198v315c0 31 -9 41 -28 41c-17 0 -35 -7 -56 -25v-331h-198z" />
    <glyph glyph-name="n" unicode="n" horiz-adv-x="582" 
d="M54 0v510h198v-54c44 43 95 66 158 66c76 0 132 -34 132 -142v-380h-198v315c0 31 -10 41 -31 41c-19 0 -38 -8 -61 -26v-330h-198z" />
    <glyph glyph-name="o" unicode="o" horiz-adv-x="564" 
d="M282 124c33 0 60 31 60 128s-27 128 -60 128s-60 -31 -60 -128s27 -128 60 -128zM540 257c0 -184 -118 -269 -260 -269c-140 0 -256 83 -256 265c0 184 118 269 260 269c140 0 256 -83 256 -265z" />
    <glyph glyph-name="p" unicode="p" horiz-adv-x="594" 
d="M54 510h198v-58c37 45 82 70 137 70c108 0 181 -96 181 -259c0 -177 -87 -275 -196 -275c-40 0 -84 13 -122 63v-261h-198v720zM309 360c-14 0 -32 -4 -57 -25v-174c24 -19 41 -23 55 -23c36 0 65 29 65 112c0 81 -27 110 -63 110z" />
    <glyph glyph-name="q" unicode="q" horiz-adv-x="594" 
d="M540 -210h-198v268c-35 -42 -79 -70 -137 -70c-108 0 -181 94 -181 256c0 177 87 278 195 278c50 0 94 -21 131 -74v62h190v-720zM285 138c14 0 31 4 57 25v173c-24 20 -41 24 -55 24c-36 0 -65 -29 -65 -112c0 -81 27 -110 63 -110z" />
    <glyph glyph-name="r" unicode="r" horiz-adv-x="412" 
d="M252 510v-75c28 57 75 87 128 87c10 0 21 -1 28 -3v-169c-8 1 -18 1 -30 1c-60 0 -109 -29 -126 -41v-310h-198v510h198z" />
    <glyph glyph-name="s" unicode="s" horiz-adv-x="476" 
d="M24 27l34 142c49 -23 104 -43 151 -43c37 0 53 13 53 28c0 54 -218 10 -218 188c0 113 88 180 222 180c65 0 124 -16 170 -37l-34 -148c-40 23 -92 41 -130 41c-27 0 -38 -9 -38 -22c0 -54 218 -3 218 -183c0 -117 -92 -185 -236 -185c-68 0 -139 15 -192 39z" />
    <glyph glyph-name="t" unicode="t" horiz-adv-x="372" 
d="M12 368v142h60v170h198v-170h78v-142h-78v-185c0 -31 10 -41 35 -41c14 0 30 3 43 6v-146c-31 -4 -67 -8 -109 -8c-123 0 -167 35 -167 158v216h-60z" />
    <glyph glyph-name="u" unicode="u" horiz-adv-x="582" 
d="M528 0h-198v53c-51 -47 -101 -65 -157 -65c-77 0 -133 34 -133 142v380h198v-321c0 -31 10 -41 31 -41c18 0 37 7 61 25v337h198v-510z" />
    <glyph glyph-name="v" unicode="v" horiz-adv-x="510" 
d="M152 0l-164 510h200l71 -285l71 285h192l-170 -510h-200z" />
    <glyph glyph-name="w" unicode="w" horiz-adv-x="736" 
d="M306 0h-186l-128 510h186l37 -168c8 -37 13 -77 16 -110h2c2 32 9 82 16 111l39 167h168l40 -169c8 -34 14 -78 16 -109h2c2 32 7 75 15 110l37 168h178l-131 -510h-186l-40 173c-6 26 -14 65 -18 98h-2c-4 -31 -11 -64 -19 -99z" />
    <glyph glyph-name="x" unicode="x" horiz-adv-x="528" 
d="M4 0l145 265l-134 245h201l52 -126l52 126h193l-134 -245l145 -265h-201l-63 146l-63 -146h-193z" />
    <glyph glyph-name="y" unicode="y" horiz-adv-x="510" 
d="M27 -212v154c17 -3 37 -6 58 -6c51 0 78 16 97 76h-50l-144 498h200l70 -321l72 321h192l-150 -498c-53 -176 -118 -228 -270 -228c-21 0 -58 1 -75 4z" />
    <glyph glyph-name="z" unicode="z" horiz-adv-x="504" 
d="M18 0v122l215 246h-201v142h444v-118l-216 -246h216v-146h-458z" />
    <glyph glyph-name="braceleft" unicode="{" horiz-adv-x="454" 
d="M232 270c66 -26 94 -72 94 -140v-102c0 -52 15 -72 75 -72h25v-136h-25c-196 0 -273 60 -273 208v102c0 52 -15 72 -75 72h-25v136h25c60 0 75 20 75 72v102c0 148 77 208 273 208h25v-136h-25c-60 0 -75 -20 -75 -72v-102c0 -69 -28 -114 -94 -140z" />
    <glyph glyph-name="bar" unicode="|" horiz-adv-x="420" 
d="M308 -180h-196v900h196v-900z" />
    <glyph glyph-name="braceright" unicode="}" horiz-adv-x="454" 
d="M222 270c-66 26 -94 72 -94 140v102c0 52 -15 72 -75 72h-25v136h25c196 0 273 -60 273 -208v-102c0 -52 15 -72 75 -72h25v-136h-25c-60 0 -75 -20 -75 -72v-102c0 -148 -77 -208 -273 -208h-25v136h25c60 0 75 20 75 72v102c0 69 28 114 94 140z" />
    <glyph glyph-name="asciitilde" unicode="~" horiz-adv-x="572" 
d="M62 165l-44 144c27 19 87 40 150 40c83 0 155 -36 233 -36c50 0 84 15 109 32l44 -144c-27 -19 -87 -40 -150 -40c-83 0 -155 36 -233 36c-50 0 -84 -15 -109 -32z" />
    <glyph glyph-name="uni00A0" unicode="&#xa0;" horiz-adv-x="220" 
 />
    <glyph glyph-name="exclamdown" unicode="&#xa1;" horiz-adv-x="346" 
d="M252 274l36 -484h-230l36 484h158zM173 318c-66 0 -111 44 -111 102s45 102 111 102s111 -44 111 -102s-45 -102 -111 -102z" />
    <glyph glyph-name="cent" unicode="&#xa2;" horiz-adv-x="468" 
d="M160 -143l35 154c-106 29 -171 113 -171 248c0 178 114 275 278 275h14l29 123h93l-32 -139l34 -14l-35 -146c-11 6 -21 11 -33 16l-54 -236c31 1 63 11 92 28l34 -133c-42 -19 -97 -33 -158 -33l-33 -143h-93zM212 263c0 -45 9 -75 26 -95l51 221
c-46 -7 -77 -44 -77 -126z" />
    <glyph glyph-name="sterling" unicode="&#xa3;" horiz-adv-x="512" 
d="M458 588c-12 3 -27 4 -38 4c-49 0 -61 -18 -66 -63l-12 -116h116v-114h-128l-2 -24c-4 -47 -24 -98 -61 -131c27 -6 53 -10 78 -10c46 0 86 16 113 32l34 -144c-27 -16 -86 -34 -142 -34c-70 0 -140 29 -201 29c-46 0 -86 -16 -113 -32l-34 144c84 28 124 53 132 146
l2 24h-110v114h122l12 116c15 144 81 203 241 203c21 0 45 -1 57 -2v-142z" />
    <glyph glyph-name="currency" unicode="&#xa4;" horiz-adv-x="572" 
d="M204 255c0 -47 37 -84 82 -84s82 37 82 84s-37 84 -82 84s-82 -37 -82 -84zM470 255c0 -24 -4 -46 -12 -66l72 -72l-107 -107l-77 78c-20 -5 -40 -8 -60 -8s-40 3 -60 8l-77 -78l-107 107l72 72c-8 20 -12 42 -12 66s4 46 12 66l-72 72l107 107l77 -78c20 5 40 8 60 8
s40 -3 60 -8l77 78l107 -107l-72 -72c8 -20 12 -42 12 -66z" />
    <glyph glyph-name="yen" unicode="&#xa5;" horiz-adv-x="608" 
d="M59 266v114h108l-165 340h197l109 -257l109 257h189l-165 -340h108v-114h-147v-48h147v-114h-147v-104h-196v104h-147v114h147v48h-147z" />
    <glyph glyph-name="brokenbar" unicode="&#xa6;" horiz-adv-x="420" 
d="M112 -180v390h196v-390h-196zM112 330v390h196v-390h-196z" />
    <glyph glyph-name="section" unicode="&#xa7;" horiz-adv-x="584" 
d="M338 732c75 0 142 -18 196 -44l-42 -152c-46 27 -100 48 -158 48c-39 0 -76 -10 -102 -34c198 -26 322 -123 322 -307c0 -193 -136 -295 -320 -295c-78 0 -148 18 -204 44l42 146c49 -27 107 -48 169 -48c44 0 86 11 114 39c-200 25 -325 122 -325 309
c0 192 131 294 308 294zM193 414c11 -95 82 -138 198 -155c-11 95 -83 139 -198 155z" />
    <glyph glyph-name="dieresis" unicode="&#xa8;" horiz-adv-x="500" 
d="M48 632c0 50 38 88 90 88s90 -38 90 -88s-38 -88 -90 -88s-90 38 -90 88zM272 632c0 50 38 88 90 88s90 -38 90 -88s-38 -88 -90 -88s-90 38 -90 88z" />
    <glyph glyph-name="copyright" unicode="&#xa9;" horiz-adv-x="838" 
d="M556 525l-25 -105c-26 17 -45 28 -72 28c-41 0 -76 -25 -76 -92c0 -66 34 -90 80 -90c26 0 48 8 72 23l23 -92c-32 -17 -76 -29 -124 -29c-112 0 -187 64 -187 186c0 128 82 196 200 196c43 0 79 -9 109 -25zM704 360c0 166 -124 290 -282 290s-282 -124 -282 -290
s124 -290 282 -290s282 124 282 290zM794 360c0 -213 -163 -372 -372 -372s-372 159 -372 372s163 372 372 372s372 -159 372 -372z" />
    <glyph glyph-name="ordfeminine" unicode="&#xaa;" horiz-adv-x="341" 
d="M173 704c87 0 142 -29 142 -125v-127c0 -56 3 -65 6 -72h-122c-4 4 -7 10 -9 28c-22 -23 -50 -36 -81 -36c-53 0 -93 36 -93 101c0 67 43 107 138 107c15 0 25 -1 34 -2c-2 21 -18 28 -44 28c-27 0 -57 -8 -90 -19l-22 93c41 13 88 24 141 24zM189 470v39
c-4 1 -8 1 -13 1c-26 0 -34 -8 -34 -24s8 -22 21 -22c8 0 17 2 26 6z" />
    <glyph glyph-name="guillemotleft" unicode="&#xab;" horiz-adv-x="590" 
d="M154 24l-138 231l138 231h178l-131 -231l131 -231h-178zM394 24l-138 231l138 231h178l-131 -231l131 -231h-178z" />
    <glyph glyph-name="logicalnot" unicode="&#xac;" horiz-adv-x="572" 
d="M530 403v-332h-156v180h-332v152h488z" />
    <glyph glyph-name="uni00AD" unicode="&#xad;" horiz-adv-x="406" 
d="M40 248v128h326v-128h-326z" />
    <glyph glyph-name="registered" unicode="&#xae;" horiz-adv-x="838" 
d="M794 360c0 -213 -163 -372 -372 -372s-372 159 -372 372s163 372 372 372s372 -159 372 -372zM704 360c0 166 -124 290 -282 290s-282 -124 -282 -290s124 -290 282 -290s282 124 282 290zM466 175l-57 116h-15v-116h-132v366h173c99 0 158 -42 158 -125
c0 -47 -20 -80 -56 -101l72 -140h-143zM394 377h29c27 0 38 10 38 33s-11 33 -38 33h-29v-66z" />
    <glyph glyph-name="macron" unicode="&#xaf;" horiz-adv-x="500" 
d="M60 550v122h380v-122h-380z" />
    <glyph glyph-name="degree" unicode="&#xb0;" horiz-adv-x="436" 
d="M34 557c0 101 76 175 184 175s184 -74 184 -175s-76 -175 -184 -175s-184 74 -184 175zM136 557c0 -48 34 -84 82 -84s82 36 82 84s-34 84 -82 84s-82 -36 -82 -84z" />
    <glyph glyph-name="plusminus" unicode="&#xb1;" horiz-adv-x="572" 
d="M364 118h-156v129h-166v134h166v129h156v-129h166v-134h-166v-129zM530 88v-134h-488v134h488z" />
    <glyph glyph-name="twosuperior" unicode="&#xb2;" horiz-adv-x="361" 
d="M339 484v-104h-324v93c141 108 181 169 181 208c0 24 -16 40 -46 40c-36 0 -72 -24 -100 -53l-35 108c32 31 89 58 155 58c94 0 157 -55 157 -141c0 -82 -57 -148 -128 -209h140z" />
    <glyph glyph-name="threesuperior" unicode="&#xb3;" horiz-adv-x="356" 
d="M169 834c93 0 160 -39 160 -116c0 -49 -27 -86 -77 -108c60 -17 88 -53 88 -103c0 -85 -76 -135 -193 -135c-55 0 -104 11 -144 28l28 106c37 -17 71 -31 111 -31s61 14 61 39c0 26 -22 40 -82 40c-16 0 -32 -1 -51 -2v94c105 0 129 17 129 45c0 23 -16 35 -47 35
s-64 -12 -104 -33l-29 105c44 22 94 36 150 36z" />
    <glyph glyph-name="acute" unicode="&#xb4;" horiz-adv-x="500" 
d="M138 544l92 176h212l-152 -176h-152z" />
    <glyph glyph-name="mu" unicode="&#xb5;" horiz-adv-x="596" 
d="M244 -210h-190v720h198v-321c0 -31 10 -41 31 -41c18 0 37 7 61 25v337h198v-510h-198v53c-35 -33 -75 -54 -118 -62c16 -60 17 -128 18 -201z" />
    <glyph glyph-name="paragraph" unicode="&#xb6;" horiz-adv-x="564" 
d="M350 680h160v-505c0 -168 -100 -230 -292 -270l-38 133c103 25 170 52 170 149v493zM305 680v-472c-181 0 -281 94 -281 236s100 236 281 236z" />
    <glyph glyph-name="periodcentered" unicode="&#xb7;" horiz-adv-x="310" 
d="M40 259c0 62 47 110 115 110s115 -48 115 -110s-47 -110 -115 -110s-115 48 -115 110z" />
    <glyph glyph-name="cedilla" unicode="&#xb8;" horiz-adv-x="500" 
d="M103 -188l22 93c28 -16 57 -26 89 -26c27 0 44 7 44 27c0 17 -12 33 -80 42l14 64c141 0 203 -40 203 -114c0 -77 -66 -116 -162 -116c-60 0 -100 15 -130 30z" />
    <glyph glyph-name="onesuperior" unicode="&#xb9;" horiz-adv-x="271" 
d="M43 665l-33 105l110 56h103v-446h-130v311z" />
    <glyph glyph-name="ordmasculine" unicode="&#xba;" horiz-adv-x="354" 
d="M208 536c0 57 -15 75 -31 75s-31 -18 -31 -75s15 -75 31 -75s31 18 31 75zM338 539c0 -114 -75 -167 -162 -167s-160 53 -160 165c0 114 75 167 162 167s160 -53 160 -165z" />
    <glyph glyph-name="guillemotright" unicode="&#xbb;" horiz-adv-x="590" 
d="M334 255l-138 -231h-178l131 231l-131 231h178zM574 255l-138 -231h-178l131 231l-131 231h178z" />
    <glyph glyph-name="onequarter" unicode="&#xbc;" horiz-adv-x="856" 
d="M99 0l457 720h157l-457 -720h-157zM456 80v97l190 269h142v-263h62v-103h-62v-80h-127v80h-205zM582 183h79v113zM43 559l-33 105l110 56h103v-446h-130v311z" />
    <glyph glyph-name="onehalf" unicode="&#xbd;" horiz-adv-x="886" 
d="M89 0l457 720h157l-457 -720h-157zM864 104v-104h-324v93c141 108 181 169 181 208c0 24 -16 40 -46 40c-36 0 -72 -24 -100 -53l-35 108c32 31 89 58 155 58c94 0 157 -55 157 -141c0 -82 -57 -148 -128 -209h140zM43 559l-33 105l110 56h103v-446h-130v311z" />
    <glyph glyph-name="threequarters" unicode="&#xbe;" horiz-adv-x="927" 
d="M170 0l457 720h157l-457 -720h-157zM169 728c93 0 160 -39 160 -116c0 -49 -27 -86 -77 -108c60 -17 88 -53 88 -103c0 -85 -76 -135 -193 -135c-55 0 -104 11 -144 28l28 106c37 -17 71 -31 111 -31s61 14 61 39c0 26 -22 40 -82 40c-16 0 -32 -1 -51 -2v94
c105 0 129 17 129 45c0 23 -16 35 -47 35s-64 -12 -104 -33l-29 105c44 22 94 36 150 36zM527 80v97l190 269h142v-263h62v-103h-62v-80h-127v80h-205zM653 183h79v113z" />
    <glyph glyph-name="questiondown" unicode="&#xbf;" horiz-adv-x="438" 
d="M228 -1c0 -45 35 -69 92 -69c17 0 42 2 80 11v-146c-43 -11 -84 -17 -129 -17c-150 0 -241 65 -241 189c0 169 167 183 167 296v11h151c4 -27 5 -47 5 -57c0 -117 -125 -133 -125 -218zM380 420c0 -58 -45 -102 -111 -102s-111 44 -111 102s45 102 111 102
s111 -44 111 -102z" />
    <glyph glyph-name="Agrave" unicode="&#xc0;" horiz-adv-x="704" 
d="M474 720l220 -720h-209l-32 121h-211l-31 -121h-201l226 720h238zM348 532l-69 -265h137zM373 910l92 -156h-154l-152 156h214z" />
    <glyph glyph-name="Aacute" unicode="&#xc1;" horiz-adv-x="704" 
d="M474 720l220 -720h-209l-32 121h-211l-31 -121h-201l226 720h238zM348 532l-69 -265h137zM239 754l92 156h214l-152 -156h-154z" />
    <glyph glyph-name="Acircumflex" unicode="&#xc2;" horiz-adv-x="704" 
d="M474 720l220 -720h-209l-32 121h-211l-31 -121h-201l226 720h238zM348 532l-69 -265h137zM283 754h-140l132 156h154l132 -156h-140l-69 41z" />
    <glyph glyph-name="Atilde" unicode="&#xc3;" horiz-adv-x="704" 
d="M474 720l220 -720h-209l-32 121h-211l-31 -121h-201l226 720h238zM348 532l-69 -265h137zM251 754h-110c0 118 55 162 126 162s126 -38 155 -38c23 0 31 10 31 32h110c0 -118 -55 -162 -126 -162s-126 38 -155 38c-23 0 -31 -10 -31 -32z" />
    <glyph glyph-name="Adieresis" unicode="&#xc4;" horiz-adv-x="704" 
d="M474 720l220 -720h-209l-32 121h-211l-31 -121h-201l226 720h238zM348 532l-69 -265h137zM149 842c0 50 38 88 91 88s91 -38 91 -88s-38 -88 -91 -88s-91 38 -91 88zM373 842c0 50 38 88 91 88s91 -38 91 -88s-38 -88 -91 -88s-91 38 -91 88z" />
    <glyph glyph-name="Aring" unicode="&#xc5;" horiz-adv-x="704" 
d="M228 739c0 62 53 111 127 111c73 0 127 -49 127 -111c0 -11 -2 -21 -5 -31l217 -708h-209l-32 121h-211l-31 -121h-201l223 708c-3 10 -5 20 -5 31zM348 532l-69 -265h137zM312 739c0 -21 17 -39 43 -39c25 0 42 18 42 39s-17 39 -42 39c-26 0 -43 -18 -43 -39z" />
    <glyph glyph-name="AE" unicode="&#xc6;" horiz-adv-x="953" 
d="M10 0l353 720h556v-166h-256v-116h216v-156h-216v-122h260v-160h-460v121h-189l-52 -121h-212zM337 267h126v291z" />
    <glyph glyph-name="Ccedilla" unicode="&#xc7;" horiz-adv-x="600" 
d="M576 684l-44 -170c-49 28 -91 52 -147 52c-86 0 -155 -58 -155 -211c0 -152 68 -207 160 -207c54 0 98 19 146 52l44 -156c-43 -24 -97 -44 -157 -52c47 -19 69 -51 69 -95c0 -76 -67 -115 -164 -115c-60 0 -100 15 -130 30l22 94c28 -16 57 -26 91 -26c25 0 42 6 42 26
c0 17 -11 32 -79 41l10 48c-155 29 -254 150 -254 356c0 248 145 381 352 381c77 0 142 -18 194 -48z" />
    <glyph glyph-name="Egrave" unicode="&#xc8;" horiz-adv-x="590" 
d="M70 0v720h486v-166h-286v-116h246v-156h-246v-122h290v-160h-490zM336 910l92 -156h-154l-152 156h214z" />
    <glyph glyph-name="Eacute" unicode="&#xc9;" horiz-adv-x="590" 
d="M70 0v720h486v-166h-286v-116h246v-156h-246v-122h290v-160h-490zM202 754l92 156h214l-152 -156h-154z" />
    <glyph glyph-name="Ecircumflex" unicode="&#xca;" horiz-adv-x="590" 
d="M70 0v720h486v-166h-286v-116h246v-156h-246v-122h290v-160h-490zM246 754h-140l132 156h154l132 -156h-140l-69 41z" />
    <glyph glyph-name="Edieresis" unicode="&#xcb;" horiz-adv-x="590" 
d="M70 0v720h486v-166h-286v-116h246v-156h-246v-122h290v-160h-490zM112 842c0 50 38 88 91 88s91 -38 91 -88s-38 -88 -91 -88s-91 38 -91 88zM336 842c0 50 38 88 91 88s91 -38 91 -88s-38 -88 -91 -88s-91 38 -91 88z" />
    <glyph glyph-name="Igrave" unicode="&#xcc;" horiz-adv-x="348" 
d="M74 0v720h200v-720h-200zM195 910l92 -156h-154l-152 156h214z" />
    <glyph glyph-name="Iacute" unicode="&#xcd;" horiz-adv-x="348" 
d="M74 0v720h200v-720h-200zM61 754l92 156h214l-152 -156h-154z" />
    <glyph glyph-name="Icircumflex" unicode="&#xce;" horiz-adv-x="348" 
d="M74 0v720h200v-720h-200zM105 754h-140l132 156h154l132 -156h-140l-69 41z" />
    <glyph glyph-name="Idieresis" unicode="&#xcf;" horiz-adv-x="348" 
d="M74 0v720h200v-720h-200zM-29 842c0 50 38 88 91 88s91 -38 91 -88s-38 -88 -91 -88s-91 38 -91 88zM195 842c0 50 38 88 91 88s91 -38 91 -88s-38 -88 -91 -88s-91 38 -91 88z" />
    <glyph glyph-name="Eth" unicode="&#xd0;" horiz-adv-x="728" 
d="M12 299v122h58v299h264c217 0 360 -123 360 -360s-149 -360 -360 -360h-264v299h-58zM270 554v-133h112v-122h-112v-139h64c88 0 160 49 160 197s-72 197 -160 197h-64z" />
    <glyph glyph-name="Ntilde" unicode="&#xd1;" horiz-adv-x="740" 
d="M70 0v720h208l208 -354v354h184v-720h-168l-248 419v-419h-184zM269 754h-110c0 118 55 162 126 162s126 -38 155 -38c23 0 31 10 31 32h110c0 -118 -55 -162 -126 -162s-126 38 -155 38c-23 0 -31 -10 -31 -32z" />
    <glyph glyph-name="Ograve" unicode="&#xd2;" horiz-adv-x="726" 
d="M230 357c0 -157 60 -209 133 -209s133 52 133 209s-60 209 -133 209s-133 -52 -133 -209zM30 358c0 244 142 374 335 374c191 0 331 -128 331 -370c0 -244 -142 -374 -335 -374c-191 0 -331 128 -331 370zM384 910l92 -156h-154l-152 156h214z" />
    <glyph glyph-name="Oacute" unicode="&#xd3;" horiz-adv-x="726" 
d="M230 357c0 -157 60 -209 133 -209s133 52 133 209s-60 209 -133 209s-133 -52 -133 -209zM30 358c0 244 142 374 335 374c191 0 331 -128 331 -370c0 -244 -142 -374 -335 -374c-191 0 -331 128 -331 370zM250 754l92 156h214l-152 -156h-154z" />
    <glyph glyph-name="Ocircumflex" unicode="&#xd4;" horiz-adv-x="726" 
d="M230 357c0 -157 60 -209 133 -209s133 52 133 209s-60 209 -133 209s-133 -52 -133 -209zM30 358c0 244 142 374 335 374c191 0 331 -128 331 -370c0 -244 -142 -374 -335 -374c-191 0 -331 128 -331 370zM294 754h-140l132 156h154l132 -156h-140l-69 41z" />
    <glyph glyph-name="Otilde" unicode="&#xd5;" horiz-adv-x="726" 
d="M230 357c0 -157 60 -209 133 -209s133 52 133 209s-60 209 -133 209s-133 -52 -133 -209zM30 358c0 244 142 374 335 374c191 0 331 -128 331 -370c0 -244 -142 -374 -335 -374c-191 0 -331 128 -331 370zM259 754h-110c0 118 55 162 126 162s126 -38 155 -38
c23 0 31 10 31 32h110c0 -118 -55 -162 -126 -162s-126 38 -155 38c-23 0 -31 -10 -31 -32z" />
    <glyph glyph-name="Odieresis" unicode="&#xd6;" horiz-adv-x="726" 
d="M230 357c0 -157 60 -209 133 -209s133 52 133 209s-60 209 -133 209s-133 -52 -133 -209zM30 358c0 244 142 374 335 374c191 0 331 -128 331 -370c0 -244 -142 -374 -335 -374c-191 0 -331 128 -331 370zM160 842c0 50 38 88 91 88s91 -38 91 -88s-38 -88 -91 -88
s-91 38 -91 88zM384 842c0 50 38 88 91 88s91 -38 91 -88s-38 -88 -91 -88s-91 38 -91 88z" />
    <glyph glyph-name="multiply" unicode="&#xd7;" horiz-adv-x="572" 
d="M42 393l107 107l137 -138l137 138l107 -107l-138 -138l138 -138l-107 -107l-137 138l-137 -138l-107 107l138 138z" />
    <glyph glyph-name="Oslash" unicode="&#xd8;" horiz-adv-x="726" 
d="M696 362c0 -244 -142 -374 -335 -374c-82 0 -155 23 -211 69l-66 -69l-81 76l76 79c-32 57 -49 129 -49 214c0 245 142 375 335 375c82 0 154 -24 210 -70l67 70l81 -76l-76 -80c31 -56 49 -128 49 -214zM224 356c0 -21 1 -40 3 -58l226 236c-25 27 -56 38 -90 38
c-76 0 -139 -53 -139 -216zM502 353c0 28 -2 49 -4 68l-228 -239c24 -29 57 -40 92 -40c77 0 140 54 140 211z" />
    <glyph glyph-name="Ugrave" unicode="&#xd9;" horiz-adv-x="690" 
d="M256 720v-449c0 -94 35 -117 93 -117s93 23 93 117v449h194v-449c0 -207 -105 -283 -295 -283c-186 0 -287 74 -287 276v456h202zM366 910l92 -156h-154l-152 156h214z" />
    <glyph glyph-name="Uacute" unicode="&#xda;" horiz-adv-x="690" 
d="M256 720v-449c0 -94 35 -117 93 -117s93 23 93 117v449h194v-449c0 -207 -105 -283 -295 -283c-186 0 -287 74 -287 276v456h202zM232 754l92 156h214l-152 -156h-154z" />
    <glyph glyph-name="Ucircumflex" unicode="&#xdb;" horiz-adv-x="690" 
d="M256 720v-449c0 -94 35 -117 93 -117s93 23 93 117v449h194v-449c0 -207 -105 -283 -295 -283c-186 0 -287 74 -287 276v456h202zM276 754h-140l132 156h154l132 -156h-140l-69 41z" />
    <glyph glyph-name="Udieresis" unicode="&#xdc;" horiz-adv-x="690" 
d="M256 720v-449c0 -94 35 -117 93 -117s93 23 93 117v449h194v-449c0 -207 -105 -283 -295 -283c-186 0 -287 74 -287 276v456h202zM142 842c0 50 38 88 91 88s91 -38 91 -88s-38 -88 -91 -88s-91 38 -91 88zM366 842c0 50 38 88 91 88s91 -38 91 -88s-38 -88 -91 -88
s-91 38 -91 88z" />
    <glyph glyph-name="Yacute" unicode="&#xdd;" horiz-adv-x="668" 
d="M234 0v282l-232 438h209l127 -252l127 252h201l-232 -438v-282h-200zM225 754l92 156h214l-152 -156h-154z" />
    <glyph glyph-name="Thorn" unicode="&#xde;" horiz-adv-x="655" 
d="M70 0v720h198v-100h83c177 0 283 -81 283 -243s-112 -243 -298 -243h-68v-134h-198zM268 290h68c70 0 100 26 100 84s-30 84 -100 84h-68v-168z" />
    <glyph glyph-name="germandbls" unicode="&#xdf;" horiz-adv-x="650" 
d="M289 5l20 137c22 -8 45 -14 63 -14c32 0 56 20 56 75c0 80 -51 104 -118 104v140c37 0 70 18 70 74c0 50 -26 66 -58 66c-39 0 -70 -25 -70 -104v-483h-198v483c0 163 108 249 271 249c142 0 243 -65 243 -198c0 -69 -27 -122 -93 -152c101 -30 151 -94 151 -189
c0 -131 -94 -205 -230 -205c-39 0 -78 6 -107 17z" />
    <glyph glyph-name="agrave" unicode="&#xe0;" horiz-adv-x="536" 
d="M274 522c135 0 222 -45 222 -198v-208c0 -87 5 -106 10 -116h-186c-6 7 -11 17 -14 48c-36 -39 -83 -60 -134 -60c-86 0 -148 59 -148 162c0 107 66 172 225 172c20 0 38 -1 54 -3c-3 39 -29 53 -73 53c-45 0 -92 -14 -146 -33l-34 143c64 22 139 40 224 40zM252 128
c15 0 34 6 52 16v70c-9 1 -18 2 -29 2c-43 0 -59 -14 -59 -46c0 -31 15 -42 36 -42zM295 720l92 -176h-152l-152 176h212z" />
    <glyph glyph-name="aacute" unicode="&#xe1;" horiz-adv-x="536" 
d="M274 522c135 0 222 -45 222 -198v-208c0 -87 5 -106 10 -116h-186c-6 7 -11 17 -14 48c-36 -39 -83 -60 -134 -60c-86 0 -148 59 -148 162c0 107 66 172 225 172c20 0 38 -1 54 -3c-3 39 -29 53 -73 53c-45 0 -92 -14 -146 -33l-34 143c64 22 139 40 224 40zM252 128
c15 0 34 6 52 16v70c-9 1 -18 2 -29 2c-43 0 -59 -14 -59 -46c0 -31 15 -42 36 -42zM163 544l92 176h212l-152 -176h-152z" />
    <glyph glyph-name="acircumflex" unicode="&#xe2;" horiz-adv-x="536" 
d="M274 522c135 0 222 -45 222 -198v-208c0 -87 5 -106 10 -116h-186c-6 7 -11 17 -14 48c-36 -39 -83 -60 -134 -60c-86 0 -148 59 -148 162c0 107 66 172 225 172c20 0 38 -1 54 -3c-3 39 -29 53 -73 53c-45 0 -92 -14 -146 -33l-34 143c64 22 139 40 224 40zM252 128
c15 0 34 6 52 16v70c-9 1 -18 2 -29 2c-43 0 -59 -14 -59 -46c0 -31 15 -42 36 -42zM205 544h-138l132 176h152l132 -176h-138l-70 61z" />
    <glyph glyph-name="atilde" unicode="&#xe3;" horiz-adv-x="536" 
d="M274 522c135 0 222 -45 222 -198v-208c0 -87 5 -106 10 -116h-186c-6 7 -11 17 -14 48c-36 -39 -83 -60 -134 -60c-86 0 -148 59 -148 162c0 107 66 172 225 172c20 0 38 -1 54 -3c-3 39 -29 53 -73 53c-45 0 -92 -14 -146 -33l-34 143c64 22 139 40 224 40zM252 128
c15 0 34 6 52 16v70c-9 1 -18 2 -29 2c-43 0 -59 -14 -59 -46c0 -31 15 -42 36 -42zM173 550h-108c0 122 55 170 125 170c72 0 123 -52 157 -52c21 0 30 20 30 46h108c0 -122 -55 -170 -125 -170c-72 0 -123 52 -157 52c-21 0 -30 -20 -30 -46z" />
    <glyph glyph-name="adieresis" unicode="&#xe4;" horiz-adv-x="536" 
d="M274 522c135 0 222 -45 222 -198v-208c0 -87 5 -106 10 -116h-186c-6 7 -11 17 -14 48c-36 -39 -83 -60 -134 -60c-86 0 -148 59 -148 162c0 107 66 172 225 172c20 0 38 -1 54 -3c-3 39 -29 53 -73 53c-45 0 -92 -14 -146 -33l-34 143c64 22 139 40 224 40zM252 128
c15 0 34 6 52 16v70c-9 1 -18 2 -29 2c-43 0 -59 -14 -59 -46c0 -31 15 -42 36 -42zM73 632c0 50 38 88 90 88s90 -38 90 -88s-38 -88 -90 -88s-90 38 -90 88zM297 632c0 50 38 88 90 88s90 -38 90 -88s-38 -88 -90 -88s-90 38 -90 88z" />
    <glyph glyph-name="aring" unicode="&#xe5;" horiz-adv-x="536" 
d="M274 522c135 0 222 -45 222 -198v-208c0 -87 5 -106 10 -116h-186c-6 7 -11 17 -14 48c-36 -39 -83 -60 -134 -60c-86 0 -148 59 -148 162c0 107 66 172 225 172c20 0 38 -1 54 -3c-3 39 -29 53 -73 53c-45 0 -92 -14 -146 -33l-34 143c64 22 139 40 224 40zM252 128
c15 0 34 6 52 16v70c-9 1 -18 2 -29 2c-43 0 -59 -14 -59 -46c0 -31 15 -42 36 -42zM236 655c0 -21 15 -39 39 -39s39 18 39 39s-15 39 -39 39s-39 -18 -39 -39zM162 655c0 62 48 111 113 111s113 -49 113 -111s-48 -111 -113 -111s-113 49 -113 111z" />
    <glyph glyph-name="ae" unicode="&#xe6;" horiz-adv-x="824" 
d="M596 126c49 0 93 12 151 33l34 -132c-54 -22 -135 -39 -210 -39c-87 0 -156 23 -204 68c-44 -39 -108 -68 -178 -68c-98 0 -165 57 -165 163c0 107 69 171 224 171c20 0 39 -1 55 -3c-3 39 -29 53 -73 53c-45 0 -92 -14 -146 -33l-34 143c64 22 139 40 224 40
c59 0 113 -9 150 -32c40 21 87 32 139 32c142 0 232 -82 232 -251c0 -25 -2 -54 -5 -77h-289c15 -60 55 -68 95 -68zM251 128c15 0 35 6 59 22c-6 20 -10 41 -12 65c-7 1 -14 1 -22 1c-46 0 -60 -15 -60 -46s15 -42 35 -42zM559 389c-33 0 -57 -25 -62 -85h116
c0 62 -22 85 -54 85z" />
    <glyph glyph-name="ccedilla" unicode="&#xe7;" horiz-adv-x="442" 
d="M409 -102c0 -77 -66 -116 -162 -116c-60 0 -100 15 -130 30l22 93c28 -16 57 -26 89 -26c27 0 44 7 44 27c0 17 -12 33 -80 42l10 48c-110 25 -178 111 -178 252c0 177 109 274 267 274c63 0 103 -15 133 -30l-34 -150c-27 16 -52 30 -83 30c-48 0 -85 -33 -85 -121
c0 -87 36 -119 89 -119c31 0 59 11 83 27l34 -138c-26 -12 -56 -22 -90 -28c48 -18 71 -50 71 -95z" />
    <glyph glyph-name="egrave" unicode="&#xe8;" horiz-adv-x="550" 
d="M286 389c-33 0 -57 -25 -62 -85h116c0 62 -22 85 -54 85zM517 194h-289c15 -60 55 -68 95 -68c49 0 93 12 151 33l34 -132c-54 -22 -135 -39 -210 -39c-170 0 -274 87 -274 259c0 181 115 275 266 275c141 0 232 -82 232 -251c0 -25 -2 -54 -5 -77zM309 720l92 -176h-152
l-152 176h212z" />
    <glyph glyph-name="eacute" unicode="&#xe9;" horiz-adv-x="550" 
d="M286 389c-33 0 -57 -25 -62 -85h116c0 62 -22 85 -54 85zM517 194h-289c15 -60 55 -68 95 -68c49 0 93 12 151 33l34 -132c-54 -22 -135 -39 -210 -39c-170 0 -274 87 -274 259c0 181 115 275 266 275c141 0 232 -82 232 -251c0 -25 -2 -54 -5 -77zM157 544l92 176h212
l-152 -176h-152z" />
    <glyph glyph-name="ecircumflex" unicode="&#xea;" horiz-adv-x="550" 
d="M286 389c-33 0 -57 -25 -62 -85h116c0 62 -22 85 -54 85zM517 194h-289c15 -60 55 -68 95 -68c49 0 93 12 151 33l34 -132c-54 -22 -135 -39 -210 -39c-170 0 -274 87 -274 259c0 181 115 275 266 275c141 0 232 -82 232 -251c0 -25 -2 -54 -5 -77zM209 544h-138l132 176
h152l132 -176h-138l-70 61z" />
    <glyph glyph-name="edieresis" unicode="&#xeb;" horiz-adv-x="550" 
d="M286 389c-33 0 -57 -25 -62 -85h116c0 62 -22 85 -54 85zM517 194h-289c15 -60 55 -68 95 -68c49 0 93 12 151 33l34 -132c-54 -22 -135 -39 -210 -39c-170 0 -274 87 -274 259c0 181 115 275 266 275c141 0 232 -82 232 -251c0 -25 -2 -54 -5 -77zM77 632
c0 50 38 88 90 88s90 -38 90 -88s-38 -88 -90 -88s-90 38 -90 88zM301 632c0 50 38 88 90 88s90 -38 90 -88s-38 -88 -90 -88s-90 38 -90 88z" />
    <glyph glyph-name="igrave" unicode="&#xec;" horiz-adv-x="318" 
d="M60 0v510h198v-510h-198zM179 720l92 -176h-152l-152 176h212z" />
    <glyph glyph-name="iacute" unicode="&#xed;" horiz-adv-x="318" 
d="M60 0v510h198v-510h-198zM47 544l92 176h212l-152 -176h-152z" />
    <glyph glyph-name="icircumflex" unicode="&#xee;" horiz-adv-x="318" 
d="M60 0v510h198v-510h-198zM89 544h-138l132 176h152l132 -176h-138l-70 61z" />
    <glyph glyph-name="idieresis" unicode="&#xef;" horiz-adv-x="318" 
d="M60 0v510h198v-510h-198zM-43 632c0 50 38 88 90 88s90 -38 90 -88s-38 -88 -90 -88s-90 38 -90 88zM181 632c0 50 38 88 90 88s90 -38 90 -88s-38 -88 -90 -88s-90 38 -90 88z" />
    <glyph glyph-name="eth" unicode="&#xf0;" horiz-adv-x="564" 
d="M281 -12c-151 0 -257 85 -257 253c0 160 96 249 210 249c47 0 69 -15 89 -30c-8 25 -19 50 -34 76l-54 -30l-50 88l46 25l-31 35l111 101c20 -16 41 -35 61 -57l62 35l50 -88l-48 -27c60 -88 104 -201 104 -336c0 -212 -110 -294 -259 -294zM282 127c33 0 60 26 60 109
s-27 109 -60 109s-60 -26 -60 -109s27 -109 60 -109z" />
    <glyph glyph-name="ntilde" unicode="&#xf1;" horiz-adv-x="582" 
d="M54 0v510h198v-54c44 43 95 66 158 66c76 0 132 -34 132 -142v-380h-198v315c0 31 -10 41 -31 41c-19 0 -38 -8 -61 -26v-330h-198zM196 550h-108c0 122 55 170 125 170c72 0 123 -52 157 -52c21 0 30 20 30 46h108c0 -122 -55 -170 -125 -170c-72 0 -123 52 -157 52
c-21 0 -30 -20 -30 -46z" />
    <glyph glyph-name="ograve" unicode="&#xf2;" horiz-adv-x="564" 
d="M282 124c33 0 60 31 60 128s-27 128 -60 128s-60 -31 -60 -128s27 -128 60 -128zM540 257c0 -184 -118 -269 -260 -269c-140 0 -256 83 -256 265c0 184 118 269 260 269c140 0 256 -83 256 -265zM302 720l92 -176h-152l-152 176h212z" />
    <glyph glyph-name="oacute" unicode="&#xf3;" horiz-adv-x="564" 
d="M282 124c33 0 60 31 60 128s-27 128 -60 128s-60 -31 -60 -128s27 -128 60 -128zM540 257c0 -184 -118 -269 -260 -269c-140 0 -256 83 -256 265c0 184 118 269 260 269c140 0 256 -83 256 -265zM170 544l92 176h212l-152 -176h-152z" />
    <glyph glyph-name="ocircumflex" unicode="&#xf4;" horiz-adv-x="564" 
d="M282 124c33 0 60 31 60 128s-27 128 -60 128s-60 -31 -60 -128s27 -128 60 -128zM540 257c0 -184 -118 -269 -260 -269c-140 0 -256 83 -256 265c0 184 118 269 260 269c140 0 256 -83 256 -265zM212 544h-138l132 176h152l132 -176h-138l-70 61z" />
    <glyph glyph-name="otilde" unicode="&#xf5;" horiz-adv-x="564" 
d="M282 124c33 0 60 31 60 128s-27 128 -60 128s-60 -31 -60 -128s27 -128 60 -128zM540 257c0 -184 -118 -269 -260 -269c-140 0 -256 83 -256 265c0 184 118 269 260 269c140 0 256 -83 256 -265zM180 550h-108c0 122 55 170 125 170c72 0 123 -52 157 -52
c21 0 30 20 30 46h108c0 -122 -55 -170 -125 -170c-72 0 -123 52 -157 52c-21 0 -30 -20 -30 -46z" />
    <glyph glyph-name="odieresis" unicode="&#xf6;" horiz-adv-x="564" 
d="M282 124c33 0 60 31 60 128s-27 128 -60 128s-60 -31 -60 -128s27 -128 60 -128zM540 257c0 -184 -118 -269 -260 -269c-140 0 -256 83 -256 265c0 184 118 269 260 269c140 0 256 -83 256 -265zM80 632c0 50 38 88 90 88s90 -38 90 -88s-38 -88 -90 -88s-90 38 -90 88z
M304 632c0 50 38 88 90 88s90 -38 90 -88s-38 -88 -90 -88s-90 38 -90 88z" />
    <glyph glyph-name="divide" unicode="&#xf7;" horiz-adv-x="572" 
d="M384 76c0 -54 -36 -90 -98 -90s-98 36 -98 90s36 90 98 90s98 -36 98 -90zM530 331v-152h-488v152h488zM384 434c0 -54 -36 -90 -98 -90s-98 36 -98 90s36 90 98 90s98 -36 98 -90z" />
    <glyph glyph-name="oslash" unicode="&#xf8;" horiz-adv-x="564" 
d="M540 257c0 -184 -118 -269 -260 -269c-54 0 -103 12 -145 37l-53 -59l-68 60l55 61c-28 42 -45 97 -45 166c0 184 118 269 260 269c53 0 103 -12 144 -37l53 59l69 -60l-56 -62c29 -41 46 -96 46 -165zM210 252v-9l116 129c-12 14 -28 20 -44 20c-40 0 -72 -34 -72 -140z
M354 252v15l-119 -131c12 -17 29 -24 47 -24c40 0 72 34 72 140z" />
    <glyph glyph-name="ugrave" unicode="&#xf9;" horiz-adv-x="582" 
d="M528 0h-198v53c-51 -47 -101 -65 -157 -65c-77 0 -133 34 -133 142v380h198v-321c0 -31 10 -41 31 -41c18 0 37 7 61 25v337h198v-510zM304 720l92 -176h-152l-152 176h212z" />
    <glyph glyph-name="uacute" unicode="&#xfa;" horiz-adv-x="582" 
d="M528 0h-198v53c-51 -47 -101 -65 -157 -65c-77 0 -133 34 -133 142v380h198v-321c0 -31 10 -41 31 -41c18 0 37 7 61 25v337h198v-510zM172 544l92 176h212l-152 -176h-152z" />
    <glyph glyph-name="ucircumflex" unicode="&#xfb;" horiz-adv-x="582" 
d="M528 0h-198v53c-51 -47 -101 -65 -157 -65c-77 0 -133 34 -133 142v380h198v-321c0 -31 10 -41 31 -41c18 0 37 7 61 25v337h198v-510zM214 544h-138l132 176h152l132 -176h-138l-70 61z" />
    <glyph glyph-name="udieresis" unicode="&#xfc;" horiz-adv-x="582" 
d="M528 0h-198v53c-51 -47 -101 -65 -157 -65c-77 0 -133 34 -133 142v380h198v-321c0 -31 10 -41 31 -41c18 0 37 7 61 25v337h198v-510zM82 632c0 50 38 88 90 88s90 -38 90 -88s-38 -88 -90 -88s-90 38 -90 88zM306 632c0 50 38 88 90 88s90 -38 90 -88s-38 -88 -90 -88
s-90 38 -90 88z" />
    <glyph glyph-name="yacute" unicode="&#xfd;" horiz-adv-x="510" 
d="M27 -212v154c17 -3 37 -6 58 -6c51 0 78 16 97 76h-50l-144 498h200l70 -321l72 321h192l-150 -498c-53 -176 -118 -228 -270 -228c-21 0 -58 1 -75 4zM147 544l92 176h212l-152 -176h-152z" />
    <glyph glyph-name="thorn" unicode="&#xfe;" horiz-adv-x="594" 
d="M54 720h198v-268c37 45 82 70 137 70c108 0 181 -96 181 -259c0 -177 -87 -275 -196 -275c-40 0 -84 13 -122 63v-261h-198v930zM309 360c-14 0 -32 -4 -57 -25v-174c24 -19 41 -23 55 -23c36 0 65 29 65 112c0 81 -27 110 -63 110z" />
    <glyph glyph-name="ydieresis" unicode="&#xff;" horiz-adv-x="510" 
d="M27 -212v154c17 -3 37 -6 58 -6c51 0 78 16 97 76h-50l-144 498h200l70 -321l72 321h192l-150 -498c-53 -176 -118 -228 -270 -228c-21 0 -58 1 -75 4zM53 632c0 50 38 88 90 88s90 -38 90 -88s-38 -88 -90 -88s-90 38 -90 88zM277 632c0 50 38 88 90 88s90 -38 90 -88
s-38 -88 -90 -88s-90 38 -90 88z" />
    <glyph glyph-name="Amacron" unicode="&#x100;" horiz-adv-x="704" 
d="M474 720l220 -720h-209l-32 121h-211l-31 -121h-201l226 720h238zM348 532l-69 -265h137zM162 760v122h382v-122h-382z" />
    <glyph glyph-name="amacron" unicode="&#x101;" horiz-adv-x="536" 
d="M274 522c135 0 222 -45 222 -198v-208c0 -87 5 -106 10 -116h-186c-6 7 -11 17 -14 48c-36 -39 -83 -60 -134 -60c-86 0 -148 59 -148 162c0 107 66 172 225 172c20 0 38 -1 54 -3c-3 39 -29 53 -73 53c-45 0 -92 -14 -146 -33l-34 143c64 22 139 40 224 40zM252 128
c15 0 34 6 52 16v70c-9 1 -18 2 -29 2c-43 0 -59 -14 -59 -46c0 -31 15 -42 36 -42zM85 550v122h380v-122h-380z" />
    <glyph glyph-name="Abreve" unicode="&#x102;" horiz-adv-x="704" 
d="M474 720l220 -720h-209l-32 121h-211l-31 -121h-201l226 720h238zM348 532l-69 -265h137zM351 754c-141 0 -197 58 -197 156h106c6 -25 29 -42 91 -42s85 17 91 42h106c0 -98 -56 -156 -197 -156z" />
    <glyph glyph-name="abreve" unicode="&#x103;" horiz-adv-x="536" 
d="M274 522c135 0 222 -45 222 -198v-208c0 -87 5 -106 10 -116h-186c-6 7 -11 17 -14 48c-36 -39 -83 -60 -134 -60c-86 0 -148 59 -148 162c0 107 66 172 225 172c20 0 38 -1 54 -3c-3 39 -29 53 -73 53c-45 0 -92 -14 -146 -33l-34 143c64 22 139 40 224 40zM252 128
c15 0 34 6 52 16v70c-9 1 -18 2 -29 2c-43 0 -59 -14 -59 -46c0 -31 15 -42 36 -42zM275 550c-141 0 -196 66 -196 170h104c6 -34 29 -56 92 -56s86 22 92 56h104c0 -104 -55 -170 -196 -170z" />
    <glyph glyph-name="Aogonek" unicode="&#x104;" horiz-adv-x="704" 
d="M474 720l220 -720h-69c-62 -31 -87 -60 -87 -90c0 -22 14 -28 36 -28c9 0 18 1 30 4l21 -95c-23 -6 -54 -9 -80 -9c-92 0 -146 37 -146 103c0 44 24 85 86 115l-32 121h-211l-31 -121h-201l226 720h238zM348 532l-69 -265h137z" />
    <glyph glyph-name="aogonek" unicode="&#x105;" horiz-adv-x="536" 
d="M306 48c-36 -39 -83 -60 -134 -60c-86 0 -148 59 -148 162c0 107 66 172 225 172c20 0 38 -1 54 -3c-3 39 -29 53 -73 53c-45 0 -92 -14 -146 -33l-34 143c64 22 139 40 224 40c135 0 222 -45 222 -198v-208c0 -87 5 -106 10 -116h-48c-62 -31 -87 -60 -87 -90
c0 -22 14 -29 36 -29c9 0 18 1 30 4l21 -94c-23 -6 -53 -9 -79 -9c-90 0 -145 37 -145 103c0 44 24 85 86 115c-6 7 -11 17 -14 48zM275 216c-43 0 -59 -14 -59 -46c0 -31 15 -42 36 -42c15 0 34 6 52 16v70c-9 1 -18 2 -29 2z" />
    <glyph glyph-name="Cacute" unicode="&#x106;" horiz-adv-x="600" 
d="M576 684l-44 -170c-49 28 -91 52 -147 52c-86 0 -155 -58 -155 -211c0 -152 68 -207 160 -207c54 0 98 19 146 52l44 -156c-57 -32 -134 -56 -219 -56c-198 0 -331 125 -331 363c0 248 145 381 352 381c77 0 142 -18 194 -48zM232 754l92 156h214l-152 -156h-154z" />
    <glyph glyph-name="cacute" unicode="&#x107;" horiz-adv-x="442" 
d="M424 492l-34 -150c-27 16 -52 30 -83 30c-48 0 -85 -33 -85 -121c0 -87 36 -119 89 -119c31 0 59 11 83 27l34 -138c-40 -19 -93 -33 -152 -33c-152 0 -252 90 -252 260c0 177 109 274 267 274c63 0 103 -15 133 -30zM144 544l92 176h212l-152 -176h-152z" />
    <glyph glyph-name="Ccircumflex" unicode="&#x108;" horiz-adv-x="600" 
d="M576 684l-44 -170c-49 28 -91 52 -147 52c-86 0 -155 -58 -155 -211c0 -152 68 -207 160 -207c54 0 98 19 146 52l44 -156c-57 -32 -134 -56 -219 -56c-198 0 -331 125 -331 363c0 248 145 381 352 381c77 0 142 -18 194 -48zM276 754h-140l132 156h154l132 -156h-140
l-69 41z" />
    <glyph glyph-name="ccircumflex" unicode="&#x109;" horiz-adv-x="442" 
d="M424 492l-34 -150c-27 16 -52 30 -83 30c-48 0 -85 -33 -85 -121c0 -87 36 -119 89 -119c31 0 59 11 83 27l34 -138c-40 -19 -93 -33 -152 -33c-152 0 -252 90 -252 260c0 177 109 274 267 274c63 0 103 -15 133 -30zM186 544h-138l132 176h152l132 -176h-138l-70 61z
" />
    <glyph glyph-name="Cdotaccent" unicode="&#x10a;" horiz-adv-x="600" 
d="M576 684l-44 -170c-49 28 -91 52 -147 52c-86 0 -155 -58 -155 -211c0 -152 68 -207 160 -207c54 0 98 19 146 52l44 -156c-57 -32 -134 -56 -219 -56c-198 0 -331 125 -331 363c0 248 145 381 352 381c77 0 142 -18 194 -48zM235 848c0 58 42 100 110 100
s110 -42 110 -100s-42 -100 -110 -100s-110 42 -110 100z" />
    <glyph glyph-name="cdotaccent" unicode="&#x10b;" horiz-adv-x="442" 
d="M424 492l-34 -150c-27 16 -52 30 -83 30c-48 0 -85 -33 -85 -121c0 -87 36 -119 89 -119c31 0 59 11 83 27l34 -138c-40 -19 -93 -33 -152 -33c-152 0 -252 90 -252 260c0 177 109 274 267 274c63 0 103 -15 133 -30zM365 644c0 -58 -42 -100 -109 -100s-109 42 -109 100
s42 100 109 100s109 -42 109 -100z" />
    <glyph glyph-name="Ccaron" unicode="&#x10c;" horiz-adv-x="600" 
d="M576 684l-44 -170c-49 28 -91 52 -147 52c-86 0 -155 -58 -155 -211c0 -152 68 -207 160 -207c54 0 98 19 146 52l44 -156c-57 -32 -134 -56 -219 -56c-198 0 -331 125 -331 363c0 248 145 381 352 381c77 0 142 -18 194 -48zM554 910l-132 -156h-154l-132 156h140
l69 -41l69 41h140z" />
    <glyph glyph-name="ccaron" unicode="&#x10d;" horiz-adv-x="442" 
d="M424 492l-34 -150c-27 16 -52 30 -83 30c-48 0 -85 -33 -85 -121c0 -87 36 -119 89 -119c31 0 59 11 83 27l34 -138c-40 -19 -93 -33 -152 -33c-152 0 -252 90 -252 260c0 177 109 274 267 274c63 0 103 -15 133 -30zM326 720h138l-132 -176h-152l-132 176h138l70 -62z
" />
    <glyph glyph-name="Dcaron" unicode="&#x10e;" horiz-adv-x="728" 
d="M334 554h-64v-394h64c88 0 160 49 160 197s-72 197 -160 197zM70 0v720h264c217 0 360 -123 360 -360s-149 -360 -360 -360h-264zM561 910l-132 -156h-154l-132 156h140l69 -41l69 41h140z" />
    <glyph glyph-name="dcaron" unicode="&#x10f;" horiz-adv-x="634" 
d="M205 -12c-108 0 -181 94 -181 257c0 177 87 277 196 277c46 0 87 -18 122 -63v261h198v-604c0 -87 5 -106 10 -116h-192c-6 8 -12 20 -15 60c-37 -47 -83 -72 -138 -72zM285 138c14 0 31 4 57 25v173c-24 20 -41 24 -55 24c-36 0 -65 -29 -65 -112c0 -81 27 -110 63 -110
zM686 528h-128l33 192h175z" />
    <glyph glyph-name="Dcroat" unicode="&#x110;" horiz-adv-x="728" 
d="M12 299v122h58v299h264c217 0 360 -123 360 -360s-149 -360 -360 -360h-264v299h-58zM270 554v-133h112v-122h-112v-139h64c88 0 160 49 160 197s-72 197 -160 197h-64z" />
    <glyph glyph-name="dcroat" unicode="&#x111;" horiz-adv-x="594" 
d="M205 -12c-108 0 -181 94 -181 257c0 177 87 277 196 277c46 0 87 -18 122 -63v91h-122v122h122v48h198v-48h60v-122h-60v-434c0 -87 5 -106 10 -116h-192c-6 8 -12 20 -15 60c-37 -47 -83 -72 -138 -72zM285 138c14 0 31 4 57 25v173c-24 20 -41 24 -55 24
c-36 0 -65 -29 -65 -112c0 -81 27 -110 63 -110z" />
    <glyph glyph-name="Emacron" unicode="&#x112;" horiz-adv-x="590" 
d="M70 0v720h486v-166h-286v-116h246v-156h-246v-122h290v-160h-490zM124 760v122h382v-122h-382z" />
    <glyph glyph-name="emacron" unicode="&#x113;" horiz-adv-x="550" 
d="M286 389c-33 0 -57 -25 -62 -85h116c0 62 -22 85 -54 85zM517 194h-289c15 -60 55 -68 95 -68c49 0 93 12 151 33l34 -132c-54 -22 -135 -39 -210 -39c-170 0 -274 87 -274 259c0 181 115 275 266 275c141 0 232 -82 232 -251c0 -25 -2 -54 -5 -77zM89 550v122h380v-122
h-380z" />
    <glyph glyph-name="Ebreve" unicode="&#x114;" horiz-adv-x="590" 
d="M70 0v720h486v-166h-286v-116h246v-156h-246v-122h290v-160h-490zM315 754c-141 0 -197 58 -197 156h106c6 -25 29 -42 91 -42s85 17 91 42h106c0 -98 -56 -156 -197 -156z" />
    <glyph glyph-name="ebreve" unicode="&#x115;" horiz-adv-x="550" 
d="M286 389c-33 0 -57 -25 -62 -85h116c0 62 -22 85 -54 85zM517 194h-289c15 -60 55 -68 95 -68c49 0 93 12 151 33l34 -132c-54 -22 -135 -39 -210 -39c-170 0 -274 87 -274 259c0 181 115 275 266 275c141 0 232 -82 232 -251c0 -25 -2 -54 -5 -77zM279 550
c-141 0 -196 66 -196 170h104c6 -34 29 -56 92 -56s86 22 92 56h104c0 -104 -55 -170 -196 -170z" />
    <glyph glyph-name="Edotaccent" unicode="&#x116;" horiz-adv-x="590" 
d="M70 0v720h486v-166h-286v-116h246v-156h-246v-122h290v-160h-490zM205 848c0 58 42 100 110 100s110 -42 110 -100s-42 -100 -110 -100s-110 42 -110 100z" />
    <glyph glyph-name="edotaccent" unicode="&#x117;" horiz-adv-x="550" 
d="M286 389c-33 0 -57 -25 -62 -85h116c0 62 -22 85 -54 85zM517 194h-289c15 -60 55 -68 95 -68c49 0 93 12 151 33l34 -132c-54 -22 -135 -39 -210 -39c-170 0 -274 87 -274 259c0 181 115 275 266 275c141 0 232 -82 232 -251c0 -25 -2 -54 -5 -77zM388 644
c0 -58 -42 -100 -109 -100s-109 42 -109 100s42 100 109 100s109 -42 109 -100z" />
    <glyph glyph-name="Eogonek" unicode="&#x118;" horiz-adv-x="590" 
d="M70 0v720h486v-166h-286v-116h246v-156h-246v-122h290v-158c-65 -32 -91 -61 -91 -92c0 -22 14 -28 35 -28c9 0 20 1 31 4l21 -95c-23 -6 -54 -9 -80 -9c-92 0 -146 37 -146 104c0 42 22 83 86 114h-346z" />
    <glyph glyph-name="eogonek" unicode="&#x119;" horiz-adv-x="550" 
d="M517 194h-289c15 -60 55 -68 95 -68c49 0 93 12 151 33l34 -132c-95 -48 -131 -81 -131 -117c0 -22 15 -29 35 -29c17 0 39 5 62 14l21 -94c-30 -13 -72 -19 -109 -19c-92 0 -146 37 -146 103c0 32 13 67 70 103h-11c-171 0 -275 87 -275 259c0 181 115 275 266 275
c141 0 232 -82 232 -251c0 -25 -2 -54 -5 -77zM286 389c-33 0 -57 -25 -62 -85h116c0 62 -22 85 -54 85z" />
    <glyph glyph-name="Ecaron" unicode="&#x11a;" horiz-adv-x="590" 
d="M70 0v720h486v-166h-286v-116h246v-156h-246v-122h290v-160h-490zM524 910l-132 -156h-154l-132 156h140l69 -41l69 41h140z" />
    <glyph glyph-name="ecaron" unicode="&#x11b;" horiz-adv-x="550" 
d="M286 389c-33 0 -57 -25 -62 -85h116c0 62 -22 85 -54 85zM517 194h-289c15 -60 55 -68 95 -68c49 0 93 12 151 33l34 -132c-54 -22 -135 -39 -210 -39c-170 0 -274 87 -274 259c0 181 115 275 266 275c141 0 232 -82 232 -251c0 -25 -2 -54 -5 -77zM349 720h138
l-132 -176h-152l-132 176h138l70 -62z" />
    <glyph glyph-name="Gcircumflex" unicode="&#x11c;" horiz-adv-x="694" 
d="M630 398v-353c-70 -34 -155 -57 -248 -57c-217 0 -352 126 -352 362c0 248 148 382 373 382c93 0 167 -23 227 -60l-44 -170c-52 35 -107 64 -180 64c-102 0 -176 -57 -176 -216c0 -154 70 -208 175 -208c14 0 27 1 39 2v108h-100v146h286zM301 754h-140l132 156h154
l132 -156h-140l-69 41z" />
    <glyph glyph-name="gcircumflex" unicode="&#x11d;" horiz-adv-x="598" 
d="M525 340c0 -121 -111 -188 -248 -188c-17 0 -33 1 -49 3c-2 -5 -3 -11 -3 -17c0 -25 18 -29 48 -29h95c119 0 196 -47 196 -139c0 -123 -136 -192 -316 -192c-147 0 -246 46 -246 131c0 44 27 86 102 106c-36 22 -49 54 -49 81c0 34 21 68 60 97c-48 30 -78 77 -78 141
c0 121 111 188 248 188c72 0 138 -19 183 -56c24 29 58 44 94 44c10 0 19 -1 25 -2v-156c-6 1 -15 1 -25 1c-13 0 -25 -1 -37 -3v-10zM286 267c27 0 51 15 51 64c0 48 -22 64 -50 64c-27 0 -51 -16 -51 -65c0 -47 22 -63 50 -63zM320 -29h-115c-10 -6 -17 -15 -17 -30
c0 -32 37 -45 89 -45s89 13 89 43c0 22 -18 32 -46 32zM211 544h-138l132 176h152l132 -176h-138l-70 61z" />
    <glyph glyph-name="Gbreve" unicode="&#x11e;" horiz-adv-x="694" 
d="M630 398v-353c-70 -34 -155 -57 -248 -57c-217 0 -352 126 -352 362c0 248 148 382 373 382c93 0 167 -23 227 -60l-44 -170c-52 35 -107 64 -180 64c-102 0 -176 -57 -176 -216c0 -154 70 -208 175 -208c14 0 27 1 39 2v108h-100v146h286zM370 754
c-141 0 -197 58 -197 156h106c6 -25 29 -42 91 -42s85 17 91 42h106c0 -98 -56 -156 -197 -156z" />
    <glyph glyph-name="gbreve" unicode="&#x11f;" horiz-adv-x="598" 
d="M525 340c0 -121 -111 -188 -248 -188c-17 0 -33 1 -49 3c-2 -5 -3 -11 -3 -17c0 -25 18 -29 48 -29h95c119 0 196 -47 196 -139c0 -123 -136 -192 -316 -192c-147 0 -246 46 -246 131c0 44 27 86 102 106c-36 22 -49 54 -49 81c0 34 21 68 60 97c-48 30 -78 77 -78 141
c0 121 111 188 248 188c72 0 138 -19 183 -56c24 29 58 44 94 44c10 0 19 -1 25 -2v-156c-6 1 -15 1 -25 1c-13 0 -25 -1 -37 -3v-10zM286 267c27 0 51 15 51 64c0 48 -22 64 -50 64c-27 0 -51 -16 -51 -65c0 -47 22 -63 50 -63zM320 -29h-115c-10 -6 -17 -15 -17 -30
c0 -32 37 -45 89 -45s89 13 89 43c0 22 -18 32 -46 32zM281 550c-141 0 -196 66 -196 170h104c6 -34 29 -56 92 -56s86 22 92 56h104c0 -104 -55 -170 -196 -170z" />
    <glyph glyph-name="Gdotaccent" unicode="&#x120;" horiz-adv-x="694" 
d="M630 398v-353c-70 -34 -155 -57 -248 -57c-217 0 -352 126 -352 362c0 248 148 382 373 382c93 0 167 -23 227 -60l-44 -170c-52 35 -107 64 -180 64c-102 0 -176 -57 -176 -216c0 -154 70 -208 175 -208c14 0 27 1 39 2v108h-100v146h286zM260 848c0 58 42 100 110 100
s110 -42 110 -100s-42 -100 -110 -100s-110 42 -110 100z" />
    <glyph glyph-name="gdotaccent" unicode="&#x121;" horiz-adv-x="598" 
d="M525 340c0 -121 -111 -188 -248 -188c-17 0 -33 1 -49 3c-2 -5 -3 -11 -3 -17c0 -25 18 -29 48 -29h95c119 0 196 -47 196 -139c0 -123 -136 -192 -316 -192c-147 0 -246 46 -246 131c0 44 27 86 102 106c-36 22 -49 54 -49 81c0 34 21 68 60 97c-48 30 -78 77 -78 141
c0 121 111 188 248 188c72 0 138 -19 183 -56c24 29 58 44 94 44c10 0 19 -1 25 -2v-156c-6 1 -15 1 -25 1c-13 0 -25 -1 -37 -3v-10zM286 267c27 0 51 15 51 64c0 48 -22 64 -50 64c-27 0 -51 -16 -51 -65c0 -47 22 -63 50 -63zM320 -29h-115c-10 -6 -17 -15 -17 -30
c0 -32 37 -45 89 -45s89 13 89 43c0 22 -18 32 -46 32zM392 644c0 -58 -42 -100 -109 -100s-109 42 -109 100s42 100 109 100s109 -42 109 -100z" />
    <glyph glyph-name="Gcommaaccent" unicode="&#x122;" horiz-adv-x="694" 
d="M630 398v-353c-70 -34 -155 -57 -248 -57c-217 0 -352 126 -352 362c0 248 148 382 373 382c93 0 167 -23 227 -60l-44 -170c-52 35 -107 64 -180 64c-102 0 -176 -57 -176 -216c0 -154 70 -208 175 -208c14 0 27 1 39 2v108h-100v146h286zM272 -112c0 51 42 80 95 80
c60 0 105 -36 105 -107c0 -50 -22 -121 -161 -170l-52 72c42 17 68 34 83 51c-43 6 -70 34 -70 74z" />
    <glyph glyph-name="gcommaaccent" unicode="&#x123;" horiz-adv-x="598" 
d="M525 340c0 -121 -111 -188 -248 -188c-17 0 -33 1 -49 3c-2 -5 -3 -11 -3 -17c0 -25 18 -29 48 -29h95c119 0 196 -47 196 -139c0 -123 -136 -192 -316 -192c-147 0 -246 46 -246 131c0 44 27 86 102 106c-36 22 -49 54 -49 81c0 34 21 68 60 97c-48 30 -78 77 -78 141
c0 121 111 188 248 188c72 0 138 -19 183 -56c24 29 58 44 94 44c10 0 19 -1 25 -2v-156c-6 1 -15 1 -25 1c-13 0 -25 -1 -37 -3v-10zM286 267c27 0 51 15 51 64c0 48 -22 64 -50 64c-27 0 -51 -16 -51 -65c0 -47 22 -63 50 -63zM320 -29h-115c-10 -6 -17 -15 -17 -30
c0 -32 37 -45 89 -45s89 13 89 43c0 22 -18 32 -46 32zM377 624c0 -51 -42 -80 -95 -80c-60 0 -105 36 -105 107c0 50 22 121 161 170l52 -72c-42 -17 -68 -34 -83 -51c43 -6 70 -34 70 -74z" />
    <glyph glyph-name="Hcircumflex" unicode="&#x124;" horiz-adv-x="732" 
d="M70 0v720h200v-272h192v272h200v-720h-200v282h-192v-282h-200zM297 754h-140l132 156h154l132 -156h-140l-69 41z" />
    <glyph glyph-name="hcircumflex" unicode="&#x125;" horiz-adv-x="582" 
d="M252 720v-264c44 43 95 66 158 66c76 0 132 -34 132 -142v-380h-198v315c0 31 -10 41 -31 41c-19 0 -38 -8 -61 -26v-330h-198v720h198zM228 744h-138l132 176h152l132 -176h-138l-70 61z" />
    <glyph glyph-name="Hbar" unicode="&#x126;" horiz-adv-x="732" 
d="M12 513v122h58v85h200v-85h192v85h200v-85h58v-122h-58v-513h-200v282h-192v-282h-200v513h-58zM270 448h192v65h-192v-65z" />
    <glyph glyph-name="hbar" unicode="&#x127;" horiz-adv-x="582" 
d="M-6 550v122h60v48h198v-48h122v-122h-122v-94c44 43 95 66 158 66c76 0 132 -34 132 -142v-380h-198v315c0 31 -10 41 -31 41c-19 0 -38 -8 -61 -26v-330h-198v550h-60z" />
    <glyph glyph-name="Itilde" unicode="&#x128;" horiz-adv-x="348" 
d="M74 0v720h200v-720h-200zM73 754h-110c0 118 55 162 126 162s126 -38 155 -38c23 0 31 10 31 32h110c0 -118 -55 -162 -126 -162s-126 38 -155 38c-23 0 -31 -10 -31 -32z" />
    <glyph glyph-name="itilde" unicode="&#x129;" horiz-adv-x="318" 
d="M60 0v510h198v-510h-198zM57 550h-108c0 122 55 170 125 170c72 0 123 -52 157 -52c21 0 30 20 30 46h108c0 -122 -55 -170 -125 -170c-72 0 -123 52 -157 52c-21 0 -30 -20 -30 -46z" />
    <glyph glyph-name="Imacron" unicode="&#x12a;" horiz-adv-x="348" 
d="M74 0v720h200v-720h-200zM-17 760v122h382v-122h-382z" />
    <glyph glyph-name="imacron" unicode="&#x12b;" horiz-adv-x="318" 
d="M60 0v510h198v-510h-198zM-31 550v122h380v-122h-380z" />
    <glyph glyph-name="Ibreve" unicode="&#x12c;" horiz-adv-x="348" 
d="M74 0v720h200v-720h-200zM174 754c-141 0 -197 58 -197 156h106c6 -25 29 -42 91 -42s85 17 91 42h106c0 -98 -56 -156 -197 -156z" />
    <glyph glyph-name="ibreve" unicode="&#x12d;" horiz-adv-x="318" 
d="M60 0v510h198v-510h-198zM159 550c-141 0 -196 66 -196 170h104c6 -34 29 -56 92 -56s86 22 92 56h104c0 -104 -55 -170 -196 -170z" />
    <glyph glyph-name="Iogonek" unicode="&#x12e;" horiz-adv-x="348" 
d="M74 0v720h200v-720h-60c-57 -32 -77 -62 -77 -89c0 -23 14 -29 36 -29c9 0 18 1 30 4l21 -95c-23 -6 -53 -9 -79 -9c-93 0 -147 37 -147 104c0 41 20 84 76 114z" />
    <glyph glyph-name="iogonek" unicode="&#x12f;" horiz-adv-x="318" 
d="M60 0v510h198v-510h-60c-55 -31 -77 -60 -77 -89c0 -23 14 -30 36 -30c9 0 18 1 30 4l21 -94c-23 -6 -53 -9 -79 -9c-91 0 -145 37 -145 104c0 41 20 84 76 114zM268 652c0 -60 -40 -100 -109 -100s-109 40 -109 100s40 100 109 100s109 -40 109 -100z" />
    <glyph glyph-name="Idotaccent" unicode="&#x130;" horiz-adv-x="348" 
d="M74 0v720h200v-720h-200zM64 848c0 58 42 100 110 100s110 -42 110 -100s-42 -100 -110 -100s-110 42 -110 100z" />
    <glyph glyph-name="dotlessi" unicode="&#x131;" horiz-adv-x="318" 
d="M60 0v510h198v-510h-198z" />
    <glyph glyph-name="IJ" unicode="&#x132;" horiz-adv-x="762" 
d="M362 -2v162c19 -3 49 -6 71 -6c60 0 75 22 75 87v479h200v-479c0 -177 -70 -247 -251 -247c-31 0 -70 2 -95 4zM74 0v720h200v-720h-200z" />
    <glyph glyph-name="ij" unicode="&#x133;" horiz-adv-x="636" 
d="M576 510v-540c0 -133 -57 -186 -205 -186c-20 0 -42 1 -61 3v140c12 -2 20 -3 29 -3c31 0 39 13 39 46v540h198zM586 652c0 -58 -42 -100 -109 -100s-109 42 -109 100s42 100 109 100s109 -42 109 -100zM60 0v510h198v-510h-198zM268 652c0 -58 -42 -100 -109 -100
s-109 42 -109 100s42 100 109 100s109 -42 109 -100z" />
    <glyph glyph-name="Jcircumflex" unicode="&#x134;" horiz-adv-x="414" 
d="M14 -2v162c19 -3 49 -6 71 -6c60 0 75 22 75 87v479h200v-479c0 -177 -70 -247 -251 -247c-31 0 -70 2 -95 4zM191 754h-140l132 156h154l132 -156h-140l-69 41z" />
    <glyph glyph-name="jcircumflex" unicode="&#x135;" horiz-adv-x="318" 
d="M-8 -213v140c12 -2 20 -3 29 -3c31 0 39 13 39 46v540h198v-540c0 -133 -57 -186 -205 -186c-20 0 -42 1 -61 3zM89 544h-138l132 176h152l132 -176h-138l-70 61z" />
    <glyph glyph-name="Kcommaaccent" unicode="&#x136;" horiz-adv-x="698" 
d="M70 0v720h200v-258l174 258h228l-210 -271l226 -449h-219l-136 282l-63 -82v-200h-200zM262 -112c0 51 42 80 95 80c60 0 105 -36 105 -107c0 -50 -22 -121 -161 -170l-52 72c42 17 68 34 83 51c-43 6 -70 34 -70 74z" />
    <glyph glyph-name="kcommaaccent" unicode="&#x137;" horiz-adv-x="576" 
d="M54 0v720h198v-365l102 155h206l-156 -190l162 -320h-203l-81 171l-30 -37v-134h-198zM193 -112c0 51 42 80 95 80c60 0 105 -36 105 -107c0 -50 -22 -121 -161 -170l-52 72c42 17 68 34 83 51c-43 6 -70 34 -70 74z" />
    <glyph glyph-name="kgreenlandic" unicode="&#x138;" horiz-adv-x="576" 
d="M54 0v510h198v-155l102 155h206l-156 -190l162 -320h-203l-81 171l-30 -37v-134h-198z" />
    <glyph glyph-name="Lacute" unicode="&#x139;" horiz-adv-x="544" 
d="M70 0v720h200v-554h260v-166h-460zM53 754l92 156h214l-152 -156h-154z" />
    <glyph glyph-name="lacute" unicode="&#x13a;" horiz-adv-x="318" 
d="M60 0v720h198v-720h-198zM47 744l92 176h212l-152 -176h-152z" />
    <glyph glyph-name="Lcommaaccent" unicode="&#x13b;" horiz-adv-x="544" 
d="M70 0v720h200v-554h260v-166h-460zM203 -112c0 51 42 80 95 80c60 0 105 -36 105 -107c0 -50 -22 -121 -161 -170l-52 72c42 17 68 34 83 51c-43 6 -70 34 -70 74z" />
    <glyph glyph-name="lcommaaccent" unicode="&#x13c;" horiz-adv-x="318" 
d="M60 0v720h198v-720h-198zM46 -112c0 51 42 80 95 80c60 0 105 -36 105 -107c0 -50 -22 -121 -161 -170l-52 72c42 17 68 34 83 51c-43 6 -70 34 -70 74z" />
    <glyph glyph-name="Lcaron" unicode="&#x13d;" horiz-adv-x="544" 
d="M70 0v720h200v-554h260v-166h-460zM428 528h-128l33 192h175z" />
    <glyph glyph-name="lcaron" unicode="&#x13e;" horiz-adv-x="358" 
d="M60 0v720h198v-720h-198zM404 528h-128l33 192h175z" />
    <glyph glyph-name="Ldot" unicode="&#x13f;" horiz-adv-x="544" 
d="M322 360c0 58 42 100 110 100s110 -42 110 -100s-42 -100 -110 -100s-110 42 -110 100zM70 0v720h200v-554h260v-166h-460z" />
    <glyph glyph-name="ldot" unicode="&#x140;" horiz-adv-x="397" 
d="M288 356c0 58 42 100 109 100s109 -42 109 -100s-42 -100 -109 -100s-109 42 -109 100zM60 0v720h198v-720h-198z" />
    <glyph glyph-name="Lslash" unicode="&#x141;" horiz-adv-x="544" 
d="M12 260v132l58 15v313h200v-262l168 43v-132l-168 -43v-160h260v-166h-460v275z" />
    <glyph glyph-name="lslash" unicode="&#x142;" horiz-adv-x="358" 
d="M24 285v128l56 15v292h198v-242l56 15v-128l-56 -15v-350h-198v300z" />
    <glyph glyph-name="Nacute" unicode="&#x143;" horiz-adv-x="740" 
d="M70 0v720h208l208 -354v354h184v-720h-168l-248 419v-419h-184zM257 754l92 156h214l-152 -156h-154z" />
    <glyph glyph-name="nacute" unicode="&#x144;" horiz-adv-x="582" 
d="M54 0v510h198v-54c44 43 95 66 158 66c76 0 132 -34 132 -142v-380h-198v315c0 31 -10 41 -31 41c-19 0 -38 -8 -61 -26v-330h-198zM186 544l92 176h212l-152 -176h-152z" />
    <glyph glyph-name="Ncommaaccent" unicode="&#x145;" horiz-adv-x="740" 
d="M70 0v720h208l208 -354v354h184v-720h-168l-248 419v-419h-184zM272 -112c0 51 42 80 95 80c60 0 105 -36 105 -107c0 -50 -22 -121 -161 -170l-52 72c42 17 68 34 83 51c-43 6 -70 34 -70 74z" />
    <glyph glyph-name="ncommaaccent" unicode="&#x146;" horiz-adv-x="582" 
d="M54 0v510h198v-54c44 43 95 66 158 66c76 0 132 -34 132 -142v-380h-198v315c0 31 -10 41 -31 41c-19 0 -38 -8 -61 -26v-330h-198zM200 -112c0 51 42 80 95 80c60 0 105 -36 105 -107c0 -50 -22 -121 -161 -170l-52 72c42 17 68 34 83 51c-43 6 -70 34 -70 74z" />
    <glyph glyph-name="Ncaron" unicode="&#x147;" horiz-adv-x="740" 
d="M70 0v720h208l208 -354v354h184v-720h-168l-248 419v-419h-184zM579 910l-132 -156h-154l-132 156h140l69 -41l69 41h140z" />
    <glyph glyph-name="ncaron" unicode="&#x148;" horiz-adv-x="582" 
d="M54 0v510h198v-54c44 43 95 66 158 66c76 0 132 -34 132 -142v-380h-198v315c0 31 -10 41 -31 41c-19 0 -38 -8 -61 -26v-330h-198zM368 720h138l-132 -176h-152l-132 176h138l70 -62z" />
    <glyph glyph-name="napostrophe" unicode="&#x149;" horiz-adv-x="582" 
d="M54 0v510h198v-54c44 43 95 66 158 66c76 0 132 -34 132 -142v-380h-198v315c0 31 -10 41 -31 41c-19 0 -38 -8 -61 -26v-330h-198zM-124 652c0 51 42 80 95 80c60 0 105 -36 105 -107c0 -50 -22 -121 -161 -170l-52 72c42 17 68 34 83 51c-43 6 -70 34 -70 74z" />
    <glyph glyph-name="Eng" unicode="&#x14a;" horiz-adv-x="740" 
d="M70 0v720h208l208 -354v354h184v-712c0 -133 -57 -186 -205 -186c-20 0 -42 1 -61 3v140c12 -2 20 -3 29 -3c31 0 39 13 39 46v42l-218 369v-419h-184z" />
    <glyph glyph-name="eng" unicode="&#x14b;" horiz-adv-x="582" 
d="M276 -175v140c12 -2 20 -3 29 -3c31 0 39 13 39 46v307c0 31 -10 41 -31 41c-19 0 -38 -8 -61 -26v-330h-198v510h198v-54c44 43 95 66 158 66c76 0 132 -34 132 -142v-372c0 -133 -57 -186 -205 -186c-20 0 -42 1 -61 3z" />
    <glyph glyph-name="Omacron" unicode="&#x14c;" horiz-adv-x="726" 
d="M230 357c0 -157 60 -209 133 -209s133 52 133 209s-60 209 -133 209s-133 -52 -133 -209zM30 358c0 244 142 374 335 374c191 0 331 -128 331 -370c0 -244 -142 -374 -335 -374c-191 0 -331 128 -331 370zM172 760v122h382v-122h-382z" />
    <glyph glyph-name="omacron" unicode="&#x14d;" horiz-adv-x="564" 
d="M282 124c33 0 60 31 60 128s-27 128 -60 128s-60 -31 -60 -128s27 -128 60 -128zM540 257c0 -184 -118 -269 -260 -269c-140 0 -256 83 -256 265c0 184 118 269 260 269c140 0 256 -83 256 -265zM92 550v122h380v-122h-380z" />
    <glyph glyph-name="Obreve" unicode="&#x14e;" horiz-adv-x="726" 
d="M230 357c0 -157 60 -209 133 -209s133 52 133 209s-60 209 -133 209s-133 -52 -133 -209zM30 358c0 244 142 374 335 374c191 0 331 -128 331 -370c0 -244 -142 -374 -335 -374c-191 0 -331 128 -331 370zM363 754c-141 0 -197 58 -197 156h106c6 -25 29 -42 91 -42
s85 17 91 42h106c0 -98 -56 -156 -197 -156z" />
    <glyph glyph-name="obreve" unicode="&#x14f;" horiz-adv-x="564" 
d="M282 124c33 0 60 31 60 128s-27 128 -60 128s-60 -31 -60 -128s27 -128 60 -128zM540 257c0 -184 -118 -269 -260 -269c-140 0 -256 83 -256 265c0 184 118 269 260 269c140 0 256 -83 256 -265zM282 550c-141 0 -196 66 -196 170h104c6 -34 29 -56 92 -56s86 22 92 56
h104c0 -104 -55 -170 -196 -170z" />
    <glyph glyph-name="Ohungarumlaut" unicode="&#x150;" horiz-adv-x="726" 
d="M230 357c0 -157 60 -209 133 -209s133 52 133 209s-60 209 -133 209s-133 -52 -133 -209zM30 358c0 244 142 374 335 374c191 0 331 -128 331 -370c0 -244 -142 -374 -335 -374c-191 0 -331 128 -331 370zM125 754l92 156h214l-152 -156h-154zM357 754l112 156h214
l-172 -156h-154z" />
    <glyph glyph-name="ohungarumlaut" unicode="&#x151;" horiz-adv-x="564" 
d="M282 124c33 0 60 31 60 128s-27 128 -60 128s-60 -31 -60 -128s27 -128 60 -128zM540 257c0 -184 -118 -269 -260 -269c-140 0 -256 83 -256 265c0 184 118 269 260 269c140 0 256 -83 256 -265zM46 544l92 176h212l-152 -176h-152zM276 544l112 176h212l-172 -176h-152z
" />
    <glyph glyph-name="OE" unicode="&#x152;" horiz-adv-x="934" 
d="M904 0h-440c-33 -8 -68 -12 -106 -12c-195 0 -328 124 -328 368c0 241 145 376 352 376c37 0 72 -4 104 -12h414v-166h-256v-116h216v-156h-216v-122h260v-160zM386 148c21 0 40 2 58 7v402c-18 6 -37 9 -57 9c-88 0 -157 -58 -157 -210c0 -153 69 -208 156 -208z" />
    <glyph glyph-name="oe" unicode="&#x153;" horiz-adv-x="868" 
d="M616 -12c-71 0 -131 15 -177 46c-44 -31 -100 -46 -159 -46c-140 0 -256 83 -256 265c0 184 118 269 259 269c61 0 118 -16 162 -48c44 32 100 48 163 48c142 0 232 -82 232 -251c0 -25 -2 -54 -5 -77h-289c15 -60 55 -68 95 -68c49 0 93 12 151 33l34 -132
c-54 -22 -135 -39 -210 -39zM282 124c33 0 60 31 60 128s-27 128 -60 128s-60 -31 -60 -128s27 -128 60 -128zM604 389c-33 0 -57 -25 -62 -85h116c0 62 -22 85 -54 85z" />
    <glyph glyph-name="Racute" unicode="&#x154;" horiz-adv-x="718" 
d="M458 0l-129 268h-63v-268h-196v720h313c165 0 263 -75 263 -226c0 -97 -43 -163 -119 -197l149 -297h-218zM266 558v-150h95c62 0 89 23 89 75s-27 75 -89 75h-95zM230 754l92 156h214l-152 -156h-154z" />
    <glyph glyph-name="racute" unicode="&#x155;" horiz-adv-x="412" 
d="M252 510v-75c28 57 75 87 128 87c10 0 21 -1 28 -3v-169c-8 1 -18 1 -30 1c-60 0 -109 -29 -126 -41v-310h-198v510h198zM118 544l92 176h212l-152 -176h-152z" />
    <glyph glyph-name="Rcommaaccent" unicode="&#x156;" horiz-adv-x="718" 
d="M458 0l-129 268h-63v-268h-196v720h313c165 0 263 -75 263 -226c0 -97 -43 -163 -119 -197l149 -297h-218zM266 558v-150h95c62 0 89 23 89 75s-27 75 -89 75h-95zM254 -112c0 51 42 80 95 80c60 0 105 -36 105 -107c0 -50 -22 -121 -161 -170l-52 72c42 17 68 34 83 51
c-43 6 -70 34 -70 74z" />
    <glyph glyph-name="rcommaaccent" unicode="&#x157;" horiz-adv-x="412" 
d="M252 510v-75c28 57 75 87 128 87c10 0 21 -1 28 -3v-169c-8 1 -18 1 -30 1c-60 0 -109 -29 -126 -41v-310h-198v510h198zM48 -112c0 51 42 80 95 80c60 0 105 -36 105 -107c0 -50 -22 -121 -161 -170l-52 72c42 17 68 34 83 51c-43 6 -70 34 -70 74z" />
    <glyph glyph-name="Rcaron" unicode="&#x158;" horiz-adv-x="718" 
d="M458 0l-129 268h-63v-268h-196v720h313c165 0 263 -75 263 -226c0 -97 -43 -163 -119 -197l149 -297h-218zM266 558v-150h95c62 0 89 23 89 75s-27 75 -89 75h-95zM552 910l-132 -156h-154l-132 156h140l69 -41l69 41h140z" />
    <glyph glyph-name="rcaron" unicode="&#x159;" horiz-adv-x="412" 
d="M252 510v-75c28 57 75 87 128 87c10 0 21 -1 28 -3v-169c-8 1 -18 1 -30 1c-60 0 -109 -29 -126 -41v-310h-198v510h198zM300 720h138l-132 -176h-152l-132 176h138l70 -62z" />
    <glyph glyph-name="Sacute" unicode="&#x15a;" horiz-adv-x="586" 
d="M30 40l44 162c63 -31 126 -56 188 -56c61 0 94 25 94 60c0 107 -308 44 -308 288c0 147 112 238 276 238c79 0 152 -21 210 -52l-44 -170c-50 31 -110 56 -163 56c-50 0 -79 -23 -79 -54c0 -101 308 -38 308 -282c0 -150 -116 -242 -291 -242c-77 0 -165 18 -235 52z
M186 754l92 156h214l-152 -156h-154z" />
    <glyph glyph-name="sacute" unicode="&#x15b;" horiz-adv-x="476" 
d="M24 27l34 142c49 -23 104 -43 151 -43c37 0 53 13 53 28c0 54 -218 10 -218 188c0 113 88 180 222 180c65 0 124 -16 170 -37l-34 -148c-40 23 -92 41 -130 41c-27 0 -38 -9 -38 -22c0 -54 218 -3 218 -183c0 -117 -92 -185 -236 -185c-68 0 -139 15 -192 39zM130 544
l92 176h212l-152 -176h-152z" />
    <glyph glyph-name="Scircumflex" unicode="&#x15c;" horiz-adv-x="586" 
d="M30 40l44 162c63 -31 126 -56 188 -56c61 0 94 25 94 60c0 107 -308 44 -308 288c0 147 112 238 276 238c79 0 152 -21 210 -52l-44 -170c-50 31 -110 56 -163 56c-50 0 -79 -23 -79 -54c0 -101 308 -38 308 -282c0 -150 -116 -242 -291 -242c-77 0 -165 18 -235 52z
M230 754h-140l132 156h154l132 -156h-140l-69 41z" />
    <glyph glyph-name="scircumflex" unicode="&#x15d;" horiz-adv-x="476" 
d="M24 27l34 142c49 -23 104 -43 151 -43c37 0 53 13 53 28c0 54 -218 10 -218 188c0 113 88 180 222 180c65 0 124 -16 170 -37l-34 -148c-40 23 -92 41 -130 41c-27 0 -38 -9 -38 -22c0 -54 218 -3 218 -183c0 -117 -92 -185 -236 -185c-68 0 -139 15 -192 39zM172 544
h-138l132 176h152l132 -176h-138l-70 61z" />
    <glyph glyph-name="Scedilla" unicode="&#x15e;" horiz-adv-x="586" 
d="M440 -104c0 -74 -66 -114 -163 -114c-61 0 -101 15 -131 30l22 94c28 -16 57 -26 91 -26c25 0 42 6 42 26c0 17 -11 32 -79 41l9 42c-68 5 -141 22 -201 51l44 162c63 -31 126 -56 188 -56c61 0 94 25 94 60c0 107 -308 44 -308 288c0 147 112 238 276 238
c79 0 152 -21 210 -52l-44 -170c-50 31 -110 56 -163 56c-50 0 -79 -23 -79 -54c0 -101 308 -38 308 -282c0 -122 -77 -206 -200 -232c58 -18 84 -52 84 -102z" />
    <glyph glyph-name="scedilla" unicode="&#x15f;" horiz-adv-x="476" 
d="M92 -188l22 93c28 -16 57 -26 89 -26c27 0 44 7 44 27c0 17 -12 33 -80 42l9 42c-55 4 -110 17 -152 37l34 142c49 -23 104 -43 151 -43c37 0 53 13 53 28c0 54 -218 10 -218 188c0 113 88 180 222 180c65 0 124 -16 170 -37l-34 -148c-40 23 -92 41 -130 41
c-27 0 -38 -9 -38 -22c0 -54 218 -3 218 -183c0 -92 -57 -154 -151 -176c57 -18 83 -51 83 -99c0 -77 -66 -116 -162 -116c-60 0 -100 15 -130 30z" />
    <glyph glyph-name="Scaron" unicode="&#x160;" horiz-adv-x="586" 
d="M30 40l44 162c63 -31 126 -56 188 -56c61 0 94 25 94 60c0 107 -308 44 -308 288c0 147 112 238 276 238c79 0 152 -21 210 -52l-44 -170c-50 31 -110 56 -163 56c-50 0 -79 -23 -79 -54c0 -101 308 -38 308 -282c0 -150 -116 -242 -291 -242c-77 0 -165 18 -235 52z
M508 910l-132 -156h-154l-132 156h140l69 -41l69 41h140z" />
    <glyph glyph-name="scaron" unicode="&#x161;" horiz-adv-x="476" 
d="M24 27l34 142c49 -23 104 -43 151 -43c37 0 53 13 53 28c0 54 -218 10 -218 188c0 113 88 180 222 180c65 0 124 -16 170 -37l-34 -148c-40 23 -92 41 -130 41c-27 0 -38 -9 -38 -22c0 -54 218 -3 218 -183c0 -117 -92 -185 -236 -185c-68 0 -139 15 -192 39zM312 720
h138l-132 -176h-152l-132 176h138l70 -62z" />
    <glyph glyph-name="Tcommaaccent" unicode="&#x162;" horiz-adv-x="592" 
d="M196 0v554h-182v166h564v-166h-182v-554h-45c64 -17 92 -54 92 -103c0 -76 -66 -115 -163 -115c-61 0 -101 15 -131 30l22 94c28 -16 57 -26 91 -26c25 0 42 6 42 26c0 17 -11 32 -79 41l11 53h-40z" />
    <glyph glyph-name="tcommaaccent" unicode="&#x163;" horiz-adv-x="372" 
d="M12 368v142h60v170h198v-170h78v-142h-78v-185c0 -31 10 -41 35 -41c14 0 30 3 43 6v-146c-24 -3 -50 -6 -80 -7c50 -19 74 -51 74 -97c0 -77 -66 -116 -162 -116c-60 0 -100 15 -130 30l22 93c28 -16 57 -26 89 -26c27 0 44 7 44 27c0 17 -12 33 -80 42l13 60
c-47 20 -66 63 -66 144v216h-60z" />
    <glyph glyph-name="Tcaron" unicode="&#x164;" horiz-adv-x="592" 
d="M196 0v554h-182v166h564v-166h-182v-554h-200zM505 910l-132 -156h-154l-132 156h140l69 -41l69 41h140z" />
    <glyph glyph-name="tcaron" unicode="&#x165;" horiz-adv-x="372" 
d="M412 528h-128l33 192h175zM12 368v142h60v170h198v-170h78v-142h-78v-185c0 -31 10 -41 35 -41c14 0 30 3 43 6v-146c-31 -4 -67 -8 -109 -8c-123 0 -167 35 -167 158v216h-60z" />
    <glyph glyph-name="Tbar" unicode="&#x166;" horiz-adv-x="592" 
d="M61 299v122h135v133h-182v166h564v-166h-182v-133h135v-122h-135v-299h-200v299h-135z" />
    <glyph glyph-name="tbar" unicode="&#x167;" horiz-adv-x="372" 
d="M348 368h-78v-51h78v-122h-78v-12c0 -31 10 -41 35 -41c14 0 30 3 43 6v-146c-31 -4 -67 -8 -109 -8c-123 0 -167 35 -167 158v43h-60v122h60v51h-60v142h60v170h198v-170h78v-142z" />
    <glyph glyph-name="Utilde" unicode="&#x168;" horiz-adv-x="690" 
d="M256 720v-449c0 -94 35 -117 93 -117s93 23 93 117v449h194v-449c0 -207 -105 -283 -295 -283c-186 0 -287 74 -287 276v456h202zM244 754h-110c0 118 55 162 126 162s126 -38 155 -38c23 0 31 10 31 32h110c0 -118 -55 -162 -126 -162s-126 38 -155 38
c-23 0 -31 -10 -31 -32z" />
    <glyph glyph-name="utilde" unicode="&#x169;" horiz-adv-x="582" 
d="M528 0h-198v53c-51 -47 -101 -65 -157 -65c-77 0 -133 34 -133 142v380h198v-321c0 -31 10 -41 31 -41c18 0 37 7 61 25v337h198v-510zM182 550h-108c0 122 55 170 125 170c72 0 123 -52 157 -52c21 0 30 20 30 46h108c0 -122 -55 -170 -125 -170c-72 0 -123 52 -157 52
c-21 0 -30 -20 -30 -46z" />
    <glyph glyph-name="Umacron" unicode="&#x16a;" horiz-adv-x="690" 
d="M256 720v-449c0 -94 35 -117 93 -117s93 23 93 117v449h194v-449c0 -207 -105 -283 -295 -283c-186 0 -287 74 -287 276v456h202zM154 760v122h382v-122h-382z" />
    <glyph glyph-name="umacron" unicode="&#x16b;" horiz-adv-x="582" 
d="M528 0h-198v53c-51 -47 -101 -65 -157 -65c-77 0 -133 34 -133 142v380h198v-321c0 -31 10 -41 31 -41c18 0 37 7 61 25v337h198v-510zM94 550v122h380v-122h-380z" />
    <glyph glyph-name="Ubreve" unicode="&#x16c;" horiz-adv-x="690" 
d="M256 720v-449c0 -94 35 -117 93 -117s93 23 93 117v449h194v-449c0 -207 -105 -283 -295 -283c-186 0 -287 74 -287 276v456h202zM346 754c-141 0 -197 58 -197 156h106c6 -25 29 -42 91 -42s85 17 91 42h106c0 -98 -56 -156 -197 -156z" />
    <glyph glyph-name="ubreve" unicode="&#x16d;" horiz-adv-x="582" 
d="M528 0h-198v53c-51 -47 -101 -65 -157 -65c-77 0 -133 34 -133 142v380h198v-321c0 -31 10 -41 31 -41c18 0 37 7 61 25v337h198v-510zM284 550c-141 0 -196 66 -196 170h104c6 -34 29 -56 92 -56s86 22 92 56h104c0 -104 -55 -170 -196 -170z" />
    <glyph glyph-name="Uring" unicode="&#x16e;" horiz-adv-x="690" 
d="M256 720v-449c0 -94 35 -117 93 -117s93 23 93 117v449h194v-449c0 -207 -105 -283 -295 -283c-186 0 -287 74 -287 276v456h202zM307 859c0 -21 15 -39 38 -39s38 18 38 39s-15 39 -38 39s-38 -18 -38 -39zM231 859c0 62 48 111 114 111s114 -49 114 -111
s-48 -111 -114 -111s-114 49 -114 111z" />
    <glyph glyph-name="uring" unicode="&#x16f;" horiz-adv-x="582" 
d="M528 0h-198v53c-51 -47 -101 -65 -157 -65c-77 0 -133 34 -133 142v380h198v-321c0 -31 10 -41 31 -41c18 0 37 7 61 25v337h198v-510zM245 655c0 -21 15 -39 39 -39s39 18 39 39s-15 39 -39 39s-39 -18 -39 -39zM171 655c0 62 48 111 113 111s113 -49 113 -111
s-48 -111 -113 -111s-113 49 -113 111z" />
    <glyph glyph-name="Uhungarumlaut" unicode="&#x170;" horiz-adv-x="690" 
d="M256 720v-449c0 -94 35 -117 93 -117s93 23 93 117v449h194v-449c0 -207 -105 -283 -295 -283c-186 0 -287 74 -287 276v456h202zM107 754l92 156h214l-152 -156h-154zM339 754l112 156h214l-172 -156h-154z" />
    <glyph glyph-name="uhungarumlaut" unicode="&#x171;" horiz-adv-x="582" 
d="M528 0h-198v53c-51 -47 -101 -65 -157 -65c-77 0 -133 34 -133 142v380h198v-321c0 -31 10 -41 31 -41c18 0 37 7 61 25v337h198v-510zM52 544l92 176h212l-152 -176h-152zM282 544l112 176h212l-172 -176h-152z" />
    <glyph glyph-name="Uogonek" unicode="&#x172;" horiz-adv-x="690" 
d="M256 720v-449c0 -94 35 -117 93 -117s93 23 93 117v449h194v-449c0 -159 -62 -241 -176 -270c-59 -32 -79 -62 -79 -90c0 -23 14 -29 36 -29c9 0 18 1 30 4l21 -95c-23 -6 -54 -9 -80 -9c-92 0 -146 37 -146 104c0 42 22 76 65 103c-164 9 -253 85 -253 275v456h202z" />
    <glyph glyph-name="uogonek" unicode="&#x173;" horiz-adv-x="582" 
d="M528 510v-510h-60c-62 -31 -87 -60 -87 -90c0 -22 14 -29 36 -29c9 0 18 1 30 4l21 -94c-23 -6 -53 -9 -79 -9c-90 0 -145 37 -145 103c0 44 24 85 86 115v53c-51 -47 -101 -65 -157 -65c-77 0 -133 34 -133 142v380h198v-321c0 -31 10 -41 31 -41c18 0 37 7 61 25v337
h198z" />
    <glyph glyph-name="Wcircumflex" unicode="&#x174;" horiz-adv-x="962" 
d="M579 720l59 -276c12 -56 21 -120 25 -171h3c4 50 11 111 24 173l57 274h201l-175 -720h-196l-64 293c-21 96 -24 113 -31 164h-2c-7 -52 -19 -107 -32 -165l-66 -292h-196l-172 720h209l57 -274c15 -72 21 -127 25 -173h3c4 51 13 118 25 174l58 273h188zM412 754h-140
l132 156h154l132 -156h-140l-69 41z" />
    <glyph glyph-name="wcircumflex" unicode="&#x175;" horiz-adv-x="736" 
d="M306 0h-186l-128 510h186l37 -168c8 -37 13 -77 16 -110h2c2 32 9 82 16 111l39 167h168l40 -169c8 -34 14 -78 16 -109h2c2 32 7 75 15 110l37 168h178l-131 -510h-186l-40 173c-6 26 -14 65 -18 98h-2c-4 -31 -11 -64 -19 -99zM298 544h-138l132 176h152l132 -176h-138
l-70 61z" />
    <glyph glyph-name="Ycircumflex" unicode="&#x176;" horiz-adv-x="668" 
d="M234 0v282l-232 438h209l127 -252l127 252h201l-232 -438v-282h-200zM265 754h-140l132 156h154l132 -156h-140l-69 41z" />
    <glyph glyph-name="ycircumflex" unicode="&#x177;" horiz-adv-x="510" 
d="M27 -212v154c17 -3 37 -6 58 -6c51 0 78 16 97 76h-50l-144 498h200l70 -321l72 321h192l-150 -498c-53 -176 -118 -228 -270 -228c-21 0 -58 1 -75 4zM185 544h-138l132 176h152l132 -176h-138l-70 61z" />
    <glyph glyph-name="Ydieresis" unicode="&#x178;" horiz-adv-x="668" 
d="M234 0v282l-232 438h209l127 -252l127 252h201l-232 -438v-282h-200zM131 842c0 50 38 88 91 88s91 -38 91 -88s-38 -88 -91 -88s-91 38 -91 88zM355 842c0 50 38 88 91 88s91 -38 91 -88s-38 -88 -91 -88s-91 38 -91 88z" />
    <glyph glyph-name="Zacute" unicode="&#x179;" horiz-adv-x="622" 
d="M24 0v136l299 418h-280v166h545v-142l-299 -418h299v-160h-564zM197 754l92 156h214l-152 -156h-154z" />
    <glyph glyph-name="zacute" unicode="&#x17a;" horiz-adv-x="504" 
d="M18 0v122l215 246h-201v142h444v-118l-216 -246h216v-146h-458zM139 544l92 176h212l-152 -176h-152z" />
    <glyph glyph-name="Zdotaccent" unicode="&#x17b;" horiz-adv-x="622" 
d="M24 0v136l299 418h-280v166h545v-142l-299 -418h299v-160h-564zM199 848c0 58 42 100 110 100s110 -42 110 -100s-42 -100 -110 -100s-110 42 -110 100z" />
    <glyph glyph-name="zdotaccent" unicode="&#x17c;" horiz-adv-x="504" 
d="M18 0v122l215 246h-201v142h444v-118l-216 -246h216v-146h-458zM360 644c0 -58 -42 -100 -109 -100s-109 42 -109 100s42 100 109 100s109 -42 109 -100z" />
    <glyph glyph-name="Zcaron" unicode="&#x17d;" horiz-adv-x="622" 
d="M24 0v136l299 418h-280v166h545v-142l-299 -418h299v-160h-564zM519 910l-132 -156h-154l-132 156h140l69 -41l69 41h140z" />
    <glyph glyph-name="zcaron" unicode="&#x17e;" horiz-adv-x="504" 
d="M18 0v122l215 246h-201v142h444v-118l-216 -246h216v-146h-458zM321 720h138l-132 -176h-152l-132 176h138l70 -62z" />
    <glyph glyph-name="longs" unicode="&#x17f;" horiz-adv-x="350" 
d="M12 368v142h60v30c0 132 57 186 201 186c25 0 46 -1 65 -3v-140c-12 2 -20 3 -29 3c-31 0 -39 -13 -39 -46v-540h-198v368h-60z" />
    <glyph glyph-name="uni018F" unicode="&#x18f;" horiz-adv-x="702" 
d="M343 146c61 0 109 42 124 140h-236c11 -105 55 -140 112 -140zM321 732c213 0 351 -126 351 -369s-138 -375 -334 -375c-188 0 -308 122 -308 371c0 32 2 52 4 71h431c-19 103 -83 136 -165 136c-66 0 -131 -21 -193 -55l-42 162c70 36 165 59 256 59z" />
    <glyph glyph-name="florin" unicode="&#x192;" horiz-adv-x="478" 
d="M458 730v-142c-12 3 -27 4 -38 4c-49 0 -61 -18 -66 -63l-12 -116h116v-114h-128l-31 -299h-194l31 299h-110v114h122l12 116c15 144 81 203 241 203c21 0 45 -1 57 -2z" />
    <glyph glyph-name="uni01B5" unicode="&#x1b5;" horiz-adv-x="622" 
d="M72 299v122h156l95 133h-280v166h545v-142l-113 -157h87v-122h-174l-99 -139h299v-160h-564v136l116 163h-68z" />
    <glyph glyph-name="uni01B6" unicode="&#x1b6;" horiz-adv-x="504" 
d="M47 195v122h142l44 51h-201v142h444v-118l-66 -75h47v-122h-154l-43 -49h216v-146h-458v122l64 73h-35z" />
    <glyph glyph-name="Aringacute" unicode="&#x1fa;" horiz-adv-x="704" 
d="M228 739c0 62 53 111 127 111c73 0 127 -49 127 -111c0 -11 -2 -21 -5 -31l217 -708h-209l-32 121h-211l-31 -121h-201l223 708c-3 10 -5 20 -5 31zM348 532l-69 -265h137zM312 739c0 -21 17 -39 43 -39c25 0 42 18 42 39s-17 39 -42 39c-26 0 -43 -18 -43 -39zM239 866
l92 109h214l-152 -109h-154z" />
    <glyph glyph-name="aringacute" unicode="&#x1fb;" horiz-adv-x="536" 
d="M165 770l92 123h212l-152 -123h-152zM274 522c135 0 222 -45 222 -198v-208c0 -87 5 -106 10 -116h-186c-6 7 -11 17 -14 48c-41 -37 -80 -60 -136 -60c-88 0 -146 59 -146 161c0 109 66 173 225 173c20 0 38 -1 54 -3c-3 39 -29 53 -73 53c-45 0 -92 -14 -146 -33
l-34 143c64 22 139 40 224 40zM252 128c15 0 34 6 52 16v70c-9 1 -18 2 -29 2c-43 0 -59 -14 -59 -46c0 -31 15 -42 36 -42zM238 643c0 -21 15 -39 39 -39s39 18 39 39s-15 39 -39 39s-39 -18 -39 -39zM164 643c0 62 48 111 113 111s113 -49 113 -111s-48 -111 -113 -111
s-113 49 -113 111z" />
    <glyph glyph-name="AEacute" unicode="&#x1fc;" horiz-adv-x="953" 
d="M10 0l353 720h556v-166h-256v-116h216v-156h-216v-122h260v-160h-460v121h-189l-52 -121h-212zM337 267h126v291zM523 754l92 156h214l-152 -156h-154z" />
    <glyph glyph-name="aeacute" unicode="&#x1fd;" horiz-adv-x="824" 
d="M596 126c49 0 93 12 151 33l34 -132c-54 -22 -135 -39 -210 -39c-87 0 -156 23 -204 68c-44 -39 -108 -68 -178 -68c-98 0 -165 57 -165 163c0 107 69 171 224 171c20 0 39 -1 55 -3c-3 39 -29 53 -73 53c-45 0 -92 -14 -146 -33l-34 143c64 22 139 40 224 40
c59 0 113 -9 150 -32c40 21 87 32 139 32c142 0 232 -82 232 -251c0 -25 -2 -54 -5 -77h-289c15 -60 55 -68 95 -68zM251 128c15 0 35 6 59 22c-6 20 -10 41 -12 65c-7 1 -14 1 -22 1c-46 0 -60 -15 -60 -46s15 -42 35 -42zM559 389c-33 0 -57 -25 -62 -85h116
c0 62 -22 85 -54 85zM299 544l92 176h212l-152 -176h-152z" />
    <glyph glyph-name="Oslashacute" unicode="&#x1fe;" horiz-adv-x="726" 
d="M696 362c0 -244 -142 -374 -335 -374c-82 0 -155 23 -211 69l-66 -69l-81 76l76 79c-32 57 -49 129 -49 214c0 245 142 375 335 375c82 0 154 -24 210 -70l67 70l81 -76l-76 -80c31 -56 49 -128 49 -214zM224 356c0 -21 1 -40 3 -58l226 236c-25 27 -56 38 -90 38
c-76 0 -139 -53 -139 -216zM502 353c0 28 -2 49 -4 68l-228 -239c24 -29 57 -40 92 -40c77 0 140 54 140 211zM250 754l92 156h214l-152 -156h-154z" />
    <glyph glyph-name="oslashacute" unicode="&#x1ff;" horiz-adv-x="564" 
d="M540 257c0 -184 -118 -269 -260 -269c-54 0 -103 12 -145 37l-53 -59l-68 60l55 61c-28 42 -45 97 -45 166c0 184 118 269 260 269c53 0 103 -12 144 -37l53 59l69 -60l-56 -62c29 -41 46 -96 46 -165zM210 252v-9l116 129c-12 14 -28 20 -44 20c-40 0 -72 -34 -72 -140z
M354 252v15l-119 -131c12 -17 29 -24 47 -24c40 0 72 34 72 140zM170 544l92 176h212l-152 -176h-152z" />
    <glyph glyph-name="Scommaaccent" unicode="&#x218;" horiz-adv-x="586" 
d="M30 40l44 162c63 -31 126 -56 188 -56c61 0 94 25 94 60c0 107 -308 44 -308 288c0 147 112 238 276 238c79 0 152 -21 210 -52l-44 -170c-50 31 -110 56 -163 56c-50 0 -79 -23 -79 -54c0 -101 308 -38 308 -282c0 -150 -116 -242 -291 -242c-77 0 -165 18 -235 52z
M196 -112c0 51 42 80 95 80c60 0 105 -36 105 -107c0 -50 -22 -121 -161 -170l-52 72c42 17 68 34 83 51c-43 6 -70 34 -70 74z" />
    <glyph glyph-name="scommaaccent" unicode="&#x219;" horiz-adv-x="476" 
d="M24 27l34 142c49 -23 104 -43 151 -43c37 0 53 13 53 28c0 54 -218 10 -218 188c0 113 88 180 222 180c65 0 124 -16 170 -37l-34 -148c-40 23 -92 41 -130 41c-27 0 -38 -9 -38 -22c0 -54 218 -3 218 -183c0 -117 -92 -185 -236 -185c-68 0 -139 15 -192 39zM141 -112
c0 51 42 80 95 80c60 0 105 -36 105 -107c0 -50 -22 -121 -161 -170l-52 72c42 17 68 34 83 51c-43 6 -70 34 -70 74z" />
    <glyph glyph-name="uni021A" unicode="&#x21a;" horiz-adv-x="592" 
d="M196 0v554h-182v166h564v-166h-182v-554h-200zM198 -112c0 51 42 80 95 80c60 0 105 -36 105 -107c0 -50 -22 -121 -161 -170l-52 72c42 17 68 34 83 51c-43 6 -70 34 -70 74z" />
    <glyph glyph-name="uni021B" unicode="&#x21b;" horiz-adv-x="372" 
d="M12 368v142h60v170h198v-170h78v-142h-78v-185c0 -31 10 -41 35 -41c14 0 30 3 43 6v-146c-31 -4 -67 -8 -109 -8c-123 0 -167 35 -167 158v216h-60zM111 -112c0 51 42 80 95 80c60 0 105 -36 105 -107c0 -50 -22 -121 -161 -170l-52 72c42 17 68 34 83 51
c-43 6 -70 34 -70 74z" />
    <glyph glyph-name="uni0237" unicode="&#x237;" horiz-adv-x="318" 
d="M-8 -213v140c12 -2 20 -3 29 -3c31 0 39 13 39 46v540h198v-540c0 -133 -57 -186 -205 -186c-20 0 -42 1 -61 3z" />
    <glyph glyph-name="uni0259" unicode="&#x259;" horiz-adv-x="550" 
d="M265 119c31 0 53 20 60 81h-114c4 -61 22 -81 54 -81zM33 310h288c-14 62 -52 68 -87 68c-51 0 -90 -12 -146 -33l-34 138c51 22 131 39 204 39c167 0 268 -88 268 -260c0 -182 -112 -274 -263 -274c-141 0 -235 81 -235 251c0 25 2 48 5 71z" />
    <glyph glyph-name="uni02BB" unicode="&#x2bb;" horiz-adv-x="294" 
d="M277 654c-66 -38 -98 -77 -113 -114c56 -6 92 -47 92 -101c0 -58 -42 -102 -109 -102c-75 0 -127 54 -127 149c0 82 39 168 175 246z" />
    <glyph glyph-name="afii57929" unicode="&#x2bc;" horiz-adv-x="294" 
d="M17 415c66 38 98 77 113 114c-56 6 -92 47 -92 101c0 58 42 102 109 102c75 0 127 -54 127 -149c0 -82 -39 -168 -175 -246z" />
    <glyph glyph-name="circumflex" unicode="&#x2c6;" horiz-adv-x="500" 
d="M180 544h-138l132 176h152l132 -176h-138l-70 61z" />
    <glyph glyph-name="caron" unicode="&#x2c7;" horiz-adv-x="500" 
d="M320 720h138l-132 -176h-152l-132 176h138l70 -62z" />
    <glyph glyph-name="breve" unicode="&#x2d8;" horiz-adv-x="500" 
d="M250 550c-141 0 -196 66 -196 170h104c6 -34 29 -56 92 -56s86 22 92 56h104c0 -104 -55 -170 -196 -170z" />
    <glyph glyph-name="dotaccent" unicode="&#x2d9;" horiz-adv-x="500" 
d="M141 644c0 58 42 100 109 100s109 -42 109 -100s-42 -100 -109 -100s-109 42 -109 100z" />
    <glyph glyph-name="ring" unicode="&#x2da;" horiz-adv-x="500" 
d="M211 655c0 -21 15 -39 39 -39s39 18 39 39s-15 39 -39 39s-39 -18 -39 -39zM137 655c0 62 48 111 113 111s113 -49 113 -111s-48 -111 -113 -111s-113 49 -113 111z" />
    <glyph glyph-name="ogonek" unicode="&#x2db;" horiz-adv-x="500" 
d="M224 0h138c-62 -31 -87 -60 -87 -90c0 -22 14 -29 36 -29c9 0 18 1 30 4l21 -94c-23 -6 -53 -9 -79 -9c-90 0 -145 37 -145 103c0 44 24 85 86 115z" />
    <glyph glyph-name="tilde" unicode="&#x2dc;" horiz-adv-x="500" 
d="M148 550h-108c0 122 55 170 125 170c72 0 123 -52 157 -52c21 0 30 20 30 46h108c0 -122 -55 -170 -125 -170c-72 0 -123 52 -157 52c-21 0 -30 -20 -30 -46z" />
    <glyph glyph-name="hungarumlaut" unicode="&#x2dd;" horiz-adv-x="500" 
d="M14 544l92 176h212l-152 -176h-152zM244 544l112 176h212l-172 -176h-152z" />
    <glyph glyph-name="gravecomb" unicode="&#x300;" horiz-adv-x="1" 
d="M-261 720l92 -176h-152l-152 176h212z" />
    <glyph glyph-name="acutecomb" unicode="&#x301;" horiz-adv-x="1" 
d="M-393 544l92 176h212l-152 -176h-152z" />
    <glyph glyph-name="uni0302" unicode="&#x302;" horiz-adv-x="1" 
d="M-351 544h-138l132 176h152l132 -176h-138l-70 61z" />
    <glyph glyph-name="tildecomb" unicode="&#x303;" horiz-adv-x="1" 
d="M-383 550h-108c0 122 55 170 125 170c72 0 123 -52 157 -52c21 0 30 20 30 46h108c0 -122 -55 -170 -125 -170c-72 0 -123 52 -157 52c-21 0 -30 -20 -30 -46z" />
    <glyph glyph-name="uni0304" unicode="&#x304;" horiz-adv-x="1" 
d="M-439 550v122h380v-122h-380z" />
    <glyph glyph-name="uni0306" unicode="&#x306;" horiz-adv-x="1" 
d="M-249 550c-141 0 -196 66 -196 170h104c6 -34 29 -56 92 -56s86 22 92 56h104c0 -104 -55 -170 -196 -170z" />
    <glyph glyph-name="uni0307" unicode="&#x307;" horiz-adv-x="1" 
d="M-49 644c0 -58 -42 -100 -109 -100s-109 42 -109 100s42 100 109 100s109 -42 109 -100z" />
    <glyph glyph-name="uni0308" unicode="&#x308;" horiz-adv-x="1" 
d="M-451 632c0 50 38 88 90 88s90 -38 90 -88s-38 -88 -90 -88s-90 38 -90 88zM-227 632c0 50 38 88 90 88s90 -38 90 -88s-38 -88 -90 -88s-90 38 -90 88z" />
    <glyph glyph-name="uni030A" unicode="&#x30a;" horiz-adv-x="1" 
d="M-288 655c0 -21 15 -39 39 -39s39 18 39 39s-15 39 -39 39s-39 -18 -39 -39zM-362 655c0 62 48 111 113 111s113 -49 113 -111s-48 -111 -113 -111s-113 49 -113 111z" />
    <glyph glyph-name="uni030B" unicode="&#x30b;" horiz-adv-x="1" 
d="M-485 544l92 176h212l-152 -176h-152zM-255 544l112 176h212l-172 -176h-152z" />
    <glyph glyph-name="uni030C" unicode="&#x30c;" horiz-adv-x="1" 
d="M-182 720h138l-132 -176h-152l-132 176h138l70 -62z" />
    <glyph glyph-name="uni0312" unicode="&#x312;" horiz-adv-x="1" 
d="M-70 624c0 -51 -42 -80 -95 -80c-60 0 -105 36 -105 107c0 50 22 121 161 170l52 -72c-42 -17 -68 -34 -83 -51c43 -6 70 -34 70 -74z" />
    <glyph glyph-name="uni0313" unicode="&#x313;" horiz-adv-x="1" 
d="M-142 528h-128l33 192h175z" />
    <glyph glyph-name="uni0326" unicode="&#x326;" horiz-adv-x="1" 
d="M-245 -112c0 51 42 80 95 80c60 0 105 -36 105 -107c0 -50 -22 -121 -161 -170l-52 72c42 17 68 34 83 51c-43 6 -70 34 -70 74z" />
    <glyph glyph-name="uni0327" unicode="&#x327;" horiz-adv-x="1" 
d="M103 -188l22 93c28 -16 57 -26 89 -26c27 0 44 7 44 27c0 17 -12 33 -80 42l14 64c141 0 203 -40 203 -114c0 -77 -66 -116 -162 -116c-60 0 -100 15 -130 30z" />
    <glyph glyph-name="uni0328" unicode="&#x328;" horiz-adv-x="1" 
d="M224 0h138c-62 -31 -87 -60 -87 -90c0 -22 14 -29 36 -29c9 0 18 1 30 4l21 -94c-23 -6 -53 -9 -79 -9c-90 0 -145 37 -145 103c0 44 24 85 86 115z" />
    <glyph glyph-name="uni0335" unicode="&#x335;" horiz-adv-x="1" 
d="M30 230v163h440v-163h-440z" />
    <glyph glyph-name="uni0336" unicode="&#x336;" horiz-adv-x="1" 
d="M30 230v163h940v-163h-940z" />
    <glyph glyph-name="uni037E" unicode="&#x37e;" horiz-adv-x="310" 
d="M17 -109c66 38 98 77 113 114c-56 6 -92 47 -92 101c0 58 42 102 109 102c75 0 127 -54 127 -149c0 -82 -39 -168 -175 -246zM38 395c0 62 47 110 115 110s115 -48 115 -110s-47 -110 -115 -110s-115 48 -115 110z" />
    <glyph glyph-name="tonos" unicode="&#x384;" horiz-adv-x="500" 
d="M308 544h-148l52 176h208z" />
    <glyph glyph-name="dieresistonos" unicode="&#x385;" horiz-adv-x="500" 
d="M326 720h-152l36 136h200zM48 622c0 50 38 88 90 88s90 -38 90 -88s-38 -88 -90 -88s-90 38 -90 88zM272 622c0 50 38 88 90 88s90 -38 90 -88s-38 -88 -90 -88s-90 38 -90 88z" />
    <glyph glyph-name="Alphatonos" unicode="&#x386;" horiz-adv-x="704" 
d="M474 720l220 -720h-209l-32 121h-211l-31 -121h-201l226 720h238zM348 532l-69 -265h137zM95 544h-148l52 176h208z" />
    <glyph glyph-name="anoteleia" unicode="&#x387;" horiz-adv-x="310" 
d="M40 257c0 62 47 110 115 110s115 -48 115 -110s-47 -110 -115 -110s-115 48 -115 110z" />
    <glyph glyph-name="Epsilontonos" unicode="&#x388;" horiz-adv-x="740" 
d="M220 0v720h486v-166h-286v-116h246v-156h-246v-122h290v-160h-490zM95 544h-148l52 176h208z" />
    <glyph glyph-name="Etatonos" unicode="&#x389;" horiz-adv-x="882" 
d="M220 0v720h200v-272h192v272h200v-720h-200v282h-192v-282h-200zM95 544h-148l52 176h208z" />
    <glyph glyph-name="Iotatonos" unicode="&#x38a;" horiz-adv-x="494" 
d="M220 0v720h200v-720h-200zM95 544h-148l52 176h208z" />
    <glyph glyph-name="Omicrontonos" unicode="&#x38c;" horiz-adv-x="826" 
d="M330 357c0 -157 60 -209 133 -209s133 52 133 209s-60 209 -133 209s-133 -52 -133 -209zM130 358c0 244 142 374 335 374c191 0 331 -128 331 -370c0 -244 -142 -374 -335 -374c-191 0 -331 128 -331 370zM95 544h-148l52 176h208z" />
    <glyph glyph-name="Upsilontonos" unicode="&#x38e;" horiz-adv-x="874" 
d="M440 0v282l-232 438h209l127 -252l127 252h201l-232 -438v-282h-200zM85 544h-148l52 176h208z" />
    <glyph glyph-name="Omegatonos" unicode="&#x38f;" horiz-adv-x="826" 
d="M463 567c-73 0 -133 -45 -133 -179c0 -99 32 -163 89 -252v-136h-319v160h131c-66 63 -101 149 -101 248c0 198 142 324 335 324c191 0 331 -124 331 -320c0 -100 -36 -190 -101 -252h131v-160h-319v136c57 89 89 153 89 252c0 134 -60 179 -133 179zM95 544h-148l52 176
h208z" />
    <glyph glyph-name="iotadieresistonos" unicode="&#x390;" horiz-adv-x="340" 
d="M258 510v-322c0 -43 14 -54 37 -54c13 0 30 3 43 6v-137c-28 -7 -66 -9 -93 -9c-123 0 -185 43 -185 170v346h198zM233 720h-152l36 136h200zM-45 622c0 50 38 88 90 88s90 -38 90 -88s-38 -88 -90 -88s-90 38 -90 88zM179 622c0 50 38 88 90 88s90 -38 90 -88
s-38 -88 -90 -88s-90 38 -90 88z" />
    <glyph glyph-name="Alpha" unicode="&#x391;" horiz-adv-x="704" 
d="M474 720l220 -720h-209l-32 121h-211l-31 -121h-201l226 720h238zM348 532l-69 -265h137z" />
    <glyph glyph-name="Beta" unicode="&#x392;" horiz-adv-x="684" 
d="M70 0v720h277c166 0 265 -64 265 -194c0 -74 -32 -129 -101 -159c91 -28 131 -90 131 -171c0 -122 -91 -196 -281 -196h-291zM266 148h95c60 0 85 22 85 71s-25 71 -85 71h-95v-142zM266 430h69c57 0 81 21 81 68s-24 68 -81 68h-69v-136z" />
    <glyph glyph-name="Gamma" unicode="&#x393;" horiz-adv-x="544" 
d="M70 0v720h460v-166h-260v-554h-200z" />
    <glyph glyph-name="uni0394" unicode="&#x394;" horiz-adv-x="704" 
d="M474 720l178 -584v-136h-600v136l184 584h238zM348 532l-96 -372h192z" />
    <glyph glyph-name="Epsilon" unicode="&#x395;" horiz-adv-x="590" 
d="M70 0v720h486v-166h-286v-116h246v-156h-246v-122h290v-160h-490z" />
    <glyph glyph-name="Zeta" unicode="&#x396;" horiz-adv-x="622" 
d="M24 0v136l299 418h-280v166h545v-142l-299 -418h299v-160h-564z" />
    <glyph glyph-name="Eta" unicode="&#x397;" horiz-adv-x="732" 
d="M70 0v720h200v-272h192v272h200v-720h-200v282h-192v-282h-200z" />
    <glyph glyph-name="Theta" unicode="&#x398;" horiz-adv-x="726" 
d="M696 362c0 -244 -142 -374 -335 -374c-191 0 -331 128 -331 370c0 244 142 374 335 374c191 0 331 -128 331 -370zM363 148c63 0 116 35 133 134h-266c17 -99 70 -134 133 -134zM363 566c-61 0 -114 -34 -132 -128h264c-18 94 -71 128 -132 128z" />
    <glyph glyph-name="Iota" unicode="&#x399;" horiz-adv-x="348" 
d="M74 0v720h200v-720h-200z" />
    <glyph glyph-name="Kappa" unicode="&#x39a;" horiz-adv-x="698" 
d="M70 0v720h200v-258l174 258h228l-210 -271l226 -449h-219l-136 282l-63 -82v-200h-200z" />
    <glyph glyph-name="Lambda" unicode="&#x39b;" horiz-adv-x="674" 
d="M444 720l220 -720h-201l-130 467l-130 -467h-193l226 720h208z" />
    <glyph glyph-name="Mu" unicode="&#x39c;" horiz-adv-x="986" 
d="M126 720h255l82 -335c1 -5 7 -17 30 -133h2c10 53 18 85 31 134l87 334h251l58 -720h-201l-14 330c-2 45 -2 105 -2 134h-2c-5 -29 -21 -93 -33 -136l-92 -328h-178l-92 328c-7 25 -30 114 -33 136h-2c0 -29 0 -89 -2 -134l-14 -330h-193z" />
    <glyph glyph-name="Nu" unicode="&#x39d;" horiz-adv-x="740" 
d="M70 0v720h208l208 -354v354h184v-720h-168l-248 419v-419h-184z" />
    <glyph glyph-name="Xi" unicode="&#x39e;" horiz-adv-x="528" 
d="M14 0v166h500v-166h-500zM58 278v160h412v-160h-412zM18 554v166h492v-166h-492z" />
    <glyph glyph-name="Omicron" unicode="&#x39f;" horiz-adv-x="718" 
d="M230 357c0 -157 60 -209 133 -209s133 52 133 209s-60 209 -133 209s-133 -52 -133 -209zM30 358c0 244 142 374 335 374c191 0 331 -128 331 -370c0 -244 -142 -374 -335 -374c-191 0 -331 128 -331 370z" />
    <glyph glyph-name="Pi" unicode="&#x3a0;" horiz-adv-x="732" 
d="M70 0v720h592v-720h-200v554h-192v-554h-200z" />
    <glyph glyph-name="Rho" unicode="&#x3a1;" horiz-adv-x="658" 
d="M70 0v720h281c177 0 283 -81 283 -243s-112 -243 -298 -243h-68v-234h-198zM268 558v-168h68c70 0 100 26 100 84s-30 84 -100 84h-68z" />
    <glyph glyph-name="Sigma" unicode="&#x3a3;" horiz-adv-x="574" 
d="M24 0v136l190 221l-171 221v142h513v-166h-240l148 -191l-175 -203h271v-160h-536z" />
    <glyph glyph-name="Tau" unicode="&#x3a4;" horiz-adv-x="592" 
d="M196 0v554h-182v166h564v-166h-182v-554h-200z" />
    <glyph glyph-name="Upsilon" unicode="&#x3a5;" horiz-adv-x="668" 
d="M234 0v282l-232 438h209l127 -252l127 252h201l-232 -438v-282h-200z" />
    <glyph glyph-name="Phi" unicode="&#x3a6;" horiz-adv-x="854" 
d="M331 -12v88c-180 24 -301 120 -301 282c0 163 121 260 301 285v89h192v-88c179 -24 301 -120 301 -282c0 -163 -122 -261 -301 -286v-88h-192zM222 356c0 -84 44 -127 109 -145v289c-65 -18 -109 -61 -109 -144zM632 356c0 83 -45 126 -109 144v-289
c64 18 109 61 109 145z" />
    <glyph glyph-name="Chi" unicode="&#x3a7;" horiz-adv-x="714" 
d="M675 720l-194 -348l201 -372h-219l-110 233l-110 -233h-211l201 372l-194 348h217l105 -211l105 211h209z" />
    <glyph glyph-name="Psi" unicode="&#x3a8;" horiz-adv-x="840" 
d="M324 0v234c-190 21 -294 111 -294 295v191h194v-184c0 -84 36 -126 100 -144v328h192v-330c69 16 108 58 108 146v184h186v-184c0 -190 -105 -279 -294 -301v-235h-192z" />
    <glyph glyph-name="uni03A9" unicode="&#x3a9;" horiz-adv-x="726" 
d="M363 567c-73 0 -133 -45 -133 -179c0 -99 32 -163 89 -252v-136h-319v160h131c-66 63 -101 149 -101 248c0 198 142 324 335 324c191 0 331 -124 331 -320c0 -100 -36 -190 -101 -252h131v-160h-319v136c57 89 89 153 89 252c0 134 -60 179 -133 179z" />
    <glyph glyph-name="Iotadieresis" unicode="&#x3aa;" horiz-adv-x="348" 
d="M74 0v720h200v-720h-200zM-29 842c0 50 38 88 91 88s91 -38 91 -88s-38 -88 -91 -88s-91 38 -91 88zM195 842c0 50 38 88 91 88s91 -38 91 -88s-38 -88 -91 -88s-91 38 -91 88z" />
    <glyph glyph-name="Upsilondieresis" unicode="&#x3ab;" horiz-adv-x="668" 
d="M234 0v282l-232 438h209l127 -252l127 252h201l-232 -438v-282h-200zM131 842c0 50 38 88 91 88s91 -38 91 -88s-38 -88 -91 -88s-91 38 -91 88zM355 842c0 50 38 88 91 88s91 -38 91 -88s-38 -88 -91 -88s-91 38 -91 88z" />
    <glyph glyph-name="alphatonos" unicode="&#x3ac;" horiz-adv-x="680" 
d="M479 510h183c-48 -102 -94 -185 -131 -252l119 -258h-191l-37 101c-62 -92 -118 -113 -182 -113c-127 0 -216 84 -216 247c0 184 113 287 245 287c71 0 121 -30 171 -115zM272 135c27 0 48 23 90 105c-36 93 -54 123 -81 123c-40 0 -59 -64 -59 -129c0 -43 8 -99 50 -99z
M378 544h-148l52 176h208z" />
    <glyph glyph-name="epsilontonos" unicode="&#x3ad;" horiz-adv-x="478" 
d="M460 489l-34 -148c-40 21 -92 37 -135 37c-32 0 -53 -9 -53 -31c0 -23 22 -32 52 -32h83v-126h-77c-43 0 -74 -8 -74 -32c0 -23 29 -31 68 -31c53 0 95 15 140 33l34 -134c-54 -21 -124 -37 -206 -37c-141 0 -234 47 -234 137c0 51 29 94 94 116c-54 26 -78 65 -78 117
c0 99 88 164 239 164c70 0 132 -14 181 -33zM332 544h-148l52 176h208z" />
    <glyph glyph-name="etatonos" unicode="&#x3ae;" horiz-adv-x="582" 
d="M54 0v510h198v-54c44 43 95 66 158 66c76 0 132 -34 132 -142v-590h-198v525c0 31 -10 41 -31 41c-19 0 -38 -8 -61 -26v-330h-198zM356 544h-148l52 176h208z" />
    <glyph glyph-name="iotatonos" unicode="&#x3af;" horiz-adv-x="340" 
d="M258 510v-322c0 -43 14 -54 37 -54c13 0 30 3 43 6v-137c-28 -7 -66 -9 -93 -9c-123 0 -185 43 -185 170v346h198zM215 544h-148l52 176h208z" />
    <glyph glyph-name="upsilondieresistonos" unicode="&#x3b0;" horiz-adv-x="574" 
d="M508 510c29 -66 40 -147 40 -224c0 -221 -91 -298 -262 -298c-152 0 -238 61 -238 223v299h198v-299c0 -61 17 -76 44 -76c37 0 60 29 60 148c0 82 -11 161 -40 227h198zM364 720h-152l36 136h200zM86 622c0 50 38 88 90 88s90 -38 90 -88s-38 -88 -90 -88s-90 38 -90 88
zM310 622c0 50 38 88 90 88s90 -38 90 -88s-38 -88 -90 -88s-90 38 -90 88z" />
    <glyph glyph-name="alpha" unicode="&#x3b1;" horiz-adv-x="680" 
d="M479 510h183c-48 -102 -94 -185 -131 -252l119 -258h-191l-37 101c-62 -92 -118 -113 -182 -113c-127 0 -216 84 -216 247c0 184 113 287 245 287c71 0 121 -30 171 -115zM272 135c27 0 48 23 90 105c-36 93 -54 123 -81 123c-40 0 -59 -64 -59 -129c0 -43 8 -99 50 -99z
" />
    <glyph glyph-name="beta" unicode="&#x3b2;" horiz-adv-x="640" 
d="M392 -12c-56 0 -102 14 -140 50v-248h-198v673c0 176 107 269 273 269c139 0 241 -65 241 -198c0 -71 -29 -125 -100 -154c100 -30 148 -94 148 -186c0 -132 -96 -206 -224 -206zM296 307v140c46 0 84 18 84 76c0 48 -26 64 -58 64c-39 0 -70 -25 -70 -104v-310
c39 -29 68 -35 90 -35c43 0 76 22 76 76c0 70 -54 93 -122 93z" />
    <glyph glyph-name="gamma" unicode="&#x3b3;" horiz-adv-x="510" 
d="M354 -210h-198v111c0 189 -121 518 -168 609h200c46 -88 76 -207 79 -302c18 40 45 126 45 242c0 23 -1 37 -4 60h198c3 -23 4 -39 4 -53c0 -165 -139 -430 -156 -457v-210z" />
    <glyph glyph-name="delta" unicode="&#x3b4;" horiz-adv-x="572" 
d="M506 678l-34 -146c-58 34 -106 58 -154 58c-28 0 -40 -8 -40 -22c0 -68 270 -118 270 -350c0 -147 -108 -230 -263 -230c-153 0 -261 80 -261 219c0 106 64 164 150 201c-50 43 -84 88 -84 155c0 105 86 169 218 169c78 0 144 -22 198 -54zM360 205c0 53 -32 91 -75 124
c-37 -27 -63 -63 -63 -119c0 -60 31 -83 68 -83c39 0 70 25 70 78z" />
    <glyph glyph-name="epsilon" unicode="&#x3b5;" horiz-adv-x="478" 
d="M460 489l-34 -148c-40 21 -92 37 -135 37c-32 0 -53 -9 -53 -31c0 -23 22 -32 52 -32h83v-126h-77c-43 0 -74 -8 -74 -32c0 -23 29 -31 68 -31c53 0 95 15 140 33l34 -134c-54 -21 -124 -37 -206 -37c-141 0 -234 47 -234 137c0 51 29 94 94 116c-54 26 -78 65 -78 117
c0 99 88 164 239 164c70 0 132 -14 181 -33z" />
    <glyph glyph-name="zeta" unicode="&#x3b6;" horiz-adv-x="438" 
d="M413 720v-118c-97 -122 -191 -299 -191 -386c0 -130 208 -41 208 -217c0 -66 -29 -119 -58 -161l-131 44c19 27 26 51 26 68c0 97 -243 21 -243 242c0 133 88 263 189 388c-29 -2 -58 -2 -88 -2h-83v142h371z" />
    <glyph glyph-name="eta" unicode="&#x3b7;" horiz-adv-x="582" 
d="M54 0v510h198v-54c44 43 95 66 158 66c76 0 132 -34 132 -142v-590h-198v525c0 31 -10 41 -31 41c-19 0 -38 -8 -61 -26v-330h-198z" />
    <glyph glyph-name="theta" unicode="&#x3b8;" horiz-adv-x="556" 
d="M344 289h-132c7 -124 34 -165 66 -165s59 41 66 165zM532 362c0 -256 -107 -374 -256 -374c-147 0 -252 116 -252 370c0 256 107 374 256 374c147 0 252 -116 252 -370zM278 590c-31 0 -59 -40 -66 -159h132c-7 119 -35 159 -66 159z" />
    <glyph glyph-name="iota" unicode="&#x3b9;" horiz-adv-x="340" 
d="M258 510v-322c0 -43 14 -54 37 -54c13 0 30 3 43 6v-137c-28 -7 -66 -9 -93 -9c-123 0 -185 43 -185 170v346h198z" />
    <glyph glyph-name="kappa" unicode="&#x3ba;" horiz-adv-x="576" 
d="M54 0v510h198v-177c119 171 160 183 296 183v-140c-53 0 -82 -16 -135 -73l153 -303h-203l-75 157l-36 -43v-114h-198z" />
    <glyph glyph-name="lambda" unicode="&#x3bb;" horiz-adv-x="544" 
d="M90 722c16 5 50 10 87 10c94 0 153 -32 185 -146l114 -407c10 -36 22 -43 40 -43c11 0 20 3 28 6v-138c-15 -5 -42 -10 -79 -10c-92 0 -138 30 -163 136l-40 168l-86 -298h-192l169 486h50l-13 52c-10 41 -30 52 -60 52c-16 0 -29 -3 -40 -6v138z" />
    <glyph glyph-name="uni03BC" unicode="&#x3bc;" horiz-adv-x="596" 
d="M244 -210h-190v720h198v-321c0 -31 10 -41 31 -41c18 0 37 7 61 25v337h198v-510h-198v53c-35 -33 -75 -54 -118 -62c16 -60 17 -128 18 -201z" />
    <glyph glyph-name="nu" unicode="&#x3bd;" horiz-adv-x="510" 
d="M154 0l-166 510h200l77 -305c16 38 47 125 47 246c0 22 -1 36 -4 59h198c3 -23 4 -39 4 -53c0 -164 -140 -427 -156 -457h-200z" />
    <glyph glyph-name="xi" unicode="&#x3be;" horiz-adv-x="438" 
d="M372 -162l-131 44c19 27 26 52 26 68c0 94 -243 32 -243 230c0 86 46 146 134 178c-72 27 -114 80 -114 153c0 129 130 209 343 209v-142c-115 0 -145 -27 -145 -74c0 -56 42 -73 102 -73h27v-142h-27c-90 0 -122 -28 -122 -76c0 -121 208 -40 208 -214
c0 -71 -34 -126 -58 -161z" />
    <glyph glyph-name="omicron" unicode="&#x3bf;" horiz-adv-x="564" 
d="M282 124c33 0 60 31 60 128s-27 128 -60 128s-60 -31 -60 -128s27 -128 60 -128zM540 257c0 -184 -118 -269 -260 -269c-140 0 -256 83 -256 265c0 184 118 269 260 269c140 0 256 -83 256 -265z" />
    <glyph glyph-name="pi" unicode="&#x3c0;" horiz-adv-x="610" 
d="M592 510v-142h-58v-188c0 -38 11 -46 28 -46c8 0 21 2 30 4v-136c-26 -6 -60 -8 -85 -8c-113 0 -171 42 -171 162v212h-70c0 -134 -5 -261 -16 -368h-202c14 107 20 234 20 368h-56v142h580z" />
    <glyph glyph-name="rho" unicode="&#x3c1;" horiz-adv-x="588" 
d="M353 -12c-45 0 -80 13 -107 34v-232h-198v444c0 186 111 288 268 288c145 0 248 -88 248 -269c0 -166 -87 -265 -211 -265zM246 258v-104c14 -9 30 -16 50 -16c39 0 70 29 70 115c0 80 -27 109 -61 109c-32 0 -59 -26 -59 -104z" />
    <glyph glyph-name="sigma1" unicode="&#x3c2;" horiz-adv-x="438" 
d="M372 -162l-131 44c19 27 26 51 26 69c0 102 -243 19 -243 273c0 194 142 292 379 292v-142c-123 0 -181 -39 -181 -131c0 -175 208 -59 208 -243c0 -66 -27 -117 -58 -162z" />
    <glyph glyph-name="sigma" unicode="&#x3c3;" horiz-adv-x="584" 
d="M540 222c0 -144 -108 -234 -257 -234c-152 0 -259 94 -259 259c0 175 119 263 316 263h230v-142h-89c35 -35 59 -79 59 -146zM342 229c0 61 -19 104 -41 136c-65 -11 -79 -50 -79 -116c0 -92 27 -125 61 -125c32 0 59 31 59 105z" />
    <glyph glyph-name="tau" unicode="&#x3c4;" horiz-adv-x="484" 
d="M472 510v-142h-135v-180c0 -43 14 -54 37 -54c13 0 30 3 43 6v-137c-28 -7 -66 -9 -93 -9c-123 0 -185 43 -185 170v204h-127v142h460z" />
    <glyph glyph-name="upsilon" unicode="&#x3c5;" horiz-adv-x="574" 
d="M508 510c29 -66 40 -147 40 -224c0 -221 -91 -298 -262 -298c-152 0 -238 61 -238 223v299h198v-299c0 -61 17 -76 44 -76c37 0 60 29 60 148c0 82 -11 161 -40 227h198z" />
    <glyph glyph-name="phi" unicode="&#x3c6;" horiz-adv-x="746" 
d="M722 266c0 -165 -102 -254 -258 -277v-199h-186v200c-154 24 -254 113 -254 270c0 100 41 193 103 256l161 -44c-48 -54 -78 -135 -78 -212c0 -73 26 -110 68 -128v173c0 142 97 217 219 217c148 0 225 -112 225 -256zM464 313v-182c52 19 72 62 72 134
c0 70 -19 104 -43 104c-15 0 -29 -12 -29 -56z" />
    <glyph glyph-name="chi" unicode="&#x3c7;" horiz-adv-x="578" 
d="M568 510l-170 -339l88 -201c15 -35 27 -44 54 -44c15 0 27 3 38 6v-138c-16 -5 -46 -10 -87 -10c-101 0 -136 30 -166 115l-45 126l-104 -235h-190l190 381l-69 157c-15 34 -24 46 -54 46c-14 0 -28 -3 -39 -6v138c16 5 45 10 86 10c100 0 133 -30 164 -117l30 -83
l86 194h188z" />
    <glyph glyph-name="psi" unicode="&#x3c8;" horiz-adv-x="756" 
d="M690 510c24 -67 32 -158 32 -218c0 -193 -84 -281 -246 -303v-199h-186v197c-157 18 -242 93 -242 261v262h186v-264c0 -68 20 -101 56 -116v590h186v-585c41 21 60 67 60 158c0 59 -8 150 -32 217h186z" />
    <glyph glyph-name="omega" unicode="&#x3c9;" horiz-adv-x="766" 
d="M650 510c55 -65 92 -155 92 -263c0 -170 -92 -259 -214 -259c-61 0 -113 22 -145 75c-33 -53 -84 -75 -145 -75c-122 0 -214 89 -214 259c0 108 37 198 92 263h190c-57 -66 -96 -156 -96 -268c0 -82 21 -107 43 -107c21 0 37 24 37 102v85h186v-85c0 -78 16 -102 37 -102
c22 0 43 25 43 107c0 112 -39 202 -96 268h190z" />
    <glyph glyph-name="iotadieresis" unicode="&#x3ca;" horiz-adv-x="340" 
d="M258 510v-322c0 -43 14 -54 37 -54c13 0 30 3 43 6v-137c-28 -7 -66 -9 -93 -9c-123 0 -185 43 -185 170v346h198zM-45 632c0 50 38 88 90 88s90 -38 90 -88s-38 -88 -90 -88s-90 38 -90 88zM179 632c0 50 38 88 90 88s90 -38 90 -88s-38 -88 -90 -88s-90 38 -90 88z" />
    <glyph glyph-name="upsilondieresis" unicode="&#x3cb;" horiz-adv-x="574" 
d="M508 510c29 -66 40 -147 40 -224c0 -221 -91 -298 -262 -298c-152 0 -238 61 -238 223v299h198v-299c0 -61 17 -76 44 -76c37 0 60 29 60 148c0 82 -11 161 -40 227h198zM86 632c0 50 38 88 90 88s90 -38 90 -88s-38 -88 -90 -88s-90 38 -90 88zM310 632
c0 50 38 88 90 88s90 -38 90 -88s-38 -88 -90 -88s-90 38 -90 88z" />
    <glyph glyph-name="omicrontonos" unicode="&#x3cc;" horiz-adv-x="564" 
d="M282 124c33 0 60 31 60 128s-27 128 -60 128s-60 -31 -60 -128s27 -128 60 -128zM540 257c0 -184 -118 -269 -260 -269c-140 0 -256 83 -256 265c0 184 118 269 260 269c140 0 256 -83 256 -265zM340 544h-148l52 176h208z" />
    <glyph glyph-name="upsilontonos" unicode="&#x3cd;" horiz-adv-x="574" 
d="M508 510c29 -66 40 -147 40 -224c0 -221 -91 -298 -262 -298c-152 0 -238 61 -238 223v299h198v-299c0 -61 17 -76 44 -76c37 0 60 29 60 148c0 82 -11 161 -40 227h198zM346 544h-148l52 176h208z" />
    <glyph glyph-name="omegatonos" unicode="&#x3ce;" horiz-adv-x="766" 
d="M650 510c55 -65 92 -155 92 -263c0 -170 -92 -259 -214 -259c-61 0 -113 22 -145 75c-33 -53 -84 -75 -145 -75c-122 0 -214 89 -214 259c0 108 37 198 92 263h190c-57 -66 -96 -156 -96 -268c0 -82 21 -107 43 -107c21 0 37 24 37 102v85h186v-85c0 -78 16 -102 37 -102
c22 0 43 25 43 107c0 112 -39 202 -96 268h190zM441 544h-148l52 176h208z" />
    <glyph glyph-name="uni0400" unicode="&#x400;" horiz-adv-x="590" 
d="M70 0v720h486v-166h-286v-116h246v-156h-246v-122h290v-160h-490zM336 910l92 -156h-154l-152 156h214z" />
    <glyph glyph-name="afii10023" unicode="&#x401;" horiz-adv-x="590" 
d="M70 0v720h486v-166h-286v-116h246v-156h-246v-122h290v-160h-490zM112 842c0 50 38 88 91 88s91 -38 91 -88s-38 -88 -91 -88s-91 38 -91 88zM336 842c0 50 38 88 91 88s91 -38 91 -88s-38 -88 -91 -88s-91 38 -91 88z" />
    <glyph glyph-name="afii10051" unicode="&#x402;" horiz-adv-x="808" 
d="M14 554v166h564v-166h-192v-110c45 15 103 24 153 24c142 0 239 -73 239 -240c0 -161 -91 -234 -261 -234c-20 0 -46 1 -65 2v153c10 -3 24 -4 36 -4c59 0 90 24 90 79c0 56 -32 82 -100 82c-27 0 -56 -4 -92 -15v-291h-200v554h-172z" />
    <glyph glyph-name="afii10052" unicode="&#x403;" horiz-adv-x="544" 
d="M70 0v720h460v-166h-260v-554h-200zM187 754l92 156h214l-152 -156h-154z" />
    <glyph glyph-name="afii10053" unicode="&#x404;" horiz-adv-x="600" 
d="M576 684l-44 -170c-49 28 -91 52 -147 52c-68 0 -126 -37 -147 -128h246v-156h-248c19 -97 78 -134 154 -134c54 0 98 19 146 52l44 -156c-57 -32 -134 -56 -220 -56c-197 0 -330 125 -330 363c0 248 145 381 352 381c77 0 142 -18 194 -48z" />
    <glyph glyph-name="afii10054" unicode="&#x405;" horiz-adv-x="586" 
d="M30 40l44 162c63 -31 126 -56 188 -56c61 0 94 25 94 60c0 107 -308 44 -308 288c0 147 112 238 276 238c79 0 152 -21 210 -52l-44 -170c-50 31 -110 56 -163 56c-50 0 -79 -23 -79 -54c0 -101 308 -38 308 -282c0 -150 -116 -242 -291 -242c-77 0 -165 18 -235 52z" />
    <glyph glyph-name="afii10055" unicode="&#x406;" horiz-adv-x="348" 
d="M74 0v720h200v-720h-200z" />
    <glyph glyph-name="afii10056" unicode="&#x407;" horiz-adv-x="348" 
d="M74 0v720h200v-720h-200zM-29 842c0 50 38 88 91 88s91 -38 91 -88s-38 -88 -91 -88s-91 38 -91 88zM195 842c0 50 38 88 91 88s91 -38 91 -88s-38 -88 -91 -88s-91 38 -91 88z" />
    <glyph glyph-name="afii10057" unicode="&#x408;" horiz-adv-x="414" 
d="M14 -2v162c19 -3 49 -6 71 -6c60 0 75 22 75 87v479h200v-479c0 -177 -70 -247 -251 -247c-31 0 -70 2 -95 4z" />
    <glyph glyph-name="afii10058" unicode="&#x409;" horiz-adv-x="1054" 
d="M0 -4v160c7 -1 17 -2 27 -2c91 0 111 75 121 249l19 317h495v-266h97c170 0 271 -75 271 -227s-107 -227 -286 -227h-278v554h-116l-11 -178c-17 -272 -66 -382 -291 -382c-22 0 -37 1 -48 2zM662 151h82c63 0 90 23 90 73s-27 73 -90 73h-82v-146z" />
    <glyph glyph-name="afii10059" unicode="&#x40a;" horiz-adv-x="1034" 
d="M446 0v282h-180v-282h-196v720h196v-272h180v272h196v-272h101c167 0 267 -74 267 -224s-105 -224 -282 -224h-282zM642 151h86c60 0 86 22 86 70s-26 70 -86 70h-86v-140z" />
    <glyph glyph-name="afii10060" unicode="&#x40b;" horiz-adv-x="808" 
d="M778 0h-200v217c0 68 -33 89 -98 89c-29 0 -58 -4 -94 -15v-291h-200v554h-172v166h564v-166h-192v-110c45 15 100 24 159 24c137 0 233 -50 233 -214v-254z" />
    <glyph glyph-name="afii10061" unicode="&#x40c;" horiz-adv-x="698" 
d="M70 0v720h200v-282h2c62 0 79 17 95 57l19 49c49 127 98 182 272 182v-154c-62 0 -79 -17 -95 -57l-19 -49c-20 -51 -47 -84 -109 -104c76 -22 108 -63 139 -126l114 -236h-218l-96 207c-24 53 -42 75 -104 75v-282h-200zM266 754l92 156h214l-152 -156h-154z" />
    <glyph glyph-name="uni040D" unicode="&#x40d;" horiz-adv-x="740" 
d="M670 720v-720h-192v393l-224 -393h-184v720h192v-393l224 393h184zM391 910l92 -156h-154l-152 156h214z" />
    <glyph glyph-name="afii10062" unicode="&#x40e;" horiz-adv-x="668" 
d="M208 238l-206 482h201l135 -327l135 327h193l-212 -482c-80 -181 -158 -244 -324 -244c-29 0 -70 2 -89 4v162c19 -3 46 -6 76 -6c79 0 117 21 144 84h-53zM334 754c-141 0 -197 58 -197 156h128c0 -39 17 -64 69 -64s69 25 69 64h128c0 -98 -56 -156 -197 -156z" />
    <glyph glyph-name="afii10145" unicode="&#x40f;" horiz-adv-x="732" 
d="M662 720v-720h-200v-154h-192v154h-200v720h200v-560h192v560h200z" />
    <glyph glyph-name="afii10017" unicode="&#x410;" horiz-adv-x="704" 
d="M474 720l220 -720h-209l-32 121h-211l-31 -121h-201l226 720h238zM348 532l-69 -265h137z" />
    <glyph glyph-name="afii10018" unicode="&#x411;" horiz-adv-x="658" 
d="M70 0v720h498v-166h-302v-100h97c170 0 271 -75 271 -227s-107 -227 -286 -227h-278zM266 151h82c63 0 90 23 90 73s-27 73 -90 73h-82v-146z" />
    <glyph glyph-name="afii10019" unicode="&#x412;" horiz-adv-x="684" 
d="M70 0v720h277c166 0 265 -64 265 -194c0 -74 -32 -129 -101 -159c91 -28 131 -90 131 -171c0 -122 -91 -196 -281 -196h-291zM266 148h95c60 0 85 22 85 71s-25 71 -85 71h-95v-142zM266 430h69c57 0 81 21 81 68s-24 68 -81 68h-69v-136z" />
    <glyph glyph-name="afii10020" unicode="&#x413;" horiz-adv-x="544" 
d="M70 0v720h460v-166h-260v-554h-200z" />
    <glyph glyph-name="afii10021" unicode="&#x414;" horiz-adv-x="812" 
d="M686 720v-572h96v-302h-186v154h-396v-154h-186v302h60c35 41 89 130 99 377l8 195h505zM367 554l-1 -27c-8 -216 -40 -305 -79 -367h199v394h-119z" />
    <glyph glyph-name="afii10022" unicode="&#x415;" horiz-adv-x="590" 
d="M70 0v720h486v-166h-286v-116h246v-156h-246v-122h290v-160h-490z" />
    <glyph glyph-name="afii10024" unicode="&#x416;" horiz-adv-x="1056" 
d="M1016 726v-154c-62 0 -79 -17 -95 -57l-19 -49c-20 -51 -47 -84 -109 -104c76 -22 108 -63 139 -126l114 -236h-218l-96 207c-24 53 -42 75 -104 75v-282h-200v282h-8c-62 0 -80 -22 -104 -75l-96 -207h-210l114 236c30 62 63 104 135 126c-62 20 -94 54 -113 104l-19 49
c-16 40 -33 57 -87 57v154c174 0 223 -55 272 -182l19 -49c16 -40 33 -57 95 -57h2v282h200v-282h2c62 0 79 17 95 57l19 49c49 127 98 182 272 182z" />
    <glyph glyph-name="afii10025" unicode="&#x417;" horiz-adv-x="574" 
d="M153 439h65c70 0 116 17 116 66c0 44 -36 61 -86 61c-60 0 -108 -24 -160 -54l-44 162c60 33 140 58 232 58c156 0 259 -72 259 -196c0 -79 -42 -137 -123 -169c88 -33 132 -94 132 -173c0 -127 -116 -206 -297 -206c-91 0 -171 20 -233 47l44 164
c51 -23 114 -51 183 -51c62 0 103 23 103 66c0 44 -43 69 -124 69h-67v156z" />
    <glyph glyph-name="afii10026" unicode="&#x418;" horiz-adv-x="740" 
d="M670 720v-720h-192v393l-224 -393h-184v720h192v-393l224 393h184z" />
    <glyph glyph-name="afii10027" unicode="&#x419;" horiz-adv-x="740" 
d="M670 720v-720h-192v393l-224 -393h-184v720h192v-393l224 393h184zM370 754c-141 0 -197 58 -197 156h128c0 -39 17 -64 69 -64s69 25 69 64h128c0 -98 -56 -156 -197 -156z" />
    <glyph glyph-name="afii10028" unicode="&#x41a;" horiz-adv-x="698" 
d="M70 0v720h200v-282h2c62 0 79 17 95 57l19 49c49 127 98 182 272 182v-154c-62 0 -79 -17 -95 -57l-19 -49c-20 -51 -47 -84 -109 -104c76 -22 108 -63 139 -126l114 -236h-218l-96 207c-24 53 -42 75 -104 75v-282h-200z" />
    <glyph glyph-name="afii10029" unicode="&#x41b;" horiz-adv-x="752" 
d="M0 -4v160c7 -1 17 -2 27 -2c91 0 111 75 121 249l19 317h515v-720h-200v554h-132l-11 -178c-17 -272 -66 -382 -291 -382c-22 0 -37 1 -48 2z" />
    <glyph glyph-name="afii10030" unicode="&#x41c;" horiz-adv-x="986" 
d="M126 720h255l82 -335c1 -5 7 -17 30 -133h2c10 53 18 85 31 134l87 334h251l58 -720h-201l-14 330c-2 45 -2 105 -2 134h-2c-5 -29 -21 -93 -33 -136l-92 -328h-178l-92 328c-7 25 -30 114 -33 136h-2c0 -29 0 -89 -2 -134l-14 -330h-193z" />
    <glyph glyph-name="afii10031" unicode="&#x41d;" horiz-adv-x="732" 
d="M70 0v720h200v-272h192v272h200v-720h-200v282h-192v-282h-200z" />
    <glyph glyph-name="afii10032" unicode="&#x41e;" horiz-adv-x="726" 
d="M230 357c0 -157 60 -209 133 -209s133 52 133 209s-60 209 -133 209s-133 -52 -133 -209zM30 358c0 244 142 374 335 374c191 0 331 -128 331 -370c0 -244 -142 -374 -335 -374c-191 0 -331 128 -331 370z" />
    <glyph glyph-name="afii10033" unicode="&#x41f;" horiz-adv-x="732" 
d="M70 0v720h592v-720h-200v554h-192v-554h-200z" />
    <glyph glyph-name="afii10034" unicode="&#x420;" horiz-adv-x="658" 
d="M70 0v720h281c177 0 283 -81 283 -243s-112 -243 -298 -243h-68v-234h-198zM268 558v-168h68c70 0 100 26 100 84s-30 84 -100 84h-68z" />
    <glyph glyph-name="afii10035" unicode="&#x421;" horiz-adv-x="600" 
d="M576 684l-44 -170c-49 28 -91 52 -147 52c-86 0 -155 -58 -155 -211c0 -152 68 -207 160 -207c54 0 98 19 146 52l44 -156c-57 -32 -134 -56 -219 -56c-198 0 -331 125 -331 363c0 248 145 381 352 381c77 0 142 -18 194 -48z" />
    <glyph glyph-name="afii10036" unicode="&#x422;" horiz-adv-x="592" 
d="M196 0v554h-182v166h564v-166h-182v-554h-200z" />
    <glyph glyph-name="afii10037" unicode="&#x423;" horiz-adv-x="668" 
d="M208 238l-206 482h201l135 -327l135 327h193l-212 -482c-80 -181 -158 -244 -324 -244c-29 0 -70 2 -89 4v162c19 -3 46 -6 76 -6c79 0 117 21 144 84h-53z" />
    <glyph glyph-name="afii10038" unicode="&#x424;" horiz-adv-x="854" 
d="M331 -12v88c-180 24 -301 120 -301 282c0 163 121 260 301 285v89h192v-88c179 -24 301 -120 301 -282c0 -163 -122 -261 -301 -286v-88h-192zM222 356c0 -84 44 -127 109 -145v289c-65 -18 -109 -61 -109 -144zM632 356c0 83 -45 126 -109 144v-289
c64 18 109 61 109 145z" />
    <glyph glyph-name="afii10039" unicode="&#x425;" horiz-adv-x="714" 
d="M675 720l-194 -348l201 -372h-219l-110 233l-110 -233h-211l201 372l-194 348h217l105 -211l105 211h209z" />
    <glyph glyph-name="afii10040" unicode="&#x426;" horiz-adv-x="788" 
d="M662 720v-572h96v-302h-186v154h-502v720h200v-560h192v560h200z" />
    <glyph glyph-name="afii10041" unicode="&#x427;" horiz-adv-x="692" 
d="M422 0v276c-45 -15 -100 -24 -159 -24c-137 0 -233 50 -233 214v254h200v-223c0 -68 33 -89 98 -89c29 0 58 4 94 15v297h200v-720h-200z" />
    <glyph glyph-name="afii10042" unicode="&#x428;" horiz-adv-x="1044" 
d="M974 720v-720h-904v720h200v-560h152v560h200v-560h152v560h200z" />
    <glyph glyph-name="afii10043" unicode="&#x429;" horiz-adv-x="1108" 
d="M974 720v-572h96v-302h-186v154h-814v720h200v-560h152v560h200v-560h152v560h200z" />
    <glyph glyph-name="afii10044" unicode="&#x42a;" horiz-adv-x="774" 
d="M14 554v166h368v-266h97c170 0 271 -75 271 -227s-107 -227 -286 -227h-278v554h-172zM382 151h82c63 0 90 23 90 73s-27 73 -90 73h-82v-146z" />
    <glyph glyph-name="afii10045" unicode="&#x42b;" horiz-adv-x="958" 
d="M692 0v720h196v-720h-196zM70 0v720h196v-266h97c170 0 271 -75 271 -227s-107 -227 -286 -227h-278zM266 151h82c63 0 90 23 90 73s-27 73 -90 73h-82v-146z" />
    <glyph glyph-name="afii10046" unicode="&#x42c;" horiz-adv-x="658" 
d="M70 0v720h196v-266h97c170 0 271 -75 271 -227s-107 -227 -286 -227h-278zM266 151h82c63 0 90 23 90 73s-27 73 -90 73h-82v-146z" />
    <glyph glyph-name="afii10047" unicode="&#x42d;" horiz-adv-x="600" 
d="M116 282v156h247c-20 92 -77 128 -148 128c-52 0 -95 -19 -141 -52l-44 162c56 32 132 56 216 56c193 0 324 -128 324 -364c0 -250 -146 -380 -354 -380c-78 0 -144 18 -196 48l44 164c55 -31 95 -52 148 -52c71 0 130 38 150 134h-246z" />
    <glyph glyph-name="afii10048" unicode="&#x42e;" horiz-adv-x="997" 
d="M967 362c0 -244 -132 -374 -311 -374c-158 0 -278 101 -302 294h-84v-282h-200v720h200v-272h85c29 186 149 284 305 284c177 0 307 -128 307 -370zM767 357c0 159 -49 212 -109 212s-109 -53 -109 -212s49 -212 109 -212s109 53 109 212z" />
    <glyph glyph-name="afii10049" unicode="&#x42f;" horiz-adv-x="718" 
d="M452 268h-72l-128 -268h-210l150 298c-72 34 -112 96 -112 185c0 155 107 237 285 237h283v-720h-196v268zM452 408v150h-87c-62 0 -89 -23 -89 -75s27 -75 89 -75h87z" />
    <glyph glyph-name="afii10065" unicode="&#x430;" horiz-adv-x="536" 
d="M274 522c135 0 222 -45 222 -198v-208c0 -87 5 -106 10 -116h-186c-6 7 -11 17 -14 48c-36 -39 -83 -60 -134 -60c-86 0 -148 59 -148 162c0 107 66 172 225 172c20 0 38 -1 54 -3c-3 39 -29 53 -73 53c-45 0 -92 -14 -146 -33l-34 143c64 22 139 40 224 40zM252 128
c15 0 34 6 52 16v70c-9 1 -18 2 -29 2c-43 0 -59 -14 -59 -46c0 -31 15 -42 36 -42z" />
    <glyph glyph-name="afii10066" unicode="&#x431;" horiz-adv-x="564" 
d="M289 -12c-157 0 -265 109 -265 358c0 271 127 379 320 380c60 0 112 1 144 10v-166c-29 -9 -86 -10 -144 -10c-82 0 -121 -37 -132 -128c36 39 82 70 144 70c108 0 184 -97 184 -246c0 -178 -109 -268 -251 -268zM288 127c30 0 54 27 54 105c0 82 -27 108 -63 108
c-21 0 -40 -8 -57 -22v-1c0 -146 28 -190 66 -190z" />
    <glyph glyph-name="afii10067" unicode="&#x432;" horiz-adv-x="594" 
d="M353 0h-299v510h290c120 0 191 -45 191 -136c0 -55 -27 -95 -85 -115c74 -18 106 -64 106 -123c0 -84 -66 -136 -203 -136zM246 120h64c38 0 54 12 54 38s-16 38 -54 38h-64v-76zM246 384v-76h43c38 0 54 11 54 38c0 26 -16 38 -54 38h-43z" />
    <glyph glyph-name="afii10068" unicode="&#x433;" horiz-adv-x="436" 
d="M426 510v-142h-174v-368h-198v510h372z" />
    <glyph glyph-name="afii10069" unicode="&#x434;" horiz-adv-x="650" 
d="M134 510h420v-386h72v-254h-184v130h-244v-130h-184v254h36c50 43 84 120 84 386zM300 368c-8 -138 -28 -197 -50 -232h110v232h-60z" />
    <glyph glyph-name="afii10070" unicode="&#x435;" horiz-adv-x="550" 
d="M286 389c-33 0 -57 -25 -62 -85h116c0 62 -22 85 -54 85zM517 194h-289c15 -60 55 -68 95 -68c49 0 93 12 151 33l34 -132c-54 -22 -135 -39 -210 -39c-170 0 -274 87 -274 259c0 181 115 275 266 275c141 0 232 -82 232 -251c0 -25 -2 -54 -5 -77z" />
    <glyph glyph-name="afii10072" unicode="&#x436;" horiz-adv-x="846" 
d="M836 0h-202l-62 139c-15 33 -19 51 -50 51v-190h-198v190c-35 0 -39 -18 -54 -51l-62 -139h-194l80 168c19 40 39 67 85 82c-40 10 -55 27 -65 51l-14 32c-14 32 -23 43 -60 43v140c130 0 169 -18 218 -130l14 -32c14 -32 18 -43 52 -43v199h198v-199h6c32 0 36 11 50 43
l14 32c49 112 88 130 214 130v-140c-41 0 -50 -11 -64 -43l-14 -32c-10 -23 -26 -41 -62 -51c48 -14 69 -39 90 -82z" />
    <glyph glyph-name="afii10073" unicode="&#x437;" horiz-adv-x="488" 
d="M464 140c0 -95 -98 -152 -256 -152c-70 0 -140 11 -193 30l34 140c49 -18 95 -32 146 -32c44 0 71 10 71 32c0 20 -22 31 -104 31h-38v126h48c62 0 84 8 84 32c0 23 -21 31 -53 31c-45 0 -84 -15 -124 -34l-34 140c50 22 117 38 190 38c133 0 219 -52 219 -144
c0 -52 -27 -92 -88 -115c66 -24 98 -69 98 -123z" />
    <glyph glyph-name="afii10074" unicode="&#x438;" horiz-adv-x="604" 
d="M550 510v-510h-182v242l-140 -242h-174v510h182v-243l141 243h173z" />
    <glyph glyph-name="afii10075" unicode="&#x439;" horiz-adv-x="604" 
d="M550 510v-510h-182v242l-140 -242h-174v510h182v-243l141 243h173zM302 550c-141 0 -196 66 -196 170h126c0 -45 19 -80 70 -80s70 35 70 80h126c0 -104 -55 -170 -196 -170z" />
    <glyph glyph-name="afii10076" unicode="&#x43a;" horiz-adv-x="576" 
d="M54 0v510h198v-199c33 1 44 15 56 43l14 32c40 91 79 130 214 130v-140c-40 0 -51 -12 -64 -43l-14 -32c-10 -22 -30 -41 -73 -50c59 -13 81 -42 101 -83l80 -168h-202l-62 139c-14 31 -23 46 -50 50v-189h-198z" />
    <glyph glyph-name="afii10077" unicode="&#x43b;" horiz-adv-x="604" 
d="M0 -4v136c7 -1 19 -2 25 -2c67 0 77 111 85 380h440v-510h-198v368h-72c-13 -291 -64 -374 -229 -374c-18 0 -36 1 -51 2z" />
    <glyph glyph-name="afii10078" unicode="&#x43c;" horiz-adv-x="790" 
d="M701 510l49 -510h-177l-14 214c-2 32 -2 70 -2 90h-2c-3 -20 -11 -57 -18 -81l-65 -223h-162l-65 223c-5 17 -15 59 -18 81h-2c0 -20 0 -57 -2 -89l-14 -215h-169l53 510h230l52 -222c8 -33 15 -72 19 -101h2c3 25 19 90 22 102l57 221h226z" />
    <glyph glyph-name="afii10079" unicode="&#x43d;" horiz-adv-x="596" 
d="M542 510v-510h-198v189h-92v-189h-198v510h198v-179h92v179h198z" />
    <glyph glyph-name="afii10080" unicode="&#x43e;" horiz-adv-x="564" 
d="M282 124c33 0 60 31 60 128s-27 128 -60 128s-60 -31 -60 -128s27 -128 60 -128zM540 257c0 -184 -118 -269 -260 -269c-140 0 -256 83 -256 265c0 184 118 269 260 269c140 0 256 -83 256 -265z" />
    <glyph glyph-name="afii10081" unicode="&#x43f;" horiz-adv-x="588" 
d="M336 0v368h-84v-368h-198v510h480v-510h-198z" />
    <glyph glyph-name="afii10082" unicode="&#x440;" horiz-adv-x="594" 
d="M54 510h198v-58c37 45 82 70 137 70c108 0 181 -96 181 -259c0 -177 -87 -275 -196 -275c-40 0 -84 13 -122 63v-261h-198v720zM309 360c-14 0 -32 -4 -57 -25v-174c24 -19 41 -23 55 -23c36 0 65 29 65 112c0 81 -27 110 -63 110z" />
    <glyph glyph-name="afii10083" unicode="&#x441;" horiz-adv-x="442" 
d="M424 492l-34 -150c-27 16 -52 30 -83 30c-48 0 -85 -33 -85 -121c0 -87 36 -119 89 -119c31 0 59 11 83 27l34 -138c-40 -19 -93 -33 -152 -33c-152 0 -252 90 -252 260c0 177 109 274 267 274c63 0 103 -15 133 -30z" />
    <glyph glyph-name="afii10084" unicode="&#x442;" horiz-adv-x="522" 
d="M12 368v142h498v-142h-150v-368h-198v368h-150z" />
    <glyph glyph-name="afii10085" unicode="&#x443;" horiz-adv-x="510" 
d="M27 -212v154c17 -3 37 -6 58 -6c51 0 78 16 97 76h-50l-144 498h200l70 -321l72 321h192l-150 -498c-53 -176 -118 -228 -270 -228c-21 0 -58 1 -75 4z" />
    <glyph glyph-name="afii10086" unicode="&#x444;" horiz-adv-x="776" 
d="M752 257c0 -153 -115 -238 -269 -261v-206h-190v205c-154 22 -269 105 -269 258s115 237 269 261v206h190v-205c154 -23 269 -106 269 -258zM214 252c0 -66 31 -102 79 -120v240c-48 -18 -79 -55 -79 -120zM562 252c0 65 -32 102 -79 120v-240c47 18 79 54 79 120z" />
    <glyph glyph-name="afii10087" unicode="&#x445;" horiz-adv-x="528" 
d="M4 0l145 265l-134 245h201l52 -126l52 126h193l-134 -245l145 -265h-201l-63 146l-63 -146h-193z" />
    <glyph glyph-name="afii10088" unicode="&#x446;" horiz-adv-x="646" 
d="M622 -130h-184v130h-384v510h198v-374h100v374h198v-386h72v-254z" />
    <glyph glyph-name="afii10089" unicode="&#x447;" horiz-adv-x="574" 
d="M520 0h-198v176c-34 -11 -76 -18 -121 -18c-104 0 -177 38 -177 163v189h198v-160c0 -46 17 -60 52 -60c14 0 29 2 48 8v212h198v-510z" />
    <glyph glyph-name="afii10090" unicode="&#x448;" horiz-adv-x="870" 
d="M816 510v-510h-762v510h198v-374h84v374h198v-374h84v374h198z" />
    <glyph glyph-name="afii10091" unicode="&#x449;" horiz-adv-x="912" 
d="M888 -130h-184v130h-650v510h198v-374h84v374h198v-374h84v374h198v-386h72v-254z" />
    <glyph glyph-name="afii10092" unicode="&#x44a;" horiz-adv-x="668" 
d="M644 173c0 -116 -84 -173 -225 -173h-263v368h-144v142h338v-164h81c134 0 213 -57 213 -173zM450 170c0 34 -18 50 -61 50h-39v-100h39c43 0 61 16 61 50z" />
    <glyph glyph-name="afii10093" unicode="&#x44b;" horiz-adv-x="834" 
d="M586 0v510h194v-510h-194zM54 0v510h194v-164h81c134 0 213 -57 213 -173s-84 -173 -225 -173h-263zM248 120h39c43 0 61 16 61 50s-18 50 -61 50h-39v-100z" />
    <glyph glyph-name="afii10094" unicode="&#x44c;" horiz-adv-x="566" 
d="M54 0v510h194v-164h81c134 0 213 -57 213 -173s-84 -173 -225 -173h-263zM248 120h39c43 0 61 16 61 50s-18 50 -61 50h-39v-100z" />
    <glyph glyph-name="afii10095" unicode="&#x44d;" horiz-adv-x="442" 
d="M81 192v120h133c-12 47 -42 64 -78 64c-29 0 -54 -10 -78 -27l-34 140c39 19 91 33 148 33c148 0 246 -92 246 -260c0 -179 -110 -274 -269 -274c-64 0 -105 15 -135 30l34 140c28 -17 53 -30 85 -30c37 0 67 17 80 64h-132z" />
    <glyph glyph-name="afii10096" unicode="&#x44e;" horiz-adv-x="800" 
d="M776 257c0 -184 -109 -269 -240 -269c-113 0 -209 63 -231 201h-53v-189h-198v510h198v-179h55c27 130 122 191 233 191c129 0 236 -83 236 -265zM578 252c0 97 -18 128 -40 128s-40 -31 -40 -128s18 -128 40 -128s40 31 40 128z" />
    <glyph glyph-name="afii10097" unicode="&#x44f;" horiz-adv-x="584" 
d="M336 166h-51l-70 -166h-191l98 200c-43 28 -66 70 -66 131c0 116 83 179 225 179h249v-510h-194v166zM336 283v102h-25c-42 0 -61 -15 -61 -51s19 -51 61 -51h25z" />
    <glyph glyph-name="uni0450" unicode="&#x450;" horiz-adv-x="550" 
d="M286 389c-33 0 -57 -25 -62 -85h116c0 62 -22 85 -54 85zM517 194h-289c15 -60 55 -68 95 -68c49 0 93 12 151 33l34 -132c-54 -22 -135 -39 -210 -39c-170 0 -274 87 -274 259c0 181 115 275 266 275c141 0 232 -82 232 -251c0 -25 -2 -54 -5 -77zM309 720l92 -176h-152
l-152 176h212z" />
    <glyph glyph-name="afii10071" unicode="&#x451;" horiz-adv-x="550" 
d="M286 389c-33 0 -57 -25 -62 -85h116c0 62 -22 85 -54 85zM517 194h-289c15 -60 55 -68 95 -68c49 0 93 12 151 33l34 -132c-54 -22 -135 -39 -210 -39c-170 0 -274 87 -274 259c0 181 115 275 266 275c141 0 232 -82 232 -251c0 -25 -2 -54 -5 -77zM77 632
c0 50 38 88 90 88s90 -38 90 -88s-38 -88 -90 -88s-90 38 -90 88zM301 632c0 50 38 88 90 88s90 -38 90 -88s-38 -88 -90 -88s-90 38 -90 88z" />
    <glyph glyph-name="afii10099" unicode="&#x452;" horiz-adv-x="625" 
d="M311 -175v140c12 -2 20 -3 29 -3c31 0 39 13 39 46v275c0 31 -10 41 -31 41s-42 -9 -69 -32v-292h-198v536h-77v122h77v62h198v-62h144v-122h-144v-120c46 48 99 74 166 74c76 0 132 -34 132 -142v-340c0 -133 -57 -186 -205 -186c-20 0 -42 1 -61 3z" />
    <glyph glyph-name="afii10100" unicode="&#x453;" horiz-adv-x="436" 
d="M426 510v-142h-174v-368h-198v510h372zM128 544l92 176h212l-152 -176h-152z" />
    <glyph glyph-name="afii10101" unicode="&#x454;" horiz-adv-x="442" 
d="M424 492l-34 -146c-27 16 -52 30 -84 30c-35 0 -64 -17 -77 -64h132v-120h-133c13 -48 44 -64 83 -64c31 0 57 10 83 27l34 -134c-40 -19 -93 -33 -152 -33c-152 0 -252 90 -252 260c0 177 109 274 267 274c63 0 103 -15 133 -30z" />
    <glyph glyph-name="afii10102" unicode="&#x455;" horiz-adv-x="476" 
d="M24 27l34 142c49 -23 104 -43 151 -43c37 0 53 13 53 28c0 54 -218 10 -218 188c0 113 88 180 222 180c65 0 124 -16 170 -37l-34 -148c-40 23 -92 41 -130 41c-27 0 -38 -9 -38 -22c0 -54 218 -3 218 -183c0 -117 -92 -185 -236 -185c-68 0 -139 15 -192 39z" />
    <glyph glyph-name="afii10103" unicode="&#x456;" horiz-adv-x="318" 
d="M60 0v510h198v-510h-198zM268 652c0 -58 -42 -100 -109 -100s-109 42 -109 100s42 100 109 100s109 -42 109 -100z" />
    <glyph glyph-name="afii10104" unicode="&#x457;" horiz-adv-x="318" 
d="M60 0v510h198v-510h-198zM-43 632c0 50 38 88 90 88s90 -38 90 -88s-38 -88 -90 -88s-90 38 -90 88zM181 632c0 50 38 88 90 88s90 -38 90 -88s-38 -88 -90 -88s-90 38 -90 88z" />
    <glyph glyph-name="afii10105" unicode="&#x458;" horiz-adv-x="318" 
d="M258 510v-540c0 -133 -57 -186 -205 -186c-20 0 -42 1 -61 3v140c12 -2 20 -3 29 -3c31 0 39 13 39 46v540h198zM268 652c0 -58 -42 -100 -109 -100s-109 42 -109 100s42 100 109 100s109 -42 109 -100z" />
    <glyph glyph-name="afii10106" unicode="&#x459;" horiz-adv-x="844" 
d="M332 0v368h-52c-13 -291 -64 -374 -229 -374c-18 0 -36 1 -51 2v136c7 -1 19 -2 25 -2c67 0 77 111 85 380h416v-164h81c134 0 213 -57 213 -173s-84 -173 -225 -173h-263zM526 120h39c43 0 61 16 61 50s-18 50 -61 50h-39v-100z" />
    <glyph glyph-name="afii10107" unicode="&#x45a;" horiz-adv-x="840" 
d="M328 0v194h-80v-194h-194v510h194v-174h80v174h194v-174h87c130 0 207 -55 207 -168s-82 -168 -219 -168h-269zM522 120h45c39 0 55 14 55 45s-16 45 -55 45h-45v-90z" />
    <glyph glyph-name="afii10108" unicode="&#x45b;" horiz-adv-x="617" 
d="M4 536v122h77v62h198v-62h144v-122h-144v-120c46 48 99 74 166 74c76 0 132 -34 132 -142v-348h-198v283c0 31 -10 41 -31 41s-42 -9 -69 -32v-292h-198v536h-77z" />
    <glyph glyph-name="afii10109" unicode="&#x45c;" horiz-adv-x="576" 
d="M54 0v510h198v-199c33 1 44 15 56 43l14 32c40 91 79 130 214 130v-140c-40 0 -51 -12 -64 -43l-14 -32c-10 -22 -30 -41 -73 -50c59 -13 81 -42 101 -83l80 -168h-202l-62 139c-14 31 -23 46 -50 50v-189h-198zM188 544l92 176h212l-152 -176h-152z" />
    <glyph glyph-name="uni045D" unicode="&#x45d;" horiz-adv-x="604" 
d="M550 510v-510h-182v242l-140 -242h-174v510h182v-243l141 243h173zM322 720l92 -176h-152l-152 176h212z" />
    <glyph glyph-name="afii10110" unicode="&#x45e;" horiz-adv-x="510" 
d="M27 -212v154c17 -3 37 -6 58 -6c51 0 78 16 97 76h-50l-144 498h200l70 -321l72 321h192l-150 -498c-53 -176 -118 -228 -270 -228c-21 0 -58 1 -75 4zM255 550c-141 0 -196 66 -196 170h126c0 -45 19 -80 70 -80s70 35 70 80h126c0 -104 -55 -170 -196 -170z" />
    <glyph glyph-name="afii10193" unicode="&#x45f;" horiz-adv-x="604" 
d="M210 -130v130h-156v510h198v-374h100v374h198v-510h-156v-130h-184z" />
    <glyph glyph-name="afii10146" unicode="&#x462;" horiz-adv-x="744" 
d="M14 504v156h142v60h196v-60h176v-156h-176v-50h97c170 0 271 -75 271 -227s-107 -227 -286 -227h-278v504h-142zM352 151h82c63 0 90 23 90 73s-27 73 -90 73h-82v-146z" />
    <glyph glyph-name="afii10194" unicode="&#x463;" horiz-adv-x="596" 
d="M4 388v122h77v210h194v-210h140v-122h-140v-42h81c134 0 213 -57 213 -173s-84 -173 -225 -173h-263v388h-77zM275 120h39c43 0 61 16 61 50s-18 50 -61 50h-39v-100z" />
    <glyph glyph-name="afii10147" unicode="&#x472;" horiz-adv-x="726" 
d="M363 148c61 0 117 35 133 136c-21 -9 -42 -14 -64 -14c-48 0 -98 24 -139 24c-19 0 -41 -5 -63 -14c16 -98 72 -132 133 -132zM362 566c-65 0 -114 -38 -132 -130c20 8 41 14 64 14c47 0 98 -24 139 -24c17 0 39 4 62 13c-18 88 -67 127 -133 127zM30 358
c0 244 142 374 335 374c191 0 331 -128 331 -370c0 -244 -142 -374 -335 -374c-191 0 -331 128 -331 370z" />
    <glyph glyph-name="afii10195" unicode="&#x473;" horiz-adv-x="564" 
d="M282 112c32 0 59 22 68 86c-15 -7 -28 -11 -40 -11c-22 0 -39 14 -58 14c-13 0 -25 -6 -37 -14c11 -56 36 -75 67 -75zM282 392c-31 0 -57 -20 -68 -79c15 7 27 10 38 10c24 0 40 -14 59 -14c11 0 23 4 36 13c-11 51 -36 70 -65 70zM540 257c0 -184 -118 -269 -260 -269
c-140 0 -256 83 -256 265c0 184 118 269 260 269c140 0 256 -83 256 -265z" />
    <glyph glyph-name="afii10148" unicode="&#x474;" horiz-adv-x="690" 
d="M10 720h201l128 -461l73 285c32 127 82 182 278 182v-154c-71 0 -88 -17 -100 -57l-150 -515h-210z" />
    <glyph glyph-name="afii10196" unicode="&#x475;" horiz-adv-x="526" 
d="M-12 510h200l67 -276l24 113c25 118 70 169 247 169v-140c-52 0 -66 -17 -78 -57l-94 -319h-202z" />
    <glyph glyph-name="afii10050" unicode="&#x490;" horiz-adv-x="544" 
d="M70 0v720h282v122h178v-288h-260v-554h-200z" />
    <glyph glyph-name="afii10098" unicode="&#x491;" horiz-adv-x="444" 
d="M252 0h-198v510h212v122h168v-264h-182v-368z" />
    <glyph glyph-name="uni0492" unicode="&#x492;" horiz-adv-x="564" 
d="M24 299v122h58v299h460v-166h-260v-133h150v-122h-150v-299h-200v299h-58z" />
    <glyph glyph-name="uni0493" unicode="&#x493;" horiz-adv-x="448" 
d="M6 195v122h60v193h372v-142h-174v-51h122v-122h-122v-195h-198v195h-60z" />
    <glyph glyph-name="uni0496" unicode="&#x496;" horiz-adv-x="1076" 
d="M1016 726v-154c-62 0 -79 -17 -95 -57l-19 -49c-20 -51 -47 -84 -109 -104c70 -20 107 -59 139 -126l42 -88h92v-302h-186v154h-52l-96 207c-24 53 -42 75 -104 75v-282h-200v282h-8c-62 0 -80 -22 -104 -75l-96 -207h-210l114 236c30 62 63 104 135 126
c-62 20 -94 54 -113 104l-19 49c-16 40 -33 57 -87 57v154c174 0 223 -55 272 -182l19 -49c16 -40 33 -57 95 -57h2v282h200v-282h2c62 0 79 17 95 57l19 49c49 127 98 182 272 182z" />
    <glyph glyph-name="uni0497" unicode="&#x497;" horiz-adv-x="866" 
d="M856 -130h-184v130h-38l-62 139c-15 33 -19 51 -50 51v-190h-198v190c-35 0 -39 -18 -54 -51l-62 -139h-194l80 168c19 40 39 67 85 82c-40 10 -55 27 -65 51l-14 32c-14 32 -23 43 -60 43v140c130 0 169 -18 218 -130l14 -32c14 -32 18 -43 52 -43v199h198v-199h6
c32 0 36 11 50 43l14 32c49 112 88 130 214 130v-140c-41 0 -50 -11 -64 -43l-14 -32c-10 -23 -26 -41 -62 -51c48 -14 69 -39 90 -82l21 -44h79v-254z" />
    <glyph glyph-name="uni049A" unicode="&#x49a;" horiz-adv-x="724" 
d="M70 0v720h200v-282h2c62 0 79 17 95 57l19 49c49 127 98 182 272 182v-154c-62 0 -79 -17 -95 -57l-19 -49c-20 -51 -47 -84 -109 -104c70 -20 107 -59 139 -126l42 -88h98v-302h-186v154h-58l-96 207c-24 53 -42 75 -104 75v-282h-200z" />
    <glyph glyph-name="uni049B" unicode="&#x49b;" horiz-adv-x="589" 
d="M54 0v510h198v-199c33 1 44 15 56 43l14 32c40 91 79 130 214 130v-140c-40 0 -51 -13 -64 -43l-14 -32c-10 -23 -30 -41 -73 -50c58 -13 81 -42 101 -83l21 -44h72v-254h-184v130h-31l-62 139c-14 31 -24 46 -50 50v-189h-198z" />
    <glyph glyph-name="uni049C" unicode="&#x49c;" horiz-adv-x="758" 
d="M70 0v720h194v-282h35v149h98v-139c17 9 27 24 36 47l19 49c49 127 98 182 266 182v-154c-62 0 -79 -17 -95 -57l-19 -49c-20 -51 -47 -84 -109 -104c76 -22 108 -63 139 -126l114 -236h-212l-96 207c-13 28 -27 51 -43 61v-137h-98v151h-35v-282h-194z" />
    <glyph glyph-name="uni049D" unicode="&#x49d;" horiz-adv-x="636" 
d="M54 0v510h192v-199h22v101h86v-90c8 7 14 18 20 32l14 32c40 91 79 130 208 130v-140c-40 0 -51 -13 -64 -43l-14 -32c-10 -23 -30 -41 -73 -50c58 -13 81 -42 101 -83l80 -168h-196l-62 139c-8 18 -10 21 -14 27v-77h-86v101h-22v-190h-192z" />
    <glyph glyph-name="uni04A2" unicode="&#x4a2;" horiz-adv-x="788" 
d="M70 0v720h200v-272h192v272h200v-572h96v-302h-186v154h-110v282h-192v-282h-200z" />
    <glyph glyph-name="uni04A3" unicode="&#x4a3;" horiz-adv-x="638" 
d="M344 0v189h-92v-189h-198v510h198v-179h92v179h198v-386h72v-254h-184v130h-86z" />
    <glyph glyph-name="uni04AE" unicode="&#x4ae;" horiz-adv-x="668" 
d="M234 0v282l-232 438h209l127 -252l127 252h201l-232 -438v-282h-200z" />
    <glyph glyph-name="uni04AF" unicode="&#x4af;" horiz-adv-x="510" 
d="M153 -210v210l-165 510h200l71 -285l71 285h192l-171 -510v-210h-198z" />
    <glyph glyph-name="uni04B0" unicode="&#x4b0;" horiz-adv-x="668" 
d="M104 160v122h130l-232 438h209l127 -252l127 252h201l-232 -438h130v-122h-130v-160h-200v160h-130z" />
    <glyph glyph-name="uni04B1" unicode="&#x4b1;" horiz-adv-x="510" 
d="M58 -93v122h95v1l-165 480h200l71 -285l71 285h192l-171 -480v-1h95v-122h-95v-117h-198v117h-95z" />
    <glyph glyph-name="uni04B2" unicode="&#x4b2;" horiz-adv-x="714" 
d="M32 0l201 372l-194 348h217l105 -211l105 211h209l-194 -348l120 -224h103v-302h-186v154h-55l-110 233l-110 -233h-211z" />
    <glyph glyph-name="uni04B3" unicode="&#x4b3;" horiz-adv-x="556" 
d="M4 0l145 265l-134 245h201l52 -126l52 126h193l-134 -245l76 -141h91v-254h-184v130h-39l-63 146l-63 -146h-193z" />
    <glyph glyph-name="uni04B6" unicode="&#x4b6;" horiz-adv-x="740" 
d="M30 720h200v-223c0 -68 33 -89 98 -89c29 0 58 4 94 15v297h200v-572h88v-302h-186v154h-102v276c-45 -15 -100 -24 -159 -24c-137 0 -233 50 -233 214v254z" />
    <glyph glyph-name="uni04B7" unicode="&#x4b7;" horiz-adv-x="616" 
d="M322 0v176c-34 -11 -76 -18 -121 -18c-104 0 -177 38 -177 163v189h198v-160c0 -46 17 -60 52 -60c14 0 29 2 48 8v212h198v-386h72v-254h-184v130h-86z" />
    <glyph glyph-name="uni04B8" unicode="&#x4b8;" horiz-adv-x="712" 
d="M386 101h-98v151h-12c-145 0 -246 49 -246 214v254h192v-223c0 -53 22 -77 66 -87v147h98v-149c19 3 40 7 64 13v299h192v-720h-192v276c-20 -6 -42 -11 -64 -15v-160z" />
    <glyph glyph-name="uni04B9" unicode="&#x4b9;" horiz-adv-x="594" 
d="M325 61h-86v97h-25c-111 0 -190 37 -190 163v189h192v-160c0 -28 7 -45 23 -55v89h86v-95c7 2 14 3 23 6v215h192v-510h-192v176l-23 -6v-109z" />
    <glyph glyph-name="uni04BA" unicode="&#x4ba;" horiz-adv-x="692" 
d="M270 720v-276c45 15 100 24 159 24c137 0 233 -50 233 -214v-254h-200v217c0 68 -33 89 -98 89c-29 0 -58 -4 -94 -15v-291h-200v720h200z" />
    <glyph glyph-name="uni04BB" unicode="&#x4bb;" horiz-adv-x="580" 
d="M252 510v-182c34 11 76 18 121 18c104 0 177 -38 177 -163v-183h-198v148c0 46 -17 60 -52 60c-14 0 -29 -2 -48 -8v-200h-198v510h198z" />
    <glyph glyph-name="uni04C0" unicode="&#x4c0;" horiz-adv-x="348" 
d="M74 0v720h200v-720h-200z" />
    <glyph glyph-name="uni04CF" unicode="&#x4cf;" horiz-adv-x="318" 
d="M60 0v720h198v-720h-198z" />
    <glyph glyph-name="uni04D8" unicode="&#x4d8;" horiz-adv-x="702" 
d="M343 146c61 0 109 42 124 140h-236c11 -105 55 -140 112 -140zM321 732c213 0 351 -126 351 -369s-138 -375 -334 -375c-188 0 -308 122 -308 371c0 32 2 52 4 71h431c-19 103 -83 136 -165 136c-66 0 -131 -21 -193 -55l-42 162c70 36 165 59 256 59z" />
    <glyph glyph-name="afii10846" unicode="&#x4d9;" horiz-adv-x="550" 
d="M271 119c31 0 53 20 60 81h-114c4 -61 22 -81 54 -81zM39 310h288c-14 62 -52 68 -87 68c-51 0 -90 -12 -146 -33l-34 138c51 22 131 39 204 39c167 0 268 -88 268 -260c0 -182 -112 -274 -263 -274c-141 0 -235 81 -235 251c0 25 2 48 5 71z" />
    <glyph glyph-name="uni04E2" unicode="&#x4e2;" horiz-adv-x="740" 
d="M670 720v-720h-192v393l-224 -393h-184v720h192v-393l224 393h184zM179 760v122h382v-122h-382z" />
    <glyph glyph-name="uni04E3" unicode="&#x4e3;" horiz-adv-x="604" 
d="M550 510v-510h-182v242l-140 -242h-174v510h182v-243l141 243h173zM112 550v122h380v-122h-380z" />
    <glyph glyph-name="uni04E8" unicode="&#x4e8;" horiz-adv-x="726" 
d="M696 362c0 -244 -142 -374 -335 -374c-191 0 -331 128 -331 370c0 244 142 374 335 374c191 0 331 -128 331 -370zM363 148c63 0 116 35 133 134h-266c17 -99 70 -134 133 -134zM363 566c-61 0 -114 -34 -132 -128h264c-18 94 -71 128 -132 128z" />
    <glyph glyph-name="uni04E9" unicode="&#x4e9;" horiz-adv-x="564" 
d="M540 257c0 -184 -118 -269 -260 -269c-140 0 -256 83 -256 265c0 184 118 269 260 269c140 0 256 -83 256 -265zM282 112c32 0 59 22 69 86h-138c10 -64 37 -86 69 -86zM282 392c-31 0 -58 -21 -68 -80h136c-10 59 -37 80 -68 80z" />
    <glyph glyph-name="uni04EE" unicode="&#x4ee;" horiz-adv-x="668" 
d="M208 238l-206 482h201l135 -327l135 327h193l-212 -482c-80 -181 -158 -244 -324 -244c-29 0 -70 2 -89 4v162c19 -3 46 -6 76 -6c79 0 117 21 144 84h-53zM143 760v122h382v-122h-382z" />
    <glyph glyph-name="uni04EF" unicode="&#x4ef;" horiz-adv-x="510" 
d="M27 -212v154c17 -3 37 -6 58 -6c51 0 78 16 97 76h-50l-144 498h200l70 -321l72 321h192l-150 -498c-53 -176 -118 -228 -270 -228c-21 0 -58 1 -75 4zM65 550v122h380v-122h-380z" />
    <glyph glyph-name="Wgrave" unicode="&#x1e80;" horiz-adv-x="962" 
d="M579 720l59 -276c12 -56 21 -120 25 -171h3c4 50 11 111 24 173l57 274h201l-175 -720h-196l-64 293c-21 96 -24 113 -31 164h-2c-7 -52 -19 -107 -32 -165l-66 -292h-196l-172 720h209l57 -274c15 -72 21 -127 25 -173h3c4 51 13 118 25 174l58 273h188zM502 910
l92 -156h-154l-152 156h214z" />
    <glyph glyph-name="wgrave" unicode="&#x1e81;" horiz-adv-x="736" 
d="M306 0h-186l-128 510h186l37 -168c8 -37 13 -77 16 -110h2c2 32 9 82 16 111l39 167h168l40 -169c8 -34 14 -78 16 -109h2c2 32 7 75 15 110l37 168h178l-131 -510h-186l-40 173c-6 26 -14 65 -18 98h-2c-4 -31 -11 -64 -19 -99zM388 720l92 -176h-152l-152 176h212z" />
    <glyph glyph-name="Wacute" unicode="&#x1e82;" horiz-adv-x="962" 
d="M579 720l59 -276c12 -56 21 -120 25 -171h3c4 50 11 111 24 173l57 274h201l-175 -720h-196l-64 293c-21 96 -24 113 -31 164h-2c-7 -52 -19 -107 -32 -165l-66 -292h-196l-172 720h209l57 -274c15 -72 21 -127 25 -173h3c4 51 13 118 25 174l58 273h188zM358 754l92 156
h214l-152 -156h-154z" />
    <glyph glyph-name="wacute" unicode="&#x1e83;" horiz-adv-x="736" 
d="M306 0h-186l-128 510h186l37 -168c8 -37 13 -77 16 -110h2c2 32 9 82 16 111l39 167h168l40 -169c8 -34 14 -78 16 -109h2c2 32 7 75 15 110l37 168h178l-131 -510h-186l-40 173c-6 26 -14 65 -18 98h-2c-4 -31 -11 -64 -19 -99zM256 544l92 176h212l-152 -176h-152z" />
    <glyph glyph-name="Wdieresis" unicode="&#x1e84;" horiz-adv-x="962" 
d="M579 720l59 -276c12 -56 21 -120 25 -171h3c4 50 11 111 24 173l57 274h201l-175 -720h-196l-64 293c-21 96 -24 113 -31 164h-2c-7 -52 -19 -107 -32 -165l-66 -292h-196l-172 720h209l57 -274c15 -72 21 -127 25 -173h3c4 51 13 118 25 174l58 273h188zM278 842
c0 50 38 88 91 88s91 -38 91 -88s-38 -88 -91 -88s-91 38 -91 88zM502 842c0 50 38 88 91 88s91 -38 91 -88s-38 -88 -91 -88s-91 38 -91 88z" />
    <glyph glyph-name="wdieresis" unicode="&#x1e85;" horiz-adv-x="736" 
d="M306 0h-186l-128 510h186l37 -168c8 -37 13 -77 16 -110h2c2 32 9 82 16 111l39 167h168l40 -169c8 -34 14 -78 16 -109h2c2 32 7 75 15 110l37 168h178l-131 -510h-186l-40 173c-6 26 -14 65 -18 98h-2c-4 -31 -11 -64 -19 -99zM166 632c0 50 38 88 90 88s90 -38 90 -88
s-38 -88 -90 -88s-90 38 -90 88zM390 632c0 50 38 88 90 88s90 -38 90 -88s-38 -88 -90 -88s-90 38 -90 88z" />
    <glyph glyph-name="uni1E8A" unicode="&#x1e8a;" horiz-adv-x="714" 
d="M675 720l-194 -348l201 -372h-219l-110 233l-110 -233h-211l201 372l-194 348h217l105 -211l105 211h209zM247 848c0 58 42 100 110 100s110 -42 110 -100s-42 -100 -110 -100s-110 42 -110 100z" />
    <glyph glyph-name="uni1E8B" unicode="&#x1e8b;" horiz-adv-x="528" 
d="M4 0l145 265l-134 245h201l52 -126l52 126h193l-134 -245l145 -265h-201l-63 146l-63 -146h-193zM373 644c0 -58 -42 -100 -109 -100s-109 42 -109 100s42 100 109 100s109 -42 109 -100z" />
    <glyph glyph-name="uni1E9E" unicode="&#x1e9e;" horiz-adv-x="1152" 
d="M30 40l44 162c63 -31 126 -56 188 -56c61 0 94 25 94 60c0 107 -308 44 -308 288c0 147 112 238 276 238c79 0 152 -21 210 -52l-44 -170c-50 31 -110 56 -163 56c-50 0 -79 -23 -79 -54c0 -101 308 -38 308 -282c0 -150 -116 -242 -291 -242c-77 0 -165 18 -235 52z
M596 40l44 162c63 -31 126 -56 188 -56c61 0 94 25 94 60c0 107 -308 44 -308 288c0 147 112 238 276 238c79 0 152 -21 210 -52l-44 -170c-50 31 -110 56 -163 56c-50 0 -79 -23 -79 -54c0 -101 308 -38 308 -282c0 -150 -116 -242 -291 -242c-77 0 -165 18 -235 52z" />
    <glyph glyph-name="Ygrave" unicode="&#x1ef2;" horiz-adv-x="668" 
d="M234 0v282l-232 438h209l127 -252l127 252h201l-232 -438v-282h-200zM355 910l92 -156h-154l-152 156h214z" />
    <glyph glyph-name="ygrave" unicode="&#x1ef3;" horiz-adv-x="510" 
d="M27 -212v154c17 -3 37 -6 58 -6c51 0 78 16 97 76h-50l-144 498h200l70 -321l72 321h192l-150 -498c-53 -176 -118 -228 -270 -228c-21 0 -58 1 -75 4zM275 720l92 -176h-152l-152 176h212z" />
    <glyph glyph-name="uni2007" unicode="&#x2007;" horiz-adv-x="654" 
 />
    <glyph glyph-name="uni2008" unicode="&#x2008;" horiz-adv-x="310" 
 />
    <glyph glyph-name="uni200B" unicode="&#x200b;" horiz-adv-x="0" 
 />
    <glyph glyph-name="endash" unicode="&#x2013;" horiz-adv-x="500" 
d="M30 230v163h440v-163h-440z" />
    <glyph glyph-name="emdash" unicode="&#x2014;" 
d="M30 230v163h940v-163h-940z" />
    <glyph glyph-name="afii00208" unicode="&#x2015;" 
d="M30 230v163h940v-163h-940z" />
    <glyph glyph-name="quoteleft" unicode="&#x2018;" horiz-adv-x="294" 
d="M277 654c-66 -38 -98 -77 -113 -114c56 -6 92 -47 92 -101c0 -58 -42 -102 -109 -102c-75 0 -127 54 -127 149c0 82 39 168 175 246z" />
    <glyph glyph-name="quoteright" unicode="&#x2019;" horiz-adv-x="294" 
d="M17 415c66 38 98 77 113 114c-56 6 -92 47 -92 101c0 58 42 102 109 102c75 0 127 -54 127 -149c0 -82 -39 -168 -175 -246z" />
    <glyph glyph-name="quotesinglbase" unicode="&#x201a;" horiz-adv-x="294" 
d="M17 -109c66 38 98 77 113 114c-56 6 -92 47 -92 101c0 58 42 102 109 102c75 0 127 -54 127 -149c0 -82 -39 -168 -175 -246z" />
    <glyph glyph-name="quotedblleft" unicode="&#x201c;" horiz-adv-x="554" 
d="M277 654c-66 -38 -98 -77 -113 -114c56 -6 92 -47 92 -101c0 -58 -42 -102 -109 -102c-75 0 -127 54 -127 149c0 82 39 168 175 246zM537 654c-66 -38 -98 -77 -113 -114c56 -6 92 -47 92 -101c0 -58 -42 -102 -109 -102c-75 0 -127 54 -127 149c0 82 39 168 175 246z
" />
    <glyph glyph-name="quotedblright" unicode="&#x201d;" horiz-adv-x="554" 
d="M17 415c66 38 98 77 113 114c-56 6 -92 47 -92 101c0 58 42 102 109 102c75 0 127 -54 127 -149c0 -82 -39 -168 -175 -246zM277 415c66 38 98 77 113 114c-56 6 -92 47 -92 101c0 58 42 102 109 102c75 0 127 -54 127 -149c0 -82 -39 -168 -175 -246z" />
    <glyph glyph-name="quotedblbase" unicode="&#x201e;" horiz-adv-x="554" 
d="M17 -109c66 38 98 77 113 114c-56 6 -92 47 -92 101c0 58 42 102 109 102c75 0 127 -54 127 -149c0 -82 -39 -168 -175 -246zM277 -109c66 38 98 77 113 114c-56 6 -92 47 -92 101c0 58 42 102 109 102c75 0 127 -54 127 -149c0 -82 -39 -168 -175 -246z" />
    <glyph glyph-name="dagger" unicode="&#x2020;" horiz-adv-x="572" 
d="M381 -83h-190l26 452l-157 -18v166l152 -18l-21 181h190l-21 -181l152 18v-166l-157 18z" />
    <glyph glyph-name="daggerdbl" unicode="&#x2021;" horiz-adv-x="572" 
d="M60 226l157 -18v181l-157 -18v166l152 -18l-21 161h190l-21 -161l152 18v-166l-157 18v-181l157 18v-166l-152 17l21 -160h-190l21 160l-152 -17v166z" />
    <glyph glyph-name="bullet" unicode="&#x2022;" horiz-adv-x="462" 
d="M374 351c0 -82 -61 -143 -143 -143s-143 61 -143 143s61 143 143 143s143 -61 143 -143z" />
    <glyph glyph-name="onedotenleader" unicode="&#x2024;" horiz-adv-x="310" 
d="M40 98c0 62 47 110 115 110s115 -48 115 -110s-47 -110 -115 -110s-115 48 -115 110z" />
    <glyph glyph-name="twodotenleader" unicode="&#x2025;" horiz-adv-x="570" 
d="M300 98c0 62 47 110 115 110s115 -48 115 -110s-47 -110 -115 -110s-115 48 -115 110zM40 98c0 62 47 110 115 110s115 -48 115 -110s-47 -110 -115 -110s-115 48 -115 110z" />
    <glyph glyph-name="ellipsis" unicode="&#x2026;" horiz-adv-x="830" 
d="M560 98c0 62 47 110 115 110s115 -48 115 -110s-47 -110 -115 -110s-115 48 -115 110zM300 98c0 62 47 110 115 110s115 -48 115 -110s-47 -110 -115 -110s-115 48 -115 110zM40 98c0 62 47 110 115 110s115 -48 115 -110s-47 -110 -115 -110s-115 48 -115 110z" />
    <glyph glyph-name="perthousand" unicode="&#x2030;" horiz-adv-x="1228" 
d="M1051 164c0 48 -11 70 -33 70s-33 -22 -33 -70s11 -70 33 -70s33 22 33 70zM1192 167c0 -97 -66 -173 -175 -173c-107 0 -173 74 -173 171s66 173 175 173c107 0 173 -74 173 -171zM243 552c0 48 -11 70 -33 70s-33 -22 -33 -70s11 -70 33 -70s33 22 33 70zM384 555
c0 -97 -66 -173 -175 -173c-107 0 -173 74 -173 171s66 173 175 173c107 0 173 -74 173 -171zM568 720h167l-447 -720h-167zM679 164c0 48 -11 70 -33 70s-33 -22 -33 -70s11 -70 33 -70s33 22 33 70zM820 167c0 -97 -66 -173 -175 -173c-107 0 -173 74 -173 171
s66 173 175 173c107 0 173 -74 173 -171z" />
    <glyph glyph-name="minute" unicode="&#x2032;" horiz-adv-x="230" 
d="M32 417l14 303h154l-34 -303h-134z" />
    <glyph glyph-name="second" unicode="&#x2033;" horiz-adv-x="436" 
d="M32 417l14 303h154l-34 -303h-134zM238 417l14 303h154l-34 -303h-134z" />
    <glyph glyph-name="guilsinglleft" unicode="&#x2039;" horiz-adv-x="350" 
d="M154 24l-138 231l138 231h178l-131 -231l131 -231h-178z" />
    <glyph glyph-name="guilsinglright" unicode="&#x203a;" horiz-adv-x="350" 
d="M334 255l-138 -231h-178l131 231l-131 231h178z" />
    <glyph glyph-name="exclamdbl" unicode="&#x203c;" horiz-adv-x="612" 
d="M328 90c0 58 45 102 111 102s111 -44 111 -102s-45 -102 -111 -102s-111 44 -111 102zM360 236l-36 484h230l-36 -484h-158zM62 90c0 58 45 102 111 102s111 -44 111 -102s-45 -102 -111 -102s-111 44 -111 102zM94 236l-36 484h230l-36 -484h-158z" />
    <glyph glyph-name="fraction" unicode="&#x2044;" horiz-adv-x="172" 
d="M-173 0l457 720h157l-457 -720h-157z" />
    <glyph glyph-name="uni2070" unicode="&#x2070;" horiz-adv-x="412" 
d="M390 604c0 -153 -79 -232 -185 -232s-183 79 -183 230c0 153 79 232 185 232s183 -79 183 -230zM260 601c0 98 -23 125 -54 125s-54 -27 -54 -125s23 -125 54 -125s54 27 54 125z" />
    <glyph glyph-name="uni2071" unicode="&#x2071;" horiz-adv-x="202" 
d="M36 380v316h130v-316h-130zM170 784c0 -38 -26 -65 -69 -65s-69 27 -69 65s26 65 69 65s69 -27 69 -65z" />
    <glyph glyph-name="uni2074" unicode="&#x2074;" horiz-adv-x="412" 
d="M12 460v97l190 269h142v-263h62v-103h-62v-80h-127v80h-205zM138 563h79v113z" />
    <glyph glyph-name="uni2075" unicode="&#x2075;" horiz-adv-x="350" 
d="M4 400l29 108c37 -17 68 -31 109 -31c46 0 68 17 68 48c0 34 -27 48 -80 48c-25 0 -62 -3 -107 -15l9 268h289v-108h-166l-2 -48c11 1 19 1 27 1c101 0 161 -56 161 -144c0 -99 -76 -155 -194 -155c-53 0 -103 11 -143 28z" />
    <glyph glyph-name="uni2076" unicode="&#x2076;" horiz-adv-x="386" 
d="M230 834c42 0 86 -9 118 -26l-29 -110c-30 15 -57 27 -89 27c-38 0 -66 -16 -77 -74c30 28 60 33 84 33c82 0 133 -58 133 -147c0 -108 -76 -165 -166 -165c-106 0 -182 79 -182 227c0 157 85 235 208 235zM200 582c-15 0 -29 -5 -50 -21c5 -69 29 -89 55 -89
c24 0 41 19 41 55c0 37 -18 55 -46 55z" />
    <glyph glyph-name="uni2077" unicode="&#x2077;" horiz-adv-x="299" 
d="M164 380h-143c42 121 85 231 137 334h-163v112h309v-106c-53 -105 -97 -216 -140 -340z" />
    <glyph glyph-name="uni2078" unicode="&#x2078;" horiz-adv-x="378" 
d="M10 501c0 56 33 83 76 101c-36 20 -58 51 -58 98c0 81 64 134 166 134c97 0 155 -48 155 -119c0 -44 -22 -77 -62 -97c45 -16 81 -45 81 -106c0 -87 -72 -140 -184 -140c-109 0 -174 50 -174 129zM237 503c0 29 -25 43 -60 58c-23 -14 -36 -30 -36 -55
c0 -30 18 -45 47 -45c31 0 49 16 49 42zM154 707c0 -22 17 -36 42 -48c16 13 27 27 27 47c0 22 -13 35 -34 35c-20 0 -35 -13 -35 -34z" />
    <glyph glyph-name="uni2079" unicode="&#x2079;" horiz-adv-x="386" 
d="M156 372c-42 0 -86 9 -118 26l29 105c30 -15 57 -27 89 -27c39 0 68 17 77 80c-30 -30 -61 -34 -83 -34c-83 0 -134 58 -134 147c0 109 77 165 166 165c106 0 182 -79 182 -227c0 -157 -85 -235 -208 -235zM186 619c15 0 29 5 50 21c-6 69 -30 89 -55 89
c-24 0 -41 -19 -41 -55c0 -37 18 -55 46 -55z" />
    <glyph glyph-name="uni207A" unicode="&#x207a;" horiz-adv-x="364" 
d="M233 380h-102v108h-100v100h100v108h102v-108h100v-100h-100v-108z" />
    <glyph glyph-name="uni207B" unicode="&#x207b;" horiz-adv-x="364" 
d="M333 588v-100h-302v100h302z" />
    <glyph glyph-name="uni207C" unicode="&#x207c;" horiz-adv-x="364" 
d="M333 518v-87h-302v87h302zM333 645v-87h-302v87h302z" />
    <glyph glyph-name="uni207D" unicode="&#x207d;" horiz-adv-x="239" 
d="M146 556c0 -110 36 -177 84 -231l-66 -59c-63 55 -148 140 -148 290s85 235 148 290l66 -59c-48 -54 -84 -121 -84 -231z" />
    <glyph glyph-name="uni207E" unicode="&#x207e;" horiz-adv-x="239" 
d="M75 266l-66 59c48 54 84 121 84 231s-36 177 -84 231l66 59c63 -55 148 -140 148 -290s-85 -235 -148 -290z" />
    <glyph glyph-name="uni207F" unicode="&#x207f;" horiz-adv-x="370" 
d="M35 696h130v-31c27 26 59 39 96 39c49 0 83 -22 83 -89v-235h-130v192c0 18 -5 23 -17 23c-10 0 -20 -4 -32 -13v-202h-130v316z" />
    <glyph glyph-name="uni2080" unicode="&#x2080;" horiz-adv-x="412" 
d="M390 118c0 -153 -79 -232 -185 -232s-183 79 -183 230c0 153 79 232 185 232s183 -79 183 -230zM260 115c0 98 -23 125 -54 125s-54 -27 -54 -125s23 -125 54 -125s54 27 54 125z" />
    <glyph glyph-name="uni2081" unicode="&#x2081;" horiz-adv-x="271" 
d="M43 179l-33 105l110 56h103v-446h-130v311z" />
    <glyph glyph-name="uni2082" unicode="&#x2082;" horiz-adv-x="361" 
d="M339 -2v-104h-324v93c141 108 181 169 181 208c0 24 -16 40 -46 40c-36 0 -72 -24 -100 -53l-35 108c32 31 89 58 155 58c94 0 157 -55 157 -141c0 -82 -57 -148 -128 -209h140z" />
    <glyph glyph-name="uni2083" unicode="&#x2083;" horiz-adv-x="356" 
d="M169 348c93 0 160 -39 160 -116c0 -49 -27 -86 -77 -108c60 -17 88 -53 88 -103c0 -85 -76 -135 -193 -135c-55 0 -104 11 -144 28l28 106c37 -17 71 -31 111 -31s61 14 61 39c0 26 -22 40 -82 40c-16 0 -32 -1 -51 -2v94c105 0 129 17 129 45c0 23 -16 35 -47 35
s-64 -12 -104 -33l-29 105c44 22 94 36 150 36z" />
    <glyph glyph-name="uni2084" unicode="&#x2084;" horiz-adv-x="412" 
d="M12 -26v97l190 269h142v-263h62v-103h-62v-80h-127v80h-205zM138 77h79v113z" />
    <glyph glyph-name="uni2085" unicode="&#x2085;" horiz-adv-x="350" 
d="M4 -86l29 108c37 -17 68 -31 109 -31c46 0 68 17 68 48c0 34 -27 48 -80 48c-25 0 -62 -3 -107 -15l9 268h289v-108h-166l-2 -48c11 1 19 1 27 1c101 0 161 -56 161 -144c0 -99 -76 -155 -194 -155c-53 0 -103 11 -143 28z" />
    <glyph glyph-name="uni2086" unicode="&#x2086;" horiz-adv-x="386" 
d="M230 348c42 0 86 -9 118 -26l-29 -110c-30 15 -57 27 -89 27c-38 0 -66 -16 -77 -74c30 28 60 33 84 33c82 0 133 -58 133 -147c0 -108 -76 -165 -166 -165c-106 0 -182 79 -182 227c0 157 85 235 208 235zM200 96c-15 0 -29 -5 -50 -21c5 -69 29 -89 55 -89
c24 0 41 19 41 55c0 37 -18 55 -46 55z" />
    <glyph glyph-name="uni2087" unicode="&#x2087;" horiz-adv-x="299" 
d="M164 -106h-143c42 121 85 231 137 334h-163v112h309v-106c-53 -105 -97 -216 -140 -340z" />
    <glyph glyph-name="uni2088" unicode="&#x2088;" horiz-adv-x="378" 
d="M10 15c0 56 33 83 76 101c-36 20 -58 51 -58 98c0 81 64 134 166 134c97 0 155 -48 155 -119c0 -44 -22 -77 -62 -97c45 -16 81 -45 81 -106c0 -87 -72 -140 -184 -140c-109 0 -174 50 -174 129zM237 17c0 29 -25 43 -60 58c-23 -14 -36 -30 -36 -55c0 -30 18 -45 47 -45
c31 0 49 16 49 42zM154 221c0 -22 17 -36 42 -48c16 13 27 27 27 47c0 22 -13 35 -34 35c-20 0 -35 -13 -35 -34z" />
    <glyph glyph-name="uni2089" unicode="&#x2089;" horiz-adv-x="386" 
d="M156 -114c-42 0 -86 9 -118 26l29 105c30 -15 57 -27 89 -27c39 0 68 17 77 80c-30 -30 -61 -34 -83 -34c-83 0 -134 58 -134 147c0 109 77 165 166 165c106 0 182 -79 182 -227c0 -157 -85 -235 -208 -235zM186 133c15 0 29 5 50 21c-6 69 -30 89 -55 89
c-24 0 -41 -19 -41 -55c0 -37 18 -55 46 -55z" />
    <glyph glyph-name="uni208A" unicode="&#x208a;" horiz-adv-x="364" 
d="M233 -106h-102v108h-100v100h100v108h102v-108h100v-100h-100v-108z" />
    <glyph glyph-name="uni208B" unicode="&#x208b;" horiz-adv-x="364" 
d="M333 102v-100h-302v100h302z" />
    <glyph glyph-name="uni208C" unicode="&#x208c;" horiz-adv-x="364" 
d="M333 32v-87h-302v87h302zM333 159v-87h-302v87h302z" />
    <glyph glyph-name="uni208D" unicode="&#x208d;" horiz-adv-x="239" 
d="M146 70c0 -110 36 -177 84 -231l-66 -59c-63 55 -148 140 -148 290s85 235 148 290l66 -59c-48 -54 -84 -121 -84 -231z" />
    <glyph glyph-name="uni208E" unicode="&#x208e;" horiz-adv-x="239" 
d="M75 -220l-66 59c48 54 84 121 84 231s-36 177 -84 231l66 59c63 -55 148 -140 148 -290s-85 -235 -148 -290z" />
    <glyph glyph-name="Euro" unicode="&#x20ac;" horiz-adv-x="622" 
d="M20 380v114h103c42 155 156 238 305 238c76 0 125 -21 162 -42l-42 -162c-43 27 -75 46 -118 46c-48 0 -88 -24 -111 -80h157v-114h-178v-48h178v-114h-157c23 -57 65 -80 117 -80c43 0 80 16 116 42l42 -146c-48 -26 -112 -46 -185 -46c-145 0 -251 79 -288 230h-101
v114h86v48h-86z" />
    <glyph glyph-name="uni20B1" unicode="&#x20b1;" horiz-adv-x="650" 
d="M70 0v413h-80v114h80v193h251c156 0 257 -64 278 -193h61v-114h-62c-24 -125 -130 -187 -292 -187h-38v-226h-198zM268 362h42c49 0 78 16 91 51h-133v-51zM268 578v-51h133c-13 35 -42 51 -91 51h-42z" />
    <glyph glyph-name="uni20B4" unicode="&#x20b4;" horiz-adv-x="632" 
d="M20 380v114h353c2 6 4 12 4 20c0 42 -38 60 -84 60c-53 0 -104 -23 -150 -50l-44 154c65 33 138 54 221 54c154 0 256 -72 256 -211c0 -10 -1 -19 -2 -27h38v-114h-102c-21 -20 -51 -36 -82 -48h184v-114h-356c-1 -4 -1 -8 -1 -12c0 -48 46 -68 104 -68
c60 0 116 21 173 50l42 -146c-71 -33 -150 -54 -242 -54c-165 0 -276 67 -276 215v15h-36v114h88c17 20 42 35 69 48h-157z" />
    <glyph glyph-name="afii61289" unicode="&#x2113;" horiz-adv-x="572" 
d="M450 16c-36 -16 -81 -28 -145 -28c-122 0 -227 42 -227 192v12c-33 -2 -67 -3 -104 -3l23 132c37 0 70 1 101 4l37 211c20 115 93 196 215 196c115 0 198 -72 198 -197c0 -112 -67 -246 -281 -310c-2 -11 -2 -20 -2 -27c0 -54 27 -70 76 -70c36 0 63 9 99 25zM319 524
l-26 -146c83 46 103 110 103 157c0 42 -16 52 -32 52c-21 0 -37 -16 -45 -63z" />
    <glyph glyph-name="afii61352" unicode="&#x2116;" horiz-adv-x="1107" 
d="M864 518c0 -48 11 -70 33 -70s33 22 33 70s-11 70 -33 70s-33 -22 -33 -70zM1071 521c0 -97 -66 -173 -175 -173c-107 0 -173 74 -173 171s66 173 175 173c107 0 173 -74 173 -171zM70 0v720h208l208 -354v354h184v-720h-168l-248 419v-419h-184z" />
    <glyph glyph-name="uni2117" unicode="&#x2117;" horiz-adv-x="838" 
d="M280 176v366h161c102 0 163 -44 163 -131s-65 -131 -172 -131h-16v-104h-136zM416 442v-68h13c27 0 39 11 39 34s-12 34 -39 34h-13zM704 360c0 166 -124 290 -282 290s-282 -124 -282 -290s124 -290 282 -290s282 124 282 290zM794 360c0 -213 -163 -372 -372 -372
s-372 159 -372 372s163 372 372 372s372 -159 372 -372z" />
    <glyph glyph-name="uni2120" unicode="&#x2120;" horiz-adv-x="826" 
d="M604 720h149l32 -340h-121l-6 137c-1 23 -1 55 0 68h-2c-1 -8 -10 -48 -14 -62l-39 -143h-107l-39 143c-5 18 -12 47 -14 62h-2c1 -13 1 -44 0 -68l-6 -137h-115l34 340h153l32 -133c7 -28 10 -44 13 -69h2c3 26 9 48 14 68zM20 397l22 93c32 -13 66 -26 94 -26
c22 0 33 8 33 19c0 37 -138 13 -138 126c0 71 54 118 145 118c40 0 77 -9 108 -22l-22 -99c-28 15 -52 26 -78 26c-18 0 -28 -5 -28 -15c0 -35 138 -9 138 -123c0 -73 -57 -121 -154 -121c-43 0 -85 9 -120 24z" />
    <glyph glyph-name="trademark" unicode="&#x2122;" horiz-adv-x="818" 
d="M596 720h149l32 -340h-121l-6 137c-1 23 -1 55 0 68h-2c-1 -8 -10 -48 -14 -62l-39 -143h-107l-39 143c-5 18 -12 47 -14 62h-2c1 -13 1 -44 0 -68l-6 -137h-115l34 340h153l32 -133c7 -28 10 -44 13 -69h2c3 26 9 48 14 68zM94 380v245h-85v95h296v-95h-85v-245h-126z
" />
    <glyph glyph-name="Omega" unicode="&#x2126;" horiz-adv-x="726" 
d="M363 567c-73 0 -133 -45 -133 -179c0 -99 32 -163 89 -252v-136h-319v160h131c-66 63 -101 149 -101 248c0 198 142 324 335 324c191 0 331 -124 331 -320c0 -100 -36 -190 -101 -252h131v-160h-319v136c57 89 89 153 89 252c0 134 -60 179 -133 179z" />
    <glyph glyph-name="estimated" unicode="&#x212e;" horiz-adv-x="736" 
d="M676 245h-403v-193c29 -15 60 -24 96 -24c63 0 117 27 152 68h91c-56 -65 -144 -108 -243 -108c-169 0 -309 125 -309 277s140 277 308 277s308 -125 308 -277v-20zM368 502c-35 0 -66 -9 -95 -24v-193h190v193c-29 15 -60 24 -95 24z" />
    <glyph glyph-name="uni2150" unicode="&#x2150;" horiz-adv-x="881" 
d="M99 0l457 720h157l-457 -720h-157zM746 0h-143c42 121 85 231 137 334h-163v112h309v-106c-53 -105 -97 -216 -140 -340zM43 559l-33 105l110 56h103v-446h-130v311z" />
    <glyph glyph-name="uni2151" unicode="&#x2151;" horiz-adv-x="901" 
d="M99 0l457 720h157l-457 -720h-157zM671 -5c-42 0 -86 9 -118 26l29 105c30 -15 57 -27 89 -27c39 0 68 17 77 80c-30 -30 -61 -34 -83 -34c-83 0 -134 58 -134 147c0 109 77 165 166 165c106 0 182 -79 182 -227c0 -157 -85 -235 -208 -235zM701 242c15 0 29 5 50 21
c-6 69 -30 89 -55 89c-24 0 -41 -19 -41 -55c0 -37 18 -55 46 -55zM43 559l-33 105l110 56h103v-446h-130v311z" />
    <glyph glyph-name="uni2152" unicode="&#x2152;" horiz-adv-x="1180" 
d="M99 0l457 720h157l-457 -720h-157zM575 285l-33 105l110 56h103v-446h-130v311zM1158 224c0 -153 -79 -232 -185 -232s-183 79 -183 230c0 153 79 232 185 232s183 -79 183 -230zM1028 221c0 98 -23 125 -54 125s-54 -27 -54 -125s23 -125 54 -125s54 27 54 125zM43 559
l-33 105l110 56h103v-446h-130v311z" />
    <glyph glyph-name="onethird" unicode="&#x2153;" horiz-adv-x="894" 
d="M99 0l457 720h157l-457 -720h-157zM707 454c93 0 160 -39 160 -116c0 -49 -27 -86 -77 -108c60 -17 88 -53 88 -103c0 -85 -76 -135 -193 -135c-55 0 -104 11 -144 28l28 106c37 -17 71 -31 111 -31s61 14 61 39c0 26 -22 40 -82 40c-16 0 -32 -1 -51 -2v94
c105 0 129 17 129 45c0 23 -16 35 -47 35s-64 -12 -104 -33l-29 105c44 22 94 36 150 36zM43 559l-33 105l110 56h103v-446h-130v311z" />
    <glyph glyph-name="twothirds" unicode="&#x2154;" horiz-adv-x="1015" 
d="M220 0l457 720h157l-457 -720h-157zM359 378v-104h-324v93c141 108 181 169 181 208c0 24 -16 40 -46 40c-36 0 -72 -24 -100 -53l-35 108c32 31 89 58 155 58c94 0 157 -55 157 -141c0 -82 -57 -148 -128 -209h140zM828 454c93 0 160 -39 160 -116
c0 -49 -27 -86 -77 -108c60 -17 88 -53 88 -103c0 -85 -76 -135 -193 -135c-55 0 -104 11 -144 28l28 106c37 -17 71 -31 111 -31s61 14 61 39c0 26 -22 40 -82 40c-16 0 -32 -1 -51 -2v94c105 0 129 17 129 45c0 23 -16 35 -47 35s-64 -12 -104 -33l-29 105
c44 22 94 36 150 36z" />
    <glyph glyph-name="uni2155" unicode="&#x2155;" horiz-adv-x="903" 
d="M99 0l457 720h157l-457 -720h-157zM546 20l29 108c37 -17 68 -31 109 -31c46 0 68 17 68 48c0 34 -27 48 -80 48c-25 0 -62 -3 -107 -15l9 268h289v-108h-166l-2 -48c11 1 19 1 27 1c101 0 161 -56 161 -144c0 -99 -76 -155 -194 -155c-53 0 -103 11 -143 28zM43 559
l-33 105l110 56h103v-446h-130v311z" />
    <glyph glyph-name="uni2156" unicode="&#x2156;" horiz-adv-x="1024" 
d="M220 0l457 720h157l-457 -720h-157zM667 20l29 108c37 -17 68 -31 109 -31c46 0 68 17 68 48c0 34 -27 48 -80 48c-25 0 -62 -3 -107 -15l9 268h289v-108h-166l-2 -48c11 1 19 1 27 1c101 0 161 -56 161 -144c0 -99 -76 -155 -194 -155c-53 0 -103 11 -143 28zM359 378
v-104h-324v93c141 108 181 169 181 208c0 24 -16 40 -46 40c-36 0 -72 -24 -100 -53l-35 108c32 31 89 58 155 58c94 0 157 -55 157 -141c0 -82 -57 -148 -128 -209h140z" />
    <glyph glyph-name="uni2157" unicode="&#x2157;" horiz-adv-x="964" 
d="M170 0l457 720h157l-457 -720h-157zM617 20l29 108c37 -17 68 -31 109 -31c46 0 68 17 68 48c0 34 -27 48 -80 48c-25 0 -62 -3 -107 -15l9 268h289v-108h-166l-2 -48c11 1 19 1 27 1c101 0 161 -56 161 -144c0 -99 -76 -155 -194 -155c-53 0 -103 11 -143 28zM169 728
c93 0 160 -39 160 -116c0 -49 -27 -86 -77 -108c60 -17 88 -53 88 -103c0 -85 -76 -135 -193 -135c-55 0 -104 11 -144 28l28 106c37 -17 71 -31 111 -31s61 14 61 39c0 26 -22 40 -82 40c-16 0 -32 -1 -51 -2v94c105 0 129 17 129 45c0 23 -16 35 -47 35s-64 -12 -104 -33
l-29 105c44 22 94 36 150 36z" />
    <glyph glyph-name="uni2158" unicode="&#x2158;" horiz-adv-x="1012" 
d="M218 0l457 720h157l-457 -720h-157zM12 354v97l190 269h142v-263h62v-103h-62v-80h-127v80h-205zM138 457h79v113zM665 20l29 108c37 -17 68 -31 109 -31c46 0 68 17 68 48c0 34 -27 48 -80 48c-25 0 -62 -3 -107 -15l9 268h289v-108h-166l-2 -48c11 1 19 1 27 1
c101 0 161 -56 161 -144c0 -99 -76 -155 -194 -155c-53 0 -103 11 -143 28z" />
    <glyph glyph-name="uni2159" unicode="&#x2159;" horiz-adv-x="853" 
d="M99 0l457 720h157l-457 -720h-157zM703 454c42 0 86 -9 118 -26l-29 -110c-30 15 -57 27 -89 27c-38 0 -66 -16 -77 -74c30 28 60 33 84 33c82 0 133 -58 133 -147c0 -108 -76 -165 -166 -165c-106 0 -182 79 -182 227c0 157 85 235 208 235zM673 202
c-15 0 -29 -5 -50 -21c5 -69 29 -89 55 -89c24 0 41 19 41 55c0 37 -18 55 -46 55zM43 559l-33 105l110 56h103v-446h-130v311z" />
    <glyph glyph-name="uni215A" unicode="&#x215a;" horiz-adv-x="900" 
d="M152 0l457 720h157l-457 -720h-157zM4 272l29 108c37 -17 68 -31 109 -31c46 0 68 17 68 48c0 34 -27 48 -80 48c-25 0 -62 -3 -107 -15l9 268h289v-108h-166l-2 -48c11 1 19 1 27 1c101 0 161 -56 161 -144c0 -99 -76 -155 -194 -155c-53 0 -103 11 -143 28zM750 454
c42 0 86 -9 118 -26l-29 -110c-30 15 -57 27 -89 27c-38 0 -66 -16 -77 -74c30 28 60 33 84 33c82 0 133 -58 133 -147c0 -108 -76 -165 -166 -165c-106 0 -182 79 -182 227c0 157 85 235 208 235zM720 202c-15 0 -29 -5 -50 -21c5 -69 29 -89 55 -89c24 0 41 19 41 55
c0 37 -18 55 -46 55z" />
    <glyph glyph-name="oneeighth" unicode="&#x215b;" horiz-adv-x="877" 
d="M99 0l457 720h157l-457 -720h-157zM509 121c0 56 33 83 76 101c-36 20 -58 51 -58 98c0 81 64 134 166 134c97 0 155 -48 155 -119c0 -44 -22 -77 -62 -97c45 -16 81 -45 81 -106c0 -87 -72 -140 -184 -140c-109 0 -174 50 -174 129zM736 123c0 29 -25 43 -60 58
c-23 -14 -36 -30 -36 -55c0 -30 18 -45 47 -45c31 0 49 16 49 42zM653 327c0 -22 17 -36 42 -48c16 13 27 27 27 47c0 22 -13 35 -34 35c-20 0 -35 -13 -35 -34zM43 559l-33 105l110 56h103v-446h-130v311z" />
    <glyph glyph-name="threeeighths" unicode="&#x215c;" horiz-adv-x="948" 
d="M170 0l457 720h157l-457 -720h-157zM580 121c0 56 33 83 76 101c-36 20 -58 51 -58 98c0 81 64 134 166 134c97 0 155 -48 155 -119c0 -44 -22 -77 -62 -97c45 -16 81 -45 81 -106c0 -87 -72 -140 -184 -140c-109 0 -174 50 -174 129zM807 123c0 29 -25 43 -60 58
c-23 -14 -36 -30 -36 -55c0 -30 18 -45 47 -45c31 0 49 16 49 42zM724 327c0 -22 17 -36 42 -48c16 13 27 27 27 47c0 22 -13 35 -34 35c-20 0 -35 -13 -35 -34zM169 728c93 0 160 -39 160 -116c0 -49 -27 -86 -77 -108c60 -17 88 -53 88 -103c0 -85 -76 -135 -193 -135
c-55 0 -104 11 -144 28l28 106c37 -17 71 -31 111 -31s61 14 61 39c0 26 -22 40 -82 40c-16 0 -32 -1 -51 -2v94c105 0 129 17 129 45c0 23 -16 35 -47 35s-64 -12 -104 -33l-29 105c44 22 94 36 150 36z" />
    <glyph glyph-name="fiveeighths" unicode="&#x215d;" horiz-adv-x="924" 
d="M146 0l457 720h157l-457 -720h-157zM556 121c0 56 33 83 76 101c-36 20 -58 51 -58 98c0 81 64 134 166 134c97 0 155 -48 155 -119c0 -44 -22 -77 -62 -97c45 -16 81 -45 81 -106c0 -87 -72 -140 -184 -140c-109 0 -174 50 -174 129zM783 123c0 29 -25 43 -60 58
c-23 -14 -36 -30 -36 -55c0 -30 18 -45 47 -45c31 0 49 16 49 42zM700 327c0 -22 17 -36 42 -48c16 13 27 27 27 47c0 22 -13 35 -34 35c-20 0 -35 -13 -35 -34zM4 294l29 108c37 -17 68 -31 109 -31c46 0 68 17 68 48c0 34 -27 48 -80 48c-25 0 -62 -3 -107 -15l9 268h289
v-108h-166l-2 -48c11 1 19 1 27 1c101 0 161 -56 161 -144c0 -99 -76 -155 -194 -155c-53 0 -103 11 -143 28z" />
    <glyph glyph-name="seveneighths" unicode="&#x215e;" horiz-adv-x="812" 
d="M34 0l457 720h157l-457 -720h-157zM164 274h-143c42 121 85 231 137 334h-163v112h309v-106c-53 -105 -97 -216 -140 -340zM444 121c0 56 33 83 76 101c-36 20 -58 51 -58 98c0 81 64 134 166 134c97 0 155 -48 155 -119c0 -44 -22 -77 -62 -97c45 -16 81 -45 81 -106
c0 -87 -72 -140 -184 -140c-109 0 -174 50 -174 129zM671 123c0 29 -25 43 -60 58c-23 -14 -36 -30 -36 -55c0 -30 18 -45 47 -45c31 0 49 16 49 42zM588 327c0 -22 17 -36 42 -48c16 13 27 27 27 47c0 22 -13 35 -34 35c-20 0 -35 -13 -35 -34z" />
    <glyph glyph-name="uni215F" unicode="&#x215f;" horiz-adv-x="753" 
d="M99 0l457 720h157l-457 -720h-157zM43 559l-33 105l110 56h103v-446h-130v311z" />
    <glyph glyph-name="uni2189" unicode="&#x2189;" horiz-adv-x="991" 
d="M196 0l457 720h157l-457 -720h-157zM410 498c0 -153 -79 -232 -185 -232s-183 79 -183 230c0 153 79 232 185 232s183 -79 183 -230zM280 495c0 98 -23 125 -54 125s-54 -27 -54 -125s23 -125 54 -125s54 27 54 125zM804 454c93 0 160 -39 160 -116
c0 -49 -27 -86 -77 -108c60 -17 88 -53 88 -103c0 -85 -76 -135 -193 -135c-55 0 -104 11 -144 28l28 106c37 -17 71 -31 111 -31s61 14 61 39c0 26 -22 40 -82 40c-16 0 -32 -1 -51 -2v94c105 0 129 17 129 45c0 23 -16 35 -47 35s-64 -12 -104 -33l-29 105
c44 22 94 36 150 36z" />
    <glyph glyph-name="arrowleft" unicode="&#x2190;" 
d="M866 385v-152h-335c-57 0 -93 1 -116 4v-2c10 -7 56 -49 73 -66l66 -66l-107 -107l-313 313l313 313l107 -107l-66 -66c-23 -23 -66 -61 -73 -66v-2c23 3 59 4 116 4h335z" />
    <glyph glyph-name="arrowup" unicode="&#x2191;" 
d="M578 0h-156v335c0 57 1 93 4 116h-2c-12 -15 -33 -39 -66 -73l-64 -66l-107 107l313 313l313 -313l-107 -107l-64 66c-33 34 -54 58 -66 73h-2c3 -23 4 -59 4 -116v-335z" />
    <glyph glyph-name="arrowright" unicode="&#x2192;" 
d="M134 233v152h335c57 0 93 -1 116 -4v2c-7 5 -50 43 -73 66l-66 66l107 107l313 -313l-313 -313l-107 107l66 66c17 17 63 59 73 66v2c-23 -3 -59 -4 -116 -4h-335z" />
    <glyph glyph-name="arrowdown" unicode="&#x2193;" 
d="M422 720h156v-335c0 -57 -1 -93 -4 -116h2c12 15 33 39 66 73l64 66l107 -107l-313 -313l-313 313l107 107l64 -66c33 -34 54 -58 66 -73h2c-3 23 -4 59 -4 116v335z" />
    <glyph glyph-name="uni2196" unicode="&#x2196;" 
d="M759 174l-108 -108l-237 237c-37 37 -56 56 -79 85l-1 -1c1 -19 5 -51 5 -99v-93h-152v443h443v-152h-93c-48 0 -80 4 -99 5l-1 -1c24 -21 69 -63 85 -79z" />
    <glyph glyph-name="uni2197" unicode="&#x2197;" 
d="M295 66l-108 108l237 237c40 40 67 64 85 79l-1 1c-19 -1 -51 -5 -99 -5h-93v152h443v-443h-152v93c0 48 4 80 5 99l-1 1c-15 -18 -39 -45 -79 -85z" />
    <glyph glyph-name="uni2198" unicode="&#x2198;" 
d="M187 530l108 108l237 -237c29 -29 64 -68 79 -85l1 1c-1 19 -5 51 -5 99v93h152v-443h-443v152h93c48 0 80 -4 99 -5l1 1c-29 23 -42 36 -85 79z" />
    <glyph glyph-name="uni2199" unicode="&#x2199;" 
d="M651 638l108 -108l-237 -237c-41 -41 -68 -65 -85 -79l1 -1c19 1 51 5 99 5h93v-152h-443v443h152v-93c0 -48 -4 -80 -5 -99l1 -1c14 17 38 44 79 85z" />
    <glyph glyph-name="partialdiff" unicode="&#x2202;" horiz-adv-x="572" 
d="M304 732c155 0 260 -86 260 -309c0 -273 -156 -435 -332 -435c-116 0 -224 70 -224 226c0 171 129 268 252 268c30 0 70 -6 110 -32c-6 99 -39 132 -97 132c-38 0 -85 -14 -124 -37l-12 148c43 23 101 39 167 39zM300 340c-47 0 -94 -46 -94 -130c0 -60 24 -86 52 -86
c46 0 90 70 107 183c-24 24 -44 33 -65 33z" />
    <glyph glyph-name="emptyset" unicode="&#x2205;" horiz-adv-x="676" 
d="M214 -74l-113 65l43 72c-52 51 -84 119 -84 202c0 160 120 277 277 277c29 0 55 -4 82 -11l43 73l113 -65l-43 -72c52 -51 84 -119 84 -202c0 -160 -120 -277 -277 -277c-29 0 -55 4 -82 11zM484 265c0 31 -8 58 -23 81l-132 -225c3 -1 6 -1 9 -1c84 0 146 61 146 145z
M192 265c0 -31 8 -58 23 -81l132 225c-3 1 -6 1 -9 1c-84 0 -146 -61 -146 -145z" />
    <glyph glyph-name="Delta" unicode="&#x2206;" horiz-adv-x="704" 
d="M474 720l178 -584v-136h-600v136l184 584h238zM348 532l-96 -372h192z" />
    <glyph glyph-name="product" unicode="&#x220f;" horiz-adv-x="752" 
d="M70 -140v860h600v-860h-200v694h-200v-694h-200z" />
    <glyph glyph-name="summation" unicode="&#x2211;" horiz-adv-x="594" 
d="M24 -140v136l232 296l-213 286v142h521v-166h-257l191 -257l-217 -277h287v-160h-544z" />
    <glyph glyph-name="minus" unicode="&#x2212;" horiz-adv-x="572" 
d="M530 331v-152h-488v152h488z" />
    <glyph glyph-name="uni2215" unicode="&#x2215;" horiz-adv-x="572" 
d="M-21 0l457 720h157l-457 -720h-157z" />
    <glyph glyph-name="uni2219" unicode="&#x2219;" horiz-adv-x="572" 
d="M429 351c0 -82 -61 -143 -143 -143s-143 61 -143 143s61 143 143 143s143 -61 143 -143z" />
    <glyph glyph-name="radical" unicode="&#x221a;" horiz-adv-x="572" 
d="M156 -80l-176 510h200l79 -291l181 581h192l-278 -800h-198z" />
    <glyph glyph-name="infinity" unicode="&#x221e;" horiz-adv-x="788" 
d="M573 40c-88 0 -136 58 -183 110c-45 -48 -93 -110 -183 -110c-98 0 -173 74 -173 211c0 138 76 219 181 219c88 0 136 -58 183 -110c45 48 93 110 183 110c98 0 173 -74 173 -211c0 -138 -76 -219 -181 -219zM213 179c31 0 62 33 95 71c-34 41 -63 81 -96 81
c-26 0 -49 -25 -49 -76s23 -76 50 -76zM575 331c-31 0 -62 -33 -95 -71c34 -41 63 -81 96 -81c26 0 49 25 49 76s-23 76 -50 76z" />
    <glyph glyph-name="integral" unicode="&#x222b;" horiz-adv-x="454" 
d="M128 -2v514c0 148 77 208 273 208h25v-136h-25c-60 0 -75 -20 -75 -72v-514c0 -148 -77 -208 -273 -208h-25v136h25c60 0 75 20 75 72z" />
    <glyph glyph-name="congruent" unicode="&#x2245;" horiz-adv-x="572" 
d="M62 348l-44 126c27 19 87 40 150 40c83 0 155 -36 233 -36c50 0 84 15 109 32l44 -126c-27 -19 -87 -40 -150 -40c-83 0 -155 36 -233 36c-50 0 -84 -15 -109 -32zM530 88v-134h-488v134h488zM530 292v-134h-488v134h488z" />
    <glyph glyph-name="approxequal" unicode="&#x2248;" horiz-adv-x="572" 
d="M62 276l-44 126c27 19 87 40 150 40c83 0 155 -36 233 -36c50 0 84 15 109 32l44 -126c-27 -19 -87 -40 -150 -40c-83 0 -155 36 -233 36c-50 0 -84 -15 -109 -32zM62 72l-44 126c27 19 87 40 150 40c83 0 155 -36 233 -36c50 0 84 15 109 32l44 -126
c-27 -19 -87 -40 -150 -40c-83 0 -155 36 -233 36c-50 0 -84 -15 -109 -32z" />
    <glyph glyph-name="notequal" unicode="&#x2260;" horiz-adv-x="572" 
d="M190 -41l-117 67l35 60h-66v134h145l41 70h-186v134h265l75 127l117 -67l-36 -60h67v-134h-146l-41 -70h187v-134h-266z" />
    <glyph glyph-name="lessequal" unicode="&#x2264;" horiz-adv-x="572" 
d="M530 510v-126l-324 -79l324 -79v-126l-488 135v140zM530 -46h-488v134h488v-134z" />
    <glyph glyph-name="greaterequal" unicode="&#x2265;" horiz-adv-x="572" 
d="M42 384v126l488 -135v-140l-488 -135v126l324 79zM42 -46v134h488v-134h-488z" />
    <glyph glyph-name="circleplus" unicode="&#x2295;" 
d="M564 151h-127v147h-137v124h137v147h127v-147h137v-124h-137v-147zM872 360c0 -213 -163 -372 -372 -372s-372 159 -372 372s163 372 372 372s372 -159 372 -372zM782 360c0 166 -124 290 -282 290s-282 -124 -282 -290s124 -290 282 -290s282 124 282 290z" />
    <glyph glyph-name="uni2296" unicode="&#x2296;" 
d="M701 422v-124h-401v124h401zM872 360c0 -213 -163 -372 -372 -372s-372 159 -372 372s163 372 372 372s372 -159 372 -372zM782 360c0 166 -124 290 -282 290s-282 -124 -282 -290s124 -290 282 -290s282 124 282 290z" />
    <glyph glyph-name="circlemultiply" unicode="&#x2297;" 
d="M300 473l88 88l113 -113l112 113l88 -88l-114 -113l114 -113l-88 -88l-112 113l-113 -113l-88 88l114 113zM872 360c0 -213 -163 -372 -372 -372s-372 159 -372 372s163 372 372 372s372 -159 372 -372zM782 360c0 166 -124 290 -282 290s-282 -124 -282 -290
s124 -290 282 -290s282 124 282 290z" />
    <glyph glyph-name="uni2298" unicode="&#x2298;" 
d="M300 247l313 314l88 -88l-313 -314zM872 360c0 -213 -163 -372 -372 -372s-372 159 -372 372s163 372 372 372s372 -159 372 -372zM782 360c0 166 -124 290 -282 290s-282 -124 -282 -290s124 -290 282 -290s282 124 282 290z" />
    <glyph glyph-name="uni229C" unicode="&#x229c;" 
d="M872 360c0 -213 -163 -372 -372 -372s-372 159 -372 372s163 372 372 372s372 -159 372 -372zM782 360c0 166 -124 290 -282 290s-282 -124 -282 -290s124 -290 282 -290s282 124 282 290zM701 498v-110h-401v110h401zM701 330v-109h-401v109h401z" />
    <glyph glyph-name="dotmath" unicode="&#x22c5;" horiz-adv-x="572" 
d="M171 259c0 62 47 110 115 110s115 -48 115 -110s-47 -110 -115 -110s-115 48 -115 110z" />
    <glyph glyph-name="uni2460" unicode="&#x2460;" 
d="M398 388l-31 96l101 52h95v-410h-119v286zM968 330c0 -269 -205 -468 -468 -468s-468 199 -468 468s205 468 468 468s468 -199 468 -468zM878 330c0 222 -166 386 -378 386s-378 -164 -378 -386s166 -386 378 -386s378 164 378 386z" />
    <glyph glyph-name="uni2461" unicode="&#x2461;" 
d="M649 221v-95h-298v85c130 100 166 156 166 192c0 22 -14 36 -42 36c-33 0 -66 -22 -92 -48l-32 99c29 28 82 53 142 53c87 0 145 -50 145 -129c0 -76 -53 -137 -118 -193h129zM968 330c0 -269 -205 -468 -468 -468s-468 199 -468 468s205 468 468 468s468 -199 468 -468z
M878 330c0 222 -166 386 -378 386s-378 -164 -378 -386s166 -386 378 -386s378 164 378 386z" />
    <glyph glyph-name="uni2462" unicode="&#x2462;" 
d="M502 543c86 0 148 -36 148 -106c0 -46 -25 -80 -71 -100c55 -15 81 -49 81 -95c0 -78 -70 -124 -178 -124c-50 0 -95 10 -132 26l26 98c34 -16 65 -29 102 -29c36 0 56 13 56 36c0 24 -20 37 -76 37c-14 0 -29 -1 -47 -2v86c97 0 119 16 119 42c0 21 -15 32 -43 32
c-29 0 -59 -11 -96 -30l-27 96c41 20 87 33 138 33zM968 330c0 -269 -205 -468 -468 -468s-468 199 -468 468s205 468 468 468s468 -199 468 -468zM878 330c0 222 -166 386 -378 386s-378 -164 -378 -386s166 -386 378 -386s378 164 378 386z" />
    <glyph glyph-name="uni2463" unicode="&#x2463;" 
d="M296 199v89l175 248h130v-242h58v-95h-58v-73h-116v73h-189zM412 294h73v104zM968 330c0 -269 -205 -468 -468 -468s-468 199 -468 468s205 468 468 468s468 -199 468 -468zM878 330c0 222 -166 386 -378 386s-378 -164 -378 -386s166 -386 378 -386s378 164 378 386z
" />
    <glyph glyph-name="uni2464" unicode="&#x2464;" 
d="M345 144l26 99c34 -15 63 -28 101 -28c42 0 62 15 62 44c0 31 -25 44 -73 44c-23 0 -57 -3 -99 -14l8 247h266v-99h-152l-2 -45c10 1 17 1 25 1c93 0 148 -51 148 -132c0 -91 -70 -143 -179 -143c-49 0 -95 10 -131 26zM968 330c0 -269 -205 -468 -468 -468
s-468 199 -468 468s205 468 468 468s468 -199 468 -468zM878 330c0 222 -166 386 -378 386s-378 -164 -378 -386s166 -386 378 -386s378 164 378 386z" />
    <glyph glyph-name="uni2465" unicode="&#x2465;" 
d="M523 543c38 0 79 -8 108 -24l-27 -101c-27 14 -52 25 -81 25c-35 0 -61 -15 -71 -68c27 26 55 30 77 30c75 0 122 -53 122 -135c0 -99 -70 -152 -152 -152c-98 0 -168 73 -168 209c0 145 78 216 192 216zM495 311c-14 0 -27 -4 -46 -19c5 -63 27 -82 51 -82
c22 0 37 18 37 51c0 34 -16 50 -42 50zM968 330c0 -269 -205 -468 -468 -468s-468 199 -468 468s205 468 468 468s468 -199 468 -468zM878 330c0 222 -166 386 -378 386s-378 -164 -378 -386s166 -386 378 -386s378 164 378 386z" />
    <glyph glyph-name="uni2466" unicode="&#x2466;" 
d="M519 126h-132c39 111 79 212 126 307h-150v103h285v-98c-49 -96 -90 -198 -129 -312zM968 330c0 -269 -205 -468 -468 -468s-468 199 -468 468s205 468 468 468s468 -199 468 -468zM878 330c0 222 -166 386 -378 386s-378 -164 -378 -386s166 -386 378 -386
s378 164 378 386z" />
    <glyph glyph-name="uni2467" unicode="&#x2467;" 
d="M335 237c0 51 31 76 70 93c-33 18 -53 47 -53 90c0 75 59 123 152 123c90 0 143 -44 143 -109c0 -41 -20 -71 -57 -89c41 -15 75 -42 75 -98c0 -80 -67 -129 -170 -129c-100 0 -160 46 -160 119zM544 239c0 26 -23 39 -55 53c-21 -13 -33 -27 -33 -50
c0 -28 16 -42 43 -42c28 0 45 15 45 39zM468 426c0 -20 15 -33 38 -44c15 12 25 25 25 44c0 20 -12 32 -31 32s-32 -12 -32 -32zM968 330c0 -269 -205 -468 -468 -468s-468 199 -468 468s205 468 468 468s468 -199 468 -468zM878 330c0 222 -166 386 -378 386
s-378 -164 -378 -386s166 -386 378 -386s378 164 378 386z" />
    <glyph glyph-name="uni2468" unicode="&#x2468;" 
d="M478 118c-39 0 -80 9 -109 24l27 97c27 -14 52 -25 82 -25c35 0 62 16 70 74c-27 -28 -56 -32 -76 -32c-76 0 -123 54 -123 135c0 101 71 152 152 152c98 0 168 -72 168 -209c0 -144 -78 -216 -191 -216zM505 345c14 0 27 5 46 20c-5 63 -27 82 -50 82s-38 -18 -38 -51
c0 -34 16 -51 42 -51zM968 330c0 -269 -205 -468 -468 -468s-468 199 -468 468s205 468 468 468s468 -199 468 -468zM878 330c0 222 -166 386 -378 386s-378 -164 -378 -386s166 -386 378 -386s378 164 378 386z" />
    <glyph glyph-name="uni2469" unicode="&#x2469;" 
d="M238 388l-31 96l101 52h95v-410h-119v286zM788 332c0 -141 -73 -214 -170 -214c-98 0 -169 73 -169 212c0 141 73 213 170 213c98 0 169 -72 169 -211zM668 329c0 90 -21 115 -49 115c-29 0 -50 -25 -50 -115s21 -115 50 -115c28 0 49 25 49 115zM968 330
c0 -269 -205 -468 -468 -468s-468 199 -468 468s205 468 468 468s468 -199 468 -468zM878 330c0 222 -166 386 -378 386s-378 -164 -378 -386s166 -386 378 -386s378 164 378 386z" />
    <glyph glyph-name="uni246A" unicode="&#x246a;" 
d="M271 388l-31 96l101 52h95v-410h-119v286zM525 388l-31 96l101 52h95v-410h-119v286zM968 330c0 -269 -205 -468 -468 -468s-468 199 -468 468s205 468 468 468s468 -199 468 -468zM878 330c0 222 -166 386 -378 386s-378 -164 -378 -386s166 -386 378 -386
s378 164 378 386z" />
    <glyph glyph-name="uni246B" unicode="&#x246b;" 
d="M247 388l-31 96l101 52h95v-410h-119v286zM762 221v-95h-298v85c130 100 166 156 166 192c0 22 -14 36 -42 36c-33 0 -66 -22 -92 -48l-32 99c29 28 82 53 142 53c87 0 145 -50 145 -129c0 -76 -53 -137 -118 -193h129zM968 330c0 -269 -205 -468 -468 -468
s-468 199 -468 468s205 468 468 468s468 -199 468 -468zM878 330c0 222 -166 386 -378 386s-378 -164 -378 -386s166 -386 378 -386s378 164 378 386z" />
    <glyph glyph-name="uni246C" unicode="&#x246c;" 
d="M247 388l-31 96l101 52h95v-410h-119v286zM605 543c86 0 148 -36 148 -106c0 -46 -25 -80 -71 -100c55 -15 81 -49 81 -95c0 -78 -70 -124 -178 -124c-50 0 -95 10 -132 26l26 98c34 -16 65 -29 102 -29c36 0 56 13 56 36c0 24 -20 37 -76 37c-14 0 -29 -1 -47 -2v86
c97 0 119 16 119 42c0 21 -15 32 -43 32c-29 0 -59 -11 -96 -30l-27 96c41 20 87 33 138 33zM968 330c0 -269 -205 -468 -468 -468s-468 199 -468 468s205 468 468 468s468 -199 468 -468zM878 330c0 222 -166 386 -378 386s-378 -164 -378 -386s166 -386 378 -386
s378 164 378 386z" />
    <glyph glyph-name="uni246D" unicode="&#x246d;" 
d="M247 388l-31 96l101 52h95v-410h-119v286zM442 199v89l175 248h130v-242h58v-95h-58v-73h-116v73h-189zM558 294h73v104zM968 330c0 -269 -205 -468 -468 -468s-468 199 -468 468s205 468 468 468s468 -199 468 -468zM878 330c0 222 -166 386 -378 386
s-378 -164 -378 -386s166 -386 378 -386s378 164 378 386z" />
    <glyph glyph-name="uni246E" unicode="&#x246e;" 
d="M247 388l-31 96l101 52h95v-410h-119v286zM454 144l26 99c34 -15 63 -28 101 -28c42 0 62 15 62 44c0 31 -25 44 -73 44c-23 0 -57 -3 -99 -14l8 247h266v-99h-152l-2 -45c10 1 17 1 25 1c93 0 148 -51 148 -132c0 -91 -70 -143 -179 -143c-49 0 -95 10 -131 26zM968 330
c0 -269 -205 -468 -468 -468s-468 199 -468 468s205 468 468 468s468 -199 468 -468zM878 330c0 222 -166 386 -378 386s-378 -164 -378 -386s166 -386 378 -386s378 164 378 386z" />
    <glyph glyph-name="uni246F" unicode="&#x246f;" 
d="M247 388l-31 96l101 52h95v-410h-119v286zM647 543c38 0 79 -8 108 -24l-27 -101c-27 14 -52 25 -81 25c-35 0 -61 -15 -71 -68c27 26 55 30 77 30c75 0 122 -53 122 -135c0 -99 -70 -152 -152 -152c-98 0 -168 73 -168 209c0 145 78 216 192 216zM619 311
c-14 0 -27 -4 -46 -19c5 -63 27 -82 51 -82c22 0 37 18 37 51c0 34 -16 50 -42 50zM968 330c0 -269 -205 -468 -468 -468s-468 199 -468 468s205 468 468 468s468 -199 468 -468zM878 330c0 222 -166 386 -378 386s-378 -164 -378 -386s166 -386 378 -386s378 164 378 386z
" />
    <glyph glyph-name="uni2470" unicode="&#x2470;" 
d="M261 388l-31 96l101 52h95v-410h-119v286zM635 126h-132c39 111 79 212 126 307h-150v103h285v-98c-49 -96 -90 -198 -129 -312zM968 330c0 -269 -205 -468 -468 -468s-468 199 -468 468s205 468 468 468s468 -199 468 -468zM878 330c0 222 -166 386 -378 386
s-378 -164 -378 -386s166 -386 378 -386s378 164 378 386z" />
    <glyph glyph-name="uni2471" unicode="&#x2471;" 
d="M247 388l-31 96l101 52h95v-410h-119v286zM449 237c0 51 31 76 70 93c-33 18 -53 47 -53 90c0 75 59 123 152 123c90 0 143 -44 143 -109c0 -41 -20 -71 -57 -89c41 -15 75 -42 75 -98c0 -80 -67 -129 -170 -129c-100 0 -160 46 -160 119zM658 239c0 26 -23 39 -55 53
c-21 -13 -33 -27 -33 -50c0 -28 16 -42 43 -42c28 0 45 15 45 39zM582 426c0 -20 15 -33 38 -44c15 12 25 25 25 44c0 20 -12 32 -31 32s-32 -12 -32 -32zM968 330c0 -269 -205 -468 -468 -468s-468 199 -468 468s205 468 468 468s468 -199 468 -468zM878 330
c0 222 -166 386 -378 386s-378 -164 -378 -386s166 -386 378 -386s378 164 378 386z" />
    <glyph glyph-name="uni2472" unicode="&#x2472;" 
d="M247 388l-31 96l101 52h95v-410h-119v286zM594 118c-39 0 -80 9 -109 24l27 97c27 -14 52 -25 82 -25c35 0 62 16 70 74c-27 -28 -56 -32 -76 -32c-76 0 -123 54 -123 135c0 101 71 152 152 152c98 0 168 -72 168 -209c0 -144 -78 -216 -191 -216zM621 345
c14 0 27 5 46 20c-5 63 -27 82 -50 82s-38 -18 -38 -51c0 -34 16 -51 42 -51zM968 330c0 -269 -205 -468 -468 -468s-468 199 -468 468s205 468 468 468s468 -199 468 -468zM878 330c0 222 -166 386 -378 386s-378 -164 -378 -386s166 -386 378 -386s378 164 378 386z" />
    <glyph glyph-name="uni2473" unicode="&#x2473;" 
d="M968 330c0 -269 -205 -468 -468 -468s-468 199 -468 468s205 468 468 468s468 -199 468 -468zM878 330c0 222 -166 386 -378 386s-378 -164 -378 -386s166 -386 378 -386s378 164 378 386zM492 221v-95h-298v85c130 100 166 156 166 192c0 22 -14 36 -42 36
c-33 0 -66 -22 -92 -48l-32 99c29 28 82 53 142 53c87 0 145 -50 145 -129c0 -76 -53 -137 -118 -193h129zM839 332c0 -141 -73 -214 -170 -214c-98 0 -169 73 -169 212c0 141 73 213 170 213c98 0 169 -72 169 -211zM719 329c0 90 -21 115 -49 115c-29 0 -50 -25 -50 -115
s21 -115 50 -115c28 0 49 25 49 115z" />
    <glyph glyph-name="uni24EA" unicode="&#x24ea;" 
d="M670 332c0 -141 -73 -214 -170 -214c-98 0 -169 73 -169 212c0 141 73 213 170 213c98 0 169 -72 169 -211zM550 329c0 90 -21 115 -49 115c-29 0 -50 -25 -50 -115s21 -115 50 -115c28 0 49 25 49 115zM968 330c0 -269 -205 -468 -468 -468s-468 199 -468 468
s205 468 468 468s468 -199 468 -468zM878 330c0 222 -166 386 -378 386s-378 -164 -378 -386s166 -386 378 -386s378 164 378 386z" />
    <glyph glyph-name="uni24EB" unicode="&#x24eb;" 
d="M230 484l31 -96l46 24v-286h119v410h-95zM504 484l31 -96l46 24v-286h119v410h-95zM968 330c0 -269 -205 -468 -468 -468s-468 199 -468 468s205 468 468 468s468 -199 468 -468z" />
    <glyph glyph-name="uni24EC" unicode="&#x24ec;" 
d="M206 484l31 -96l46 24v-286h119v410h-95zM772 126v95h-129c65 56 118 117 118 193c0 79 -58 129 -145 129c-60 0 -113 -25 -142 -53l32 -99c26 26 59 48 92 48c28 0 42 -14 42 -36c0 -36 -36 -92 -166 -192v-85h298zM968 330c0 -269 -205 -468 -468 -468
s-468 199 -468 468s205 468 468 468s468 -199 468 -468z" />
    <glyph glyph-name="uni24ED" unicode="&#x24ed;" 
d="M206 484l31 -96l46 24v-286h119v410h-95zM615 543c-51 0 -97 -13 -138 -33l27 -96c37 19 67 30 96 30c28 0 43 -11 43 -32c0 -26 -22 -42 -119 -42v-86c18 1 33 2 47 2c56 0 76 -13 76 -37c0 -23 -20 -36 -56 -36c-37 0 -68 13 -102 29l-26 -98c37 -16 82 -26 132 -26
c108 0 178 46 178 124c0 46 -26 80 -81 95c46 20 71 54 71 100c0 70 -62 106 -148 106zM968 330c0 -269 -205 -468 -468 -468s-468 199 -468 468s205 468 468 468s468 -199 468 -468z" />
    <glyph glyph-name="uni24EE" unicode="&#x24ee;" 
d="M206 484l31 -96l46 24v-286h119v410h-95zM452 288v-89h189v-73h116v73h58v95h-58v242h-130zM641 294h-73l73 104v-104zM968 330c0 -269 -205 -468 -468 -468s-468 199 -468 468s205 468 468 468s468 -199 468 -468z" />
    <glyph glyph-name="uni24EF" unicode="&#x24ef;" 
d="M206 484l31 -96l46 24v-286h119v410h-95zM490 243l-26 -99c36 -16 82 -26 131 -26c109 0 179 52 179 143c0 81 -55 132 -148 132c-8 0 -15 0 -25 -1l2 45h152v99h-266l-8 -247c42 11 76 14 99 14c48 0 73 -13 73 -44c0 -29 -20 -44 -62 -44c-38 0 -67 13 -101 28z
M968 330c0 -269 -205 -468 -468 -468s-468 199 -468 468s205 468 468 468s468 -199 468 -468z" />
    <glyph glyph-name="uni24F0" unicode="&#x24f0;" 
d="M206 484l31 -96l46 24v-286h119v410h-95zM657 543c-114 0 -192 -71 -192 -216c0 -136 70 -209 168 -209c82 0 152 53 152 152c0 82 -47 135 -122 135c-22 0 -50 -4 -77 -30c10 53 36 68 71 68c29 0 54 -11 81 -25l27 101c-29 16 -70 24 -108 24zM629 311
c26 0 42 -16 42 -50c0 -33 -15 -51 -37 -51c-24 0 -46 19 -51 82c19 15 32 19 46 19zM968 330c0 -269 -205 -468 -468 -468s-468 199 -468 468s205 468 468 468s468 -199 468 -468z" />
    <glyph glyph-name="uni24F1" unicode="&#x24f1;" 
d="M220 484l31 -96l46 24v-286h119v410h-95zM513 126h132c39 114 80 216 129 312v98h-285v-103h150c-47 -95 -87 -196 -126 -307zM968 330c0 -269 -205 -468 -468 -468s-468 199 -468 468s205 468 468 468s468 -199 468 -468z" />
    <glyph glyph-name="uni24F2" unicode="&#x24f2;" 
d="M206 484l31 -96l46 24v-286h119v410h-95zM459 237c0 -73 60 -119 160 -119c103 0 170 49 170 129c0 56 -34 83 -75 98c37 18 57 48 57 89c0 65 -53 109 -143 109c-93 0 -152 -48 -152 -123c0 -43 20 -72 53 -90c-39 -17 -70 -42 -70 -93zM668 239c0 -24 -17 -39 -45 -39
c-27 0 -43 14 -43 42c0 23 12 37 33 50c32 -14 55 -27 55 -53zM592 426c0 20 13 32 32 32s31 -12 31 -32c0 -19 -10 -32 -25 -44c-23 11 -38 24 -38 44zM968 330c0 -269 -205 -468 -468 -468s-468 199 -468 468s205 468 468 468s468 -199 468 -468z" />
    <glyph glyph-name="uni24F3" unicode="&#x24f3;" 
d="M206 484l31 -96l46 24v-286h119v410h-95zM604 118c113 0 191 72 191 216c0 137 -70 209 -168 209c-81 0 -152 -51 -152 -152c0 -81 47 -135 123 -135c20 0 49 4 76 32c-8 -58 -35 -74 -70 -74c-30 0 -55 11 -82 25l-27 -97c29 -15 70 -24 109 -24zM631 345
c-26 0 -42 17 -42 51c0 33 15 51 38 51s45 -19 50 -82c-19 -15 -32 -20 -46 -20zM968 330c0 -269 -205 -468 -468 -468s-468 199 -468 468s205 468 468 468s468 -199 468 -468z" />
    <glyph glyph-name="uni24F4" unicode="&#x24f4;" 
d="M482 126v95h-129c65 56 118 117 118 193c0 79 -58 129 -145 129c-60 0 -113 -25 -142 -53l32 -99c26 26 59 48 92 48c28 0 42 -14 42 -36c0 -36 -36 -92 -166 -192v-85h298zM849 332c0 139 -71 211 -169 211c-97 0 -170 -72 -170 -213c0 -139 71 -212 169 -212
c97 0 170 73 170 214zM729 329c0 -90 -21 -115 -49 -115c-29 0 -50 25 -50 115s21 115 50 115c28 0 49 -25 49 -115zM968 330c0 -269 -205 -468 -468 -468s-468 199 -468 468s205 468 468 468s468 -199 468 -468z" />
    <glyph glyph-name="filledbox" unicode="&#x25a0;" 
d="M140 0v720h720v-720h-720z" />
    <glyph glyph-name="H22073" unicode="&#x25a1;" 
d="M140 0v720h720v-720h-720zM282 578v-436h436v436h-436z" />
    <glyph glyph-name="triagup" unicode="&#x25b2;" horiz-adv-x="584" 
d="M292 542l255 -442h-510z" />
    <glyph glyph-name="triagrt" unicode="&#x25ba;" horiz-adv-x="584" 
d="M542 309l-442 -255v510z" />
    <glyph glyph-name="triagdn" unicode="&#x25bc;" horiz-adv-x="584" 
d="M547 518l-255 -442l-255 442h510z" />
    <glyph glyph-name="triaglf" unicode="&#x25c4;" horiz-adv-x="584" 
d="M484 54l-442 255l442 255v-510z" />
    <glyph glyph-name="uni25C6" unicode="&#x25c6;" 
d="M128 360l372 372l372 -372l-372 -372z" />
    <glyph glyph-name="uni25C7" unicode="&#x25c7;" 
d="M128 360l372 372l372 -372l-372 -372zM500 532l-172 -172l172 -172l172 172z" />
    <glyph glyph-name="lozenge" unicode="&#x25ca;" horiz-adv-x="584" 
d="M359 0h-134l-189 360l189 360h134l189 -360zM404 360l-112 218l-112 -218l112 -218z" />
    <glyph glyph-name="circle" unicode="&#x25cb;" 
d="M872 360c0 -213 -163 -372 -372 -372s-372 159 -372 372s163 372 372 372s372 -159 372 -372zM730 360c0 132 -101 230 -230 230s-230 -98 -230 -230s101 -230 230 -230s230 98 230 230z" />
    <glyph glyph-name="H18533" unicode="&#x25cf;" 
d="M872 360c0 -213 -163 -372 -372 -372s-372 159 -372 372s163 372 372 372s372 -159 372 -372z" />
    <glyph glyph-name="uni2605" unicode="&#x2605;" 
d="M409 459l91 282l91 -282h294l-239 -173l92 -279l-238 172l-238 -172l92 279l-239 173h294z" />
    <glyph glyph-name="uni272D" unicode="&#x272d;" 
d="M409 459l91 282l91 -282h294l-239 -173l92 -279l-238 172l-238 -172l92 279l-239 173h294zM500 278l85 -62l-31 102l85 61h-105l-34 102l-34 -102h-105l85 -61l-31 -102z" />
    <glyph glyph-name="uni2756" unicode="&#x2756;" 
d="M128 360l158 158l158 -158l-158 -158zM342 146l158 158l158 -158l-158 -158zM342 574l158 158l158 -158l-158 -158zM556 360l158 158l158 -158l-158 -158z" />
    <glyph glyph-name="uni2767" unicode="&#x2767;" horiz-adv-x="1330" 
d="M228 104l-188 32c9 64 52 298 347 298c284 0 298 -216 510 -232v8c-180 56 -152 209 -384 257c0 92 79 151 181 151c271 0 197 -416 434 -416c46 0 99 16 150 45l12 -196c-65 -31 -121 -41 -192 -41c-40 0 -111 3 -183 51c-86 -44 -187 -73 -290 -73
c-165 0 -240 76 -240 179c0 34 8 65 24 90c-15 6 -26 9 -40 9c-91 0 -133 -103 -141 -162z" />
    <glyph glyph-name="uni2780" unicode="&#x2780;" 
d="M398 388l-31 96l101 52h95v-410h-119v286zM968 330c0 -269 -205 -468 -468 -468s-468 199 -468 468s205 468 468 468s468 -199 468 -468zM878 330c0 222 -166 386 -378 386s-378 -164 -378 -386s166 -386 378 -386s378 164 378 386z" />
    <glyph glyph-name="uni2781" unicode="&#x2781;" 
d="M649 221v-95h-298v85c130 100 166 156 166 192c0 22 -14 36 -42 36c-33 0 -66 -22 -92 -48l-32 99c29 28 82 53 142 53c87 0 145 -50 145 -129c0 -76 -53 -137 -118 -193h129zM968 330c0 -269 -205 -468 -468 -468s-468 199 -468 468s205 468 468 468s468 -199 468 -468z
M878 330c0 222 -166 386 -378 386s-378 -164 -378 -386s166 -386 378 -386s378 164 378 386z" />
    </font>
</defs>
</svg>
